<?xml version="1.0" encoding="UTF-8"?>
<svg xmlns="http://www.w3.org/2000/svg" xmlns:inkscape="http://www.inkscape.org/namespaces/inkscape" width="127.0000mm" height="128.5000mm" viewBox="0 0 127.0000 128.5000" version="1.1">
<g inkscape:label="panel" inkscape:groupmode="layer" id="panel">
  <rect x="0" y="0" width="127.0000" height="128.5000" fill="#E4EAE1"/>
  <rect x="0" y="0" width="127.0000" height="9.0000" fill="#181E15"/>
  <path d="M 11.200 1.350 L 11.551 1.586 L 11.902 1.776 L 12.253 1.884 L 12.604 1.889 L 12.955 1.790 L 13.306 1.606 L 13.657 1.373 L 14.008 1.136 L 14.359 0.939 L 14.710 0.822 L 15.061 0.807 L 15.412 0.896 L 15.763 1.073 L 16.114 1.304 L 16.465 1.543 L 16.816 1.745 L 17.167 1.871 L 17.518 1.896 L 17.869 1.816 L 18.220 1.646 L 18.571 1.419 L 18.922 1.179 L 19.273 0.971 L 19.624 0.837 L 19.975 0.801 L 20.326 0.872 L 20.677 1.034 L 21.028 1.258 L 21.379 1.499 L 21.730 1.711 L 22.081 1.854 L 22.432 1.900 L 22.783 1.839 L 23.134 1.684 L 23.485 1.465 L 23.836 1.224 L 24.187 1.006 L 24.538 0.856 L 24.889 0.800 L 25.240 0.851 L 25.591 0.997 L 25.942 1.212 L 26.293 1.454 L 26.644 1.675 L 26.995 1.834 L 27.346 1.899 L 27.697 1.859 L 28.048 1.720 L 28.399 1.510 L 28.750 1.269 L 29.101 1.044 L 29.452 0.878 L 29.803 0.802 L 30.154 0.833 L 30.505 0.963 L 30.856 1.168 L 31.207 1.408 L 31.558 1.637 L 31.909 1.810 L 32.260 1.895 L 32.611 1.874 L 32.962 1.753 L 33.313 1.554 L 33.664 1.315 L 34.015 1.083 L 34.366 0.903 L 34.717 0.809 L 35.068 0.819 L 35.419 0.932 L 35.770 1.125 L 36.121 1.362 L 36.472 1.596 L 36.823 1.783 L 37.174 1.887 L 37.526 1.887 L 37.877 1.783 L 38.228 1.596 L 38.579 1.362 L 38.930 1.125 L 39.281 0.932 L 39.632 0.819 L 39.983 0.809 L 40.334 0.903 L 40.685 1.083 L 41.036 1.315 L 41.387 1.554 L 41.738 1.753 L 42.089 1.874 L 42.440 1.895 L 42.791 1.810 L 43.142 1.637 L 43.493 1.408 L 43.844 1.168 L 44.195 0.963 L 44.546 0.833 L 44.897 0.802 L 45.248 0.878 L 45.599 1.044 L 45.950 1.269 L 46.301 1.510 L 46.652 1.720 L 47.003 1.859 L 47.354 1.899 L 47.705 1.834 L 48.056 1.675 L 48.407 1.454 L 48.758 1.212 L 49.109 0.997 L 49.460 0.851 L 49.811 0.800 L 50.162 0.856 L 50.513 1.006 L 50.864 1.224 L 51.215 1.465 L 51.566 1.684 L 51.917 1.839 L 52.268 1.900 L 52.619 1.854 L 52.970 1.711 L 53.321 1.499 L 53.672 1.258 L 54.023 1.034 L 54.374 0.872 L 54.725 0.801 L 55.076 0.837 L 55.427 0.971 L 55.778 1.179 L 56.129 1.419 L 56.480 1.646 L 56.831 1.816 L 57.182 1.896 L 57.533 1.871 L 57.884 1.745 L 58.235 1.543 L 58.586 1.304 L 58.937 1.073 L 59.288 0.896 L 59.639 0.807 L 59.990 0.822 L 60.341 0.939 L 60.692 1.136 L 61.043 1.373 L 61.394 1.606 L 61.745 1.790 L 62.096 1.889 L 62.447 1.884 L 62.798 1.776 L 63.149 1.586 L 63.500 1.350 L 63.851 1.114 L 64.202 0.924 L 64.553 0.816 L 64.904 0.811 L 65.255 0.910 L 65.606 1.094 L 65.957 1.327 L 66.308 1.564 L 66.659 1.761 L 67.010 1.878 L 67.361 1.893 L 67.712 1.804 L 68.063 1.627 L 68.414 1.396 L 68.765 1.157 L 69.116 0.955 L 69.467 0.829 L 69.818 0.804 L 70.169 0.884 L 70.520 1.054 L 70.871 1.281 L 71.222 1.521 L 71.573 1.729 L 71.924 1.863 L 72.275 1.899 L 72.626 1.828 L 72.977 1.666 L 73.328 1.442 L 73.679 1.201 L 74.030 0.989 L 74.381 0.846 L 74.732 0.800 L 75.083 0.861 L 75.434 1.016 L 75.785 1.235 L 76.136 1.476 L 76.487 1.694 L 76.838 1.844 L 77.189 1.900 L 77.540 1.849 L 77.891 1.703 L 78.242 1.488 L 78.593 1.246 L 78.944 1.025 L 79.295 0.866 L 79.646 0.801 L 79.997 0.841 L 80.348 0.980 L 80.699 1.190 L 81.050 1.431 L 81.401 1.656 L 81.752 1.822 L 82.103 1.898 L 82.454 1.867 L 82.805 1.737 L 83.156 1.532 L 83.507 1.292 L 83.858 1.063 L 84.209 0.890 L 84.560 0.805 L 84.911 0.826 L 85.262 0.947 L 85.613 1.146 L 85.964 1.385 L 86.315 1.617 L 86.666 1.797 L 87.017 1.891 L 87.368 1.881 L 87.719 1.768 L 88.070 1.575 L 88.421 1.338 L 88.772 1.104 L 89.123 0.917 L 89.474 0.813 L 89.826 0.813 L 90.177 0.917 L 90.528 1.104 L 90.879 1.338 L 91.230 1.575 L 91.581 1.768 L 91.932 1.881 L 92.283 1.891 L 92.634 1.797 L 92.985 1.617 L 93.336 1.385 L 93.687 1.146 L 94.038 0.947 L 94.389 0.826 L 94.740 0.805 L 95.091 0.890 L 95.442 1.063 L 95.793 1.292 L 96.144 1.532 L 96.495 1.737 L 96.846 1.867 L 97.197 1.898 L 97.548 1.822 L 97.899 1.656 L 98.250 1.431 L 98.601 1.190 L 98.952 0.980 L 99.303 0.841 L 99.654 0.801 L 100.005 0.866 L 100.356 1.025 L 100.707 1.246 L 101.058 1.488 L 101.409 1.703 L 101.760 1.849 L 102.111 1.900 L 102.462 1.844 L 102.813 1.694 L 103.164 1.476 L 103.515 1.235 L 103.866 1.016 L 104.217 0.861 L 104.568 0.800 L 104.919 0.846 L 105.270 0.989 L 105.621 1.201 L 105.972 1.442 L 106.323 1.666 L 106.674 1.828 L 107.025 1.899 L 107.376 1.863 L 107.727 1.729 L 108.078 1.521 L 108.429 1.281 L 108.780 1.054 L 109.131 0.884 L 109.482 0.804 L 109.833 0.829 L 110.184 0.955 L 110.535 1.157 L 110.886 1.396 L 111.237 1.627 L 111.588 1.804 L 111.939 1.893 L 112.290 1.878 L 112.641 1.761 L 112.992 1.564 L 113.343 1.327 L 113.694 1.094 L 114.045 0.910 L 114.396 0.811 L 114.747 0.816 L 115.098 0.924 L 115.449 1.114 L 115.800 1.350" fill="none" stroke="#7B9A6D" stroke-width="0.16" stroke-linecap="round" stroke-linejoin="round" stroke-opacity="0.90"/>
  <path d="M 11.200 1.350 L 11.551 1.114 L 11.902 0.924 L 12.253 0.816 L 12.604 0.811 L 12.955 0.910 L 13.306 1.094 L 13.657 1.327 L 14.008 1.564 L 14.359 1.761 L 14.710 1.878 L 15.061 1.893 L 15.412 1.804 L 15.763 1.627 L 16.114 1.396 L 16.465 1.157 L 16.816 0.955 L 17.167 0.829 L 17.518 0.804 L 17.869 0.884 L 18.220 1.054 L 18.571 1.281 L 18.922 1.521 L 19.273 1.729 L 19.624 1.863 L 19.975 1.899 L 20.326 1.828 L 20.677 1.666 L 21.028 1.442 L 21.379 1.201 L 21.730 0.989 L 22.081 0.846 L 22.432 0.800 L 22.783 0.861 L 23.134 1.016 L 23.485 1.235 L 23.836 1.476 L 24.187 1.694 L 24.538 1.844 L 24.889 1.900 L 25.240 1.849 L 25.591 1.703 L 25.942 1.488 L 26.293 1.246 L 26.644 1.025 L 26.995 0.866 L 27.346 0.801 L 27.697 0.841 L 28.048 0.980 L 28.399 1.190 L 28.750 1.431 L 29.101 1.656 L 29.452 1.822 L 29.803 1.898 L 30.154 1.867 L 30.505 1.737 L 30.856 1.532 L 31.207 1.292 L 31.558 1.063 L 31.909 0.890 L 32.260 0.805 L 32.611 0.826 L 32.962 0.947 L 33.313 1.146 L 33.664 1.385 L 34.015 1.617 L 34.366 1.797 L 34.717 1.891 L 35.068 1.881 L 35.419 1.768 L 35.770 1.575 L 36.121 1.338 L 36.472 1.104 L 36.823 0.917 L 37.174 0.813 L 37.526 0.813 L 37.877 0.917 L 38.228 1.104 L 38.579 1.338 L 38.930 1.575 L 39.281 1.768 L 39.632 1.881 L 39.983 1.891 L 40.334 1.797 L 40.685 1.617 L 41.036 1.385 L 41.387 1.146 L 41.738 0.947 L 42.089 0.826 L 42.440 0.805 L 42.791 0.890 L 43.142 1.063 L 43.493 1.292 L 43.844 1.532 L 44.195 1.737 L 44.546 1.867 L 44.897 1.898 L 45.248 1.822 L 45.599 1.656 L 45.950 1.431 L 46.301 1.190 L 46.652 0.980 L 47.003 0.841 L 47.354 0.801 L 47.705 0.866 L 48.056 1.025 L 48.407 1.246 L 48.758 1.488 L 49.109 1.703 L 49.460 1.849 L 49.811 1.900 L 50.162 1.844 L 50.513 1.694 L 50.864 1.476 L 51.215 1.235 L 51.566 1.016 L 51.917 0.861 L 52.268 0.800 L 52.619 0.846 L 52.970 0.989 L 53.321 1.201 L 53.672 1.442 L 54.023 1.666 L 54.374 1.828 L 54.725 1.899 L 55.076 1.863 L 55.427 1.729 L 55.778 1.521 L 56.129 1.281 L 56.480 1.054 L 56.831 0.884 L 57.182 0.804 L 57.533 0.829 L 57.884 0.955 L 58.235 1.157 L 58.586 1.396 L 58.937 1.627 L 59.288 1.804 L 59.639 1.893 L 59.990 1.878 L 60.341 1.761 L 60.692 1.564 L 61.043 1.327 L 61.394 1.094 L 61.745 0.910 L 62.096 0.811 L 62.447 0.816 L 62.798 0.924 L 63.149 1.114 L 63.500 1.350 L 63.851 1.586 L 64.202 1.776 L 64.553 1.884 L 64.904 1.889 L 65.255 1.790 L 65.606 1.606 L 65.957 1.373 L 66.308 1.136 L 66.659 0.939 L 67.010 0.822 L 67.361 0.807 L 67.712 0.896 L 68.063 1.073 L 68.414 1.304 L 68.765 1.543 L 69.116 1.745 L 69.467 1.871 L 69.818 1.896 L 70.169 1.816 L 70.520 1.646 L 70.871 1.419 L 71.222 1.179 L 71.573 0.971 L 71.924 0.837 L 72.275 0.801 L 72.626 0.872 L 72.977 1.034 L 73.328 1.258 L 73.679 1.499 L 74.030 1.711 L 74.381 1.854 L 74.732 1.900 L 75.083 1.839 L 75.434 1.684 L 75.785 1.465 L 76.136 1.224 L 76.487 1.006 L 76.838 0.856 L 77.189 0.800 L 77.540 0.851 L 77.891 0.997 L 78.242 1.212 L 78.593 1.454 L 78.944 1.675 L 79.295 1.834 L 79.646 1.899 L 79.997 1.859 L 80.348 1.720 L 80.699 1.510 L 81.050 1.269 L 81.401 1.044 L 81.752 0.878 L 82.103 0.802 L 82.454 0.833 L 82.805 0.963 L 83.156 1.168 L 83.507 1.408 L 83.858 1.637 L 84.209 1.810 L 84.560 1.895 L 84.911 1.874 L 85.262 1.753 L 85.613 1.554 L 85.964 1.315 L 86.315 1.083 L 86.666 0.903 L 87.017 0.809 L 87.368 0.819 L 87.719 0.932 L 88.070 1.125 L 88.421 1.362 L 88.772 1.596 L 89.123 1.783 L 89.474 1.887 L 89.826 1.887 L 90.177 1.783 L 90.528 1.596 L 90.879 1.362 L 91.230 1.125 L 91.581 0.932 L 91.932 0.819 L 92.283 0.809 L 92.634 0.903 L 92.985 1.083 L 93.336 1.315 L 93.687 1.554 L 94.038 1.753 L 94.389 1.874 L 94.740 1.895 L 95.091 1.810 L 95.442 1.637 L 95.793 1.408 L 96.144 1.168 L 96.495 0.963 L 96.846 0.833 L 97.197 0.802 L 97.548 0.878 L 97.899 1.044 L 98.250 1.269 L 98.601 1.510 L 98.952 1.720 L 99.303 1.859 L 99.654 1.899 L 100.005 1.834 L 100.356 1.675 L 100.707 1.454 L 101.058 1.212 L 101.409 0.997 L 101.760 0.851 L 102.111 0.800 L 102.462 0.856 L 102.813 1.006 L 103.164 1.224 L 103.515 1.465 L 103.866 1.684 L 104.217 1.839 L 104.568 1.900 L 104.919 1.854 L 105.270 1.711 L 105.621 1.499 L 105.972 1.258 L 106.323 1.034 L 106.674 0.872 L 107.025 0.801 L 107.376 0.837 L 107.727 0.971 L 108.078 1.179 L 108.429 1.419 L 108.780 1.646 L 109.131 1.816 L 109.482 1.896 L 109.833 1.871 L 110.184 1.745 L 110.535 1.543 L 110.886 1.304 L 111.237 1.073 L 111.588 0.896 L 111.939 0.807 L 112.290 0.822 L 112.641 0.939 L 112.992 1.136 L 113.343 1.373 L 113.694 1.606 L 114.045 1.790 L 114.396 1.889 L 114.747 1.884 L 115.098 1.776 L 115.449 1.586 L 115.800 1.350" fill="none" stroke="#7B9A6D" stroke-width="0.16" stroke-linecap="round" stroke-linejoin="round" stroke-opacity="0.90"/>
  <circle cx="11.2000" cy="1.3500" r="0.36" fill="#7B9A6D" fill-opacity="0.90"/>
  <circle cx="115.8000" cy="1.3500" r="0.36" fill="#7B9A6D" fill-opacity="0.90"/>
  <rect x="0" y="8.6500" width="127.0000" height="0.35" fill="#7B9A6D"/>
  <rect x="0" y="111.0982" width="127.0000" height="17.4018" fill="#181E15"/>
  <rect x="0" y="111.0982" width="127.0000" height="0.3" fill="#7B9A6D"/>
  <rect x="2.4000" y="111.0982" width="7.0000" height="0.5000" rx="0.25" fill="#a9bda0"/>
  <path d="M 11.200 126.400 L 11.551 126.636 L 11.902 126.826 L 12.253 126.934 L 12.604 126.939 L 12.955 126.840 L 13.306 126.656 L 13.657 126.423 L 14.008 126.186 L 14.359 125.989 L 14.710 125.872 L 15.061 125.857 L 15.412 125.946 L 15.763 126.123 L 16.114 126.354 L 16.465 126.593 L 16.816 126.795 L 17.167 126.921 L 17.518 126.946 L 17.869 126.866 L 18.220 126.696 L 18.571 126.469 L 18.922 126.229 L 19.273 126.021 L 19.624 125.887 L 19.975 125.851 L 20.326 125.922 L 20.677 126.084 L 21.028 126.308 L 21.379 126.549 L 21.730 126.761 L 22.081 126.904 L 22.432 126.950 L 22.783 126.889 L 23.134 126.734 L 23.485 126.515 L 23.836 126.274 L 24.187 126.056 L 24.538 125.906 L 24.889 125.850 L 25.240 125.901 L 25.591 126.047 L 25.942 126.262 L 26.293 126.504 L 26.644 126.725 L 26.995 126.884 L 27.346 126.949 L 27.697 126.909 L 28.048 126.770 L 28.399 126.560 L 28.750 126.319 L 29.101 126.094 L 29.452 125.928 L 29.803 125.852 L 30.154 125.883 L 30.505 126.013 L 30.856 126.218 L 31.207 126.458 L 31.558 126.687 L 31.909 126.860 L 32.260 126.945 L 32.611 126.924 L 32.962 126.803 L 33.313 126.604 L 33.664 126.365 L 34.015 126.133 L 34.366 125.953 L 34.717 125.859 L 35.068 125.869 L 35.419 125.982 L 35.770 126.175 L 36.121 126.412 L 36.472 126.646 L 36.823 126.833 L 37.174 126.937 L 37.526 126.937 L 37.877 126.833 L 38.228 126.646 L 38.579 126.412 L 38.930 126.175 L 39.281 125.982 L 39.632 125.869 L 39.983 125.859 L 40.334 125.953 L 40.685 126.133 L 41.036 126.365 L 41.387 126.604 L 41.738 126.803 L 42.089 126.924 L 42.440 126.945 L 42.791 126.860 L 43.142 126.687 L 43.493 126.458 L 43.844 126.218 L 44.195 126.013 L 44.546 125.883 L 44.897 125.852 L 45.248 125.928 L 45.599 126.094 L 45.950 126.319 L 46.301 126.560 L 46.652 126.770 L 47.003 126.909 L 47.354 126.949 L 47.705 126.884 L 48.056 126.725 L 48.407 126.504 L 48.758 126.262 L 49.109 126.047 L 49.460 125.901 L 49.811 125.850 L 50.162 125.906 L 50.513 126.056 L 50.864 126.274 L 51.215 126.515 L 51.566 126.734 L 51.917 126.889 L 52.268 126.950 L 52.619 126.904 L 52.970 126.761 L 53.321 126.549 L 53.672 126.308 L 54.023 126.084 L 54.374 125.922 L 54.725 125.851 L 55.076 125.887 L 55.427 126.021 L 55.778 126.229 L 56.129 126.469 L 56.480 126.696 L 56.831 126.866 L 57.182 126.946 L 57.533 126.921 L 57.884 126.795 L 58.235 126.593 L 58.586 126.354 L 58.937 126.123 L 59.288 125.946 L 59.639 125.857 L 59.990 125.872 L 60.341 125.989 L 60.692 126.186 L 61.043 126.423 L 61.394 126.656 L 61.745 126.840 L 62.096 126.939 L 62.447 126.934 L 62.798 126.826 L 63.149 126.636 L 63.500 126.400 L 63.851 126.164 L 64.202 125.974 L 64.553 125.866 L 64.904 125.861 L 65.255 125.960 L 65.606 126.144 L 65.957 126.377 L 66.308 126.614 L 66.659 126.811 L 67.010 126.928 L 67.361 126.943 L 67.712 126.854 L 68.063 126.677 L 68.414 126.446 L 68.765 126.207 L 69.116 126.005 L 69.467 125.879 L 69.818 125.854 L 70.169 125.934 L 70.520 126.104 L 70.871 126.331 L 71.222 126.571 L 71.573 126.779 L 71.924 126.913 L 72.275 126.949 L 72.626 126.878 L 72.977 126.716 L 73.328 126.492 L 73.679 126.251 L 74.030 126.039 L 74.381 125.896 L 74.732 125.850 L 75.083 125.911 L 75.434 126.066 L 75.785 126.285 L 76.136 126.526 L 76.487 126.744 L 76.838 126.894 L 77.189 126.950 L 77.540 126.899 L 77.891 126.753 L 78.242 126.538 L 78.593 126.296 L 78.944 126.075 L 79.295 125.916 L 79.646 125.851 L 79.997 125.891 L 80.348 126.030 L 80.699 126.240 L 81.050 126.481 L 81.401 126.706 L 81.752 126.872 L 82.103 126.948 L 82.454 126.917 L 82.805 126.787 L 83.156 126.582 L 83.507 126.342 L 83.858 126.113 L 84.209 125.940 L 84.560 125.855 L 84.911 125.876 L 85.262 125.997 L 85.613 126.196 L 85.964 126.435 L 86.315 126.667 L 86.666 126.847 L 87.017 126.941 L 87.368 126.931 L 87.719 126.818 L 88.070 126.625 L 88.421 126.388 L 88.772 126.154 L 89.123 125.967 L 89.474 125.863 L 89.826 125.863 L 90.177 125.967 L 90.528 126.154 L 90.879 126.388 L 91.230 126.625 L 91.581 126.818 L 91.932 126.931 L 92.283 126.941 L 92.634 126.847 L 92.985 126.667 L 93.336 126.435 L 93.687 126.196 L 94.038 125.997 L 94.389 125.876 L 94.740 125.855 L 95.091 125.940 L 95.442 126.113 L 95.793 126.342 L 96.144 126.582 L 96.495 126.787 L 96.846 126.917 L 97.197 126.948 L 97.548 126.872 L 97.899 126.706 L 98.250 126.481 L 98.601 126.240 L 98.952 126.030 L 99.303 125.891 L 99.654 125.851 L 100.005 125.916 L 100.356 126.075 L 100.707 126.296 L 101.058 126.538 L 101.409 126.753 L 101.760 126.899 L 102.111 126.950 L 102.462 126.894 L 102.813 126.744 L 103.164 126.526 L 103.515 126.285 L 103.866 126.066 L 104.217 125.911 L 104.568 125.850 L 104.919 125.896 L 105.270 126.039 L 105.621 126.251 L 105.972 126.492 L 106.323 126.716 L 106.674 126.878 L 107.025 126.949 L 107.376 126.913 L 107.727 126.779 L 108.078 126.571 L 108.429 126.331 L 108.780 126.104 L 109.131 125.934 L 109.482 125.854 L 109.833 125.879 L 110.184 126.005 L 110.535 126.207 L 110.886 126.446 L 111.237 126.677 L 111.588 126.854 L 111.939 126.943 L 112.290 126.928 L 112.641 126.811 L 112.992 126.614 L 113.343 126.377 L 113.694 126.144 L 114.045 125.960 L 114.396 125.861 L 114.747 125.866 L 115.098 125.974 L 115.449 126.164 L 115.800 126.400" fill="none" stroke="#7B9A6D" stroke-width="0.16" stroke-linecap="round" stroke-linejoin="round" stroke-opacity="0.90"/>
  <path d="M 11.200 126.400 L 11.551 126.164 L 11.902 125.974 L 12.253 125.866 L 12.604 125.861 L 12.955 125.960 L 13.306 126.144 L 13.657 126.377 L 14.008 126.614 L 14.359 126.811 L 14.710 126.928 L 15.061 126.943 L 15.412 126.854 L 15.763 126.677 L 16.114 126.446 L 16.465 126.207 L 16.816 126.005 L 17.167 125.879 L 17.518 125.854 L 17.869 125.934 L 18.220 126.104 L 18.571 126.331 L 18.922 126.571 L 19.273 126.779 L 19.624 126.913 L 19.975 126.949 L 20.326 126.878 L 20.677 126.716 L 21.028 126.492 L 21.379 126.251 L 21.730 126.039 L 22.081 125.896 L 22.432 125.850 L 22.783 125.911 L 23.134 126.066 L 23.485 126.285 L 23.836 126.526 L 24.187 126.744 L 24.538 126.894 L 24.889 126.950 L 25.240 126.899 L 25.591 126.753 L 25.942 126.538 L 26.293 126.296 L 26.644 126.075 L 26.995 125.916 L 27.346 125.851 L 27.697 125.891 L 28.048 126.030 L 28.399 126.240 L 28.750 126.481 L 29.101 126.706 L 29.452 126.872 L 29.803 126.948 L 30.154 126.917 L 30.505 126.787 L 30.856 126.582 L 31.207 126.342 L 31.558 126.113 L 31.909 125.940 L 32.260 125.855 L 32.611 125.876 L 32.962 125.997 L 33.313 126.196 L 33.664 126.435 L 34.015 126.667 L 34.366 126.847 L 34.717 126.941 L 35.068 126.931 L 35.419 126.818 L 35.770 126.625 L 36.121 126.388 L 36.472 126.154 L 36.823 125.967 L 37.174 125.863 L 37.526 125.863 L 37.877 125.967 L 38.228 126.154 L 38.579 126.388 L 38.930 126.625 L 39.281 126.818 L 39.632 126.931 L 39.983 126.941 L 40.334 126.847 L 40.685 126.667 L 41.036 126.435 L 41.387 126.196 L 41.738 125.997 L 42.089 125.876 L 42.440 125.855 L 42.791 125.940 L 43.142 126.113 L 43.493 126.342 L 43.844 126.582 L 44.195 126.787 L 44.546 126.917 L 44.897 126.948 L 45.248 126.872 L 45.599 126.706 L 45.950 126.481 L 46.301 126.240 L 46.652 126.030 L 47.003 125.891 L 47.354 125.851 L 47.705 125.916 L 48.056 126.075 L 48.407 126.296 L 48.758 126.538 L 49.109 126.753 L 49.460 126.899 L 49.811 126.950 L 50.162 126.894 L 50.513 126.744 L 50.864 126.526 L 51.215 126.285 L 51.566 126.066 L 51.917 125.911 L 52.268 125.850 L 52.619 125.896 L 52.970 126.039 L 53.321 126.251 L 53.672 126.492 L 54.023 126.716 L 54.374 126.878 L 54.725 126.949 L 55.076 126.913 L 55.427 126.779 L 55.778 126.571 L 56.129 126.331 L 56.480 126.104 L 56.831 125.934 L 57.182 125.854 L 57.533 125.879 L 57.884 126.005 L 58.235 126.207 L 58.586 126.446 L 58.937 126.677 L 59.288 126.854 L 59.639 126.943 L 59.990 126.928 L 60.341 126.811 L 60.692 126.614 L 61.043 126.377 L 61.394 126.144 L 61.745 125.960 L 62.096 125.861 L 62.447 125.866 L 62.798 125.974 L 63.149 126.164 L 63.500 126.400 L 63.851 126.636 L 64.202 126.826 L 64.553 126.934 L 64.904 126.939 L 65.255 126.840 L 65.606 126.656 L 65.957 126.423 L 66.308 126.186 L 66.659 125.989 L 67.010 125.872 L 67.361 125.857 L 67.712 125.946 L 68.063 126.123 L 68.414 126.354 L 68.765 126.593 L 69.116 126.795 L 69.467 126.921 L 69.818 126.946 L 70.169 126.866 L 70.520 126.696 L 70.871 126.469 L 71.222 126.229 L 71.573 126.021 L 71.924 125.887 L 72.275 125.851 L 72.626 125.922 L 72.977 126.084 L 73.328 126.308 L 73.679 126.549 L 74.030 126.761 L 74.381 126.904 L 74.732 126.950 L 75.083 126.889 L 75.434 126.734 L 75.785 126.515 L 76.136 126.274 L 76.487 126.056 L 76.838 125.906 L 77.189 125.850 L 77.540 125.901 L 77.891 126.047 L 78.242 126.262 L 78.593 126.504 L 78.944 126.725 L 79.295 126.884 L 79.646 126.949 L 79.997 126.909 L 80.348 126.770 L 80.699 126.560 L 81.050 126.319 L 81.401 126.094 L 81.752 125.928 L 82.103 125.852 L 82.454 125.883 L 82.805 126.013 L 83.156 126.218 L 83.507 126.458 L 83.858 126.687 L 84.209 126.860 L 84.560 126.945 L 84.911 126.924 L 85.262 126.803 L 85.613 126.604 L 85.964 126.365 L 86.315 126.133 L 86.666 125.953 L 87.017 125.859 L 87.368 125.869 L 87.719 125.982 L 88.070 126.175 L 88.421 126.412 L 88.772 126.646 L 89.123 126.833 L 89.474 126.937 L 89.826 126.937 L 90.177 126.833 L 90.528 126.646 L 90.879 126.412 L 91.230 126.175 L 91.581 125.982 L 91.932 125.869 L 92.283 125.859 L 92.634 125.953 L 92.985 126.133 L 93.336 126.365 L 93.687 126.604 L 94.038 126.803 L 94.389 126.924 L 94.740 126.945 L 95.091 126.860 L 95.442 126.687 L 95.793 126.458 L 96.144 126.218 L 96.495 126.013 L 96.846 125.883 L 97.197 125.852 L 97.548 125.928 L 97.899 126.094 L 98.250 126.319 L 98.601 126.560 L 98.952 126.770 L 99.303 126.909 L 99.654 126.949 L 100.005 126.884 L 100.356 126.725 L 100.707 126.504 L 101.058 126.262 L 101.409 126.047 L 101.760 125.901 L 102.111 125.850 L 102.462 125.906 L 102.813 126.056 L 103.164 126.274 L 103.515 126.515 L 103.866 126.734 L 104.217 126.889 L 104.568 126.950 L 104.919 126.904 L 105.270 126.761 L 105.621 126.549 L 105.972 126.308 L 106.323 126.084 L 106.674 125.922 L 107.025 125.851 L 107.376 125.887 L 107.727 126.021 L 108.078 126.229 L 108.429 126.469 L 108.780 126.696 L 109.131 126.866 L 109.482 126.946 L 109.833 126.921 L 110.184 126.795 L 110.535 126.593 L 110.886 126.354 L 111.237 126.123 L 111.588 125.946 L 111.939 125.857 L 112.290 125.872 L 112.641 125.989 L 112.992 126.186 L 113.343 126.423 L 113.694 126.656 L 114.045 126.840 L 114.396 126.939 L 114.747 126.934 L 115.098 126.826 L 115.449 126.636 L 115.800 126.400" fill="none" stroke="#7B9A6D" stroke-width="0.16" stroke-linecap="round" stroke-linejoin="round" stroke-opacity="0.90"/>
  <circle cx="11.2000" cy="126.4000" r="0.36" fill="#7B9A6D" fill-opacity="0.90"/>
  <circle cx="115.8000" cy="126.4000" r="0.36" fill="#7B9A6D" fill-opacity="0.90"/>
  <path d="M 1.250 10.400 L 1.441 10.751 L 1.604 11.103 L 1.712 11.454 L 1.750 11.805 L 1.712 12.157 L 1.604 12.508 L 1.441 12.860 L 1.250 13.211 L 1.059 13.562 L 0.896 13.914 L 0.788 14.265 L 0.750 14.616 L 0.788 14.968 L 0.896 15.319 L 1.059 15.670 L 1.250 16.022 L 1.441 16.373 L 1.604 16.725 L 1.712 17.076 L 1.750 17.427 L 1.712 17.779 L 1.604 18.130 L 1.441 18.481 L 1.250 18.833 L 1.059 19.184 L 0.896 19.535 L 0.788 19.887 L 0.750 20.238 L 0.788 20.589 L 0.896 20.941 L 1.059 21.292 L 1.250 21.644 L 1.441 21.995 L 1.604 22.346 L 1.712 22.698 L 1.750 23.049 L 1.712 23.400 L 1.604 23.752 L 1.441 24.103 L 1.250 24.454 L 1.059 24.806 L 0.896 25.157 L 0.788 25.509 L 0.750 25.860 L 0.788 26.211 L 0.896 26.563 L 1.059 26.914 L 1.250 27.265 L 1.441 27.617 L 1.604 27.968 L 1.712 28.319 L 1.750 28.671 L 1.712 29.022 L 1.604 29.374 L 1.441 29.725 L 1.250 30.076 L 1.059 30.428 L 0.896 30.779 L 0.788 31.130 L 0.750 31.482 L 0.788 31.833 L 0.896 32.184 L 1.059 32.536 L 1.250 32.887 L 1.441 33.239 L 1.604 33.590 L 1.712 33.941 L 1.750 34.293 L 1.712 34.644 L 1.604 34.995 L 1.441 35.347 L 1.250 35.698 L 1.059 36.049 L 0.896 36.401 L 0.788 36.752 L 0.750 37.103 L 0.788 37.455 L 0.896 37.806 L 1.059 38.158 L 1.250 38.509 L 1.441 38.860 L 1.604 39.212 L 1.712 39.563 L 1.750 39.914 L 1.712 40.266 L 1.604 40.617 L 1.441 40.968 L 1.250 41.320 L 1.059 41.671 L 0.896 42.023 L 0.788 42.374 L 0.750 42.725 L 0.788 43.077 L 0.896 43.428 L 1.059 43.779 L 1.250 44.131 L 1.441 44.482 L 1.604 44.833 L 1.712 45.185 L 1.750 45.536 L 1.712 45.888 L 1.604 46.239 L 1.441 46.590 L 1.250 46.942 L 1.059 47.293 L 0.896 47.644 L 0.788 47.996 L 0.750 48.347 L 0.788 48.698 L 0.896 49.050 L 1.059 49.401 L 1.250 49.753" fill="none" stroke="#7B9A6D" stroke-width="0.16" stroke-linecap="round" stroke-linejoin="round" stroke-opacity="0.55"/>
  <path d="M 1.250 10.400 L 1.059 10.751 L 0.896 11.103 L 0.788 11.454 L 0.750 11.805 L 0.788 12.157 L 0.896 12.508 L 1.059 12.860 L 1.250 13.211 L 1.441 13.562 L 1.604 13.914 L 1.712 14.265 L 1.750 14.616 L 1.712 14.968 L 1.604 15.319 L 1.441 15.670 L 1.250 16.022 L 1.059 16.373 L 0.896 16.725 L 0.788 17.076 L 0.750 17.427 L 0.788 17.779 L 0.896 18.130 L 1.059 18.481 L 1.250 18.833 L 1.441 19.184 L 1.604 19.535 L 1.712 19.887 L 1.750 20.238 L 1.712 20.589 L 1.604 20.941 L 1.441 21.292 L 1.250 21.644 L 1.059 21.995 L 0.896 22.346 L 0.788 22.698 L 0.750 23.049 L 0.788 23.400 L 0.896 23.752 L 1.059 24.103 L 1.250 24.454 L 1.441 24.806 L 1.604 25.157 L 1.712 25.509 L 1.750 25.860 L 1.712 26.211 L 1.604 26.563 L 1.441 26.914 L 1.250 27.265 L 1.059 27.617 L 0.896 27.968 L 0.788 28.319 L 0.750 28.671 L 0.788 29.022 L 0.896 29.374 L 1.059 29.725 L 1.250 30.076 L 1.441 30.428 L 1.604 30.779 L 1.712 31.130 L 1.750 31.482 L 1.712 31.833 L 1.604 32.184 L 1.441 32.536 L 1.250 32.887 L 1.059 33.239 L 0.896 33.590 L 0.788 33.941 L 0.750 34.293 L 0.788 34.644 L 0.896 34.995 L 1.059 35.347 L 1.250 35.698 L 1.441 36.049 L 1.604 36.401 L 1.712 36.752 L 1.750 37.103 L 1.712 37.455 L 1.604 37.806 L 1.441 38.158 L 1.250 38.509 L 1.059 38.860 L 0.896 39.212 L 0.788 39.563 L 0.750 39.914 L 0.788 40.266 L 0.896 40.617 L 1.059 40.968 L 1.250 41.320 L 1.441 41.671 L 1.604 42.023 L 1.712 42.374 L 1.750 42.725 L 1.712 43.077 L 1.604 43.428 L 1.441 43.779 L 1.250 44.131 L 1.059 44.482 L 0.896 44.833 L 0.788 45.185 L 0.750 45.536 L 0.788 45.888 L 0.896 46.239 L 1.059 46.590 L 1.250 46.942 L 1.441 47.293 L 1.604 47.644 L 1.712 47.996 L 1.750 48.347 L 1.712 48.698 L 1.604 49.050 L 1.441 49.401 L 1.250 49.753" fill="none" stroke="#7B9A6D" stroke-width="0.16" stroke-linecap="round" stroke-linejoin="round" stroke-opacity="0.55"/>
  <circle cx="1.2500" cy="10.4000" r="0.36" fill="#7B9A6D" fill-opacity="0.55"/>
  <circle cx="1.2500" cy="49.7525" r="0.36" fill="#7B9A6D" fill-opacity="0.55"/>
  <path d="M 1.250 70.346 L 1.441 70.697 L 1.604 71.048 L 1.712 71.400 L 1.750 71.751 L 1.712 72.102 L 1.604 72.454 L 1.441 72.805 L 1.250 73.157 L 1.059 73.508 L 0.896 73.859 L 0.788 74.211 L 0.750 74.562 L 0.788 74.913 L 0.896 75.265 L 1.059 75.616 L 1.250 75.967 L 1.441 76.319 L 1.604 76.670 L 1.712 77.022 L 1.750 77.373 L 1.712 77.724 L 1.604 78.076 L 1.441 78.427 L 1.250 78.778 L 1.059 79.130 L 0.896 79.481 L 0.788 79.832 L 0.750 80.184 L 0.788 80.535 L 0.896 80.887 L 1.059 81.238 L 1.250 81.589 L 1.441 81.941 L 1.604 82.292 L 1.712 82.643 L 1.750 82.995 L 1.712 83.346 L 1.604 83.697 L 1.441 84.049 L 1.250 84.400 L 1.059 84.752 L 0.896 85.103 L 0.788 85.454 L 0.750 85.806 L 0.788 86.157 L 0.896 86.508 L 1.059 86.860 L 1.250 87.211 L 1.441 87.562 L 1.604 87.914 L 1.712 88.265 L 1.750 88.616 L 1.712 88.968 L 1.604 89.319 L 1.441 89.671 L 1.250 90.022 L 1.059 90.373 L 0.896 90.725 L 0.788 91.076 L 0.750 91.427 L 0.788 91.779 L 0.896 92.130 L 1.059 92.481 L 1.250 92.833 L 1.441 93.184 L 1.604 93.536 L 1.712 93.887 L 1.750 94.238 L 1.712 94.590 L 1.604 94.941 L 1.441 95.292 L 1.250 95.644 L 1.059 95.995 L 0.896 96.346 L 0.788 96.698 L 0.750 97.049 L 0.788 97.401 L 0.896 97.752 L 1.059 98.103 L 1.250 98.455 L 1.441 98.806 L 1.604 99.157 L 1.712 99.509 L 1.750 99.860 L 1.712 100.211 L 1.604 100.563 L 1.441 100.914 L 1.250 101.266 L 1.059 101.617 L 0.896 101.968 L 0.788 102.320 L 0.750 102.671 L 0.788 103.022 L 0.896 103.374 L 1.059 103.725 L 1.250 104.076 L 1.441 104.428 L 1.604 104.779 L 1.712 105.130 L 1.750 105.482 L 1.712 105.833 L 1.604 106.185 L 1.441 106.536 L 1.250 106.887 L 1.059 107.239 L 0.896 107.590 L 0.788 107.941 L 0.750 108.293 L 0.788 108.644 L 0.896 108.995 L 1.059 109.347 L 1.250 109.698" fill="none" stroke="#7B9A6D" stroke-width="0.16" stroke-linecap="round" stroke-linejoin="round" stroke-opacity="0.55"/>
  <path d="M 1.250 70.346 L 1.059 70.697 L 0.896 71.048 L 0.788 71.400 L 0.750 71.751 L 0.788 72.102 L 0.896 72.454 L 1.059 72.805 L 1.250 73.157 L 1.441 73.508 L 1.604 73.859 L 1.712 74.211 L 1.750 74.562 L 1.712 74.913 L 1.604 75.265 L 1.441 75.616 L 1.250 75.967 L 1.059 76.319 L 0.896 76.670 L 0.788 77.022 L 0.750 77.373 L 0.788 77.724 L 0.896 78.076 L 1.059 78.427 L 1.250 78.778 L 1.441 79.130 L 1.604 79.481 L 1.712 79.832 L 1.750 80.184 L 1.712 80.535 L 1.604 80.887 L 1.441 81.238 L 1.250 81.589 L 1.059 81.941 L 0.896 82.292 L 0.788 82.643 L 0.750 82.995 L 0.788 83.346 L 0.896 83.697 L 1.059 84.049 L 1.250 84.400 L 1.441 84.752 L 1.604 85.103 L 1.712 85.454 L 1.750 85.806 L 1.712 86.157 L 1.604 86.508 L 1.441 86.860 L 1.250 87.211 L 1.059 87.562 L 0.896 87.914 L 0.788 88.265 L 0.750 88.616 L 0.788 88.968 L 0.896 89.319 L 1.059 89.671 L 1.250 90.022 L 1.441 90.373 L 1.604 90.725 L 1.712 91.076 L 1.750 91.427 L 1.712 91.779 L 1.604 92.130 L 1.441 92.481 L 1.250 92.833 L 1.059 93.184 L 0.896 93.536 L 0.788 93.887 L 0.750 94.238 L 0.788 94.590 L 0.896 94.941 L 1.059 95.292 L 1.250 95.644 L 1.441 95.995 L 1.604 96.346 L 1.712 96.698 L 1.750 97.049 L 1.712 97.401 L 1.604 97.752 L 1.441 98.103 L 1.250 98.455 L 1.059 98.806 L 0.896 99.157 L 0.788 99.509 L 0.750 99.860 L 0.788 100.211 L 0.896 100.563 L 1.059 100.914 L 1.250 101.266 L 1.441 101.617 L 1.604 101.968 L 1.712 102.320 L 1.750 102.671 L 1.712 103.022 L 1.604 103.374 L 1.441 103.725 L 1.250 104.076 L 1.059 104.428 L 0.896 104.779 L 0.788 105.130 L 0.750 105.482 L 0.788 105.833 L 0.896 106.185 L 1.059 106.536 L 1.250 106.887 L 1.441 107.239 L 1.604 107.590 L 1.712 107.941 L 1.750 108.293 L 1.712 108.644 L 1.604 108.995 L 1.441 109.347 L 1.250 109.698" fill="none" stroke="#7B9A6D" stroke-width="0.16" stroke-linecap="round" stroke-linejoin="round" stroke-opacity="0.55"/>
  <circle cx="1.2500" cy="70.3457" r="0.36" fill="#7B9A6D" fill-opacity="0.55"/>
  <circle cx="1.2500" cy="109.6982" r="0.36" fill="#7B9A6D" fill-opacity="0.55"/>
  <path d="M 125.750 10.400 L 125.928 10.752 L 126.082 11.104 L 126.193 11.455 L 126.247 11.807 L 126.235 12.159 L 126.160 12.511 L 126.031 12.862 L 125.866 13.214 L 125.685 13.566 L 125.513 13.918 L 125.372 14.269 L 125.280 14.621 L 125.250 14.973 L 125.285 15.325 L 125.381 15.676 L 125.525 16.028 L 125.698 16.380 L 125.878 16.732 L 126.042 17.083 L 126.167 17.435 L 126.238 17.787 L 126.245 18.139 L 126.187 18.491 L 126.072 18.842 L 125.916 19.194 L 125.737 19.546 L 125.560 19.898 L 125.408 20.249 L 125.301 20.601 L 125.252 20.953 L 125.268 21.305 L 125.348 21.656 L 125.480 22.008 L 125.647 22.360 L 125.828 22.712 L 125.998 23.063 L 126.136 23.415 L 126.224 23.767 L 126.250 24.119 L 126.210 24.470 L 126.110 24.822 L 125.964 25.174 L 125.789 25.526 L 125.609 25.877 L 125.448 26.229 L 125.326 26.581 L 125.259 26.933 L 125.257 27.285 L 125.319 27.636 L 125.438 27.988 L 125.597 28.340 L 125.776 28.692 L 125.952 29.043 L 126.101 29.395 L 126.205 29.747 L 126.249 30.099 L 126.228 30.450 L 126.144 30.802 L 126.009 31.154 L 125.840 31.506 L 125.660 31.857 L 125.491 32.209 L 125.356 32.561 L 125.272 32.913 L 125.251 33.264 L 125.295 33.616 L 125.399 33.968 L 125.548 34.320 L 125.724 34.672 L 125.903 35.023 L 126.062 35.375 L 126.181 35.727 L 126.243 36.079 L 126.241 36.430 L 126.174 36.782 L 126.052 37.134 L 125.891 37.486 L 125.711 37.837 L 125.536 38.189 L 125.390 38.541 L 125.290 38.893 L 125.250 39.244 L 125.276 39.596 L 125.364 39.948 L 125.502 40.300 L 125.672 40.651 L 125.853 41.003 L 126.020 41.355 L 126.152 41.707 L 126.232 42.058 L 126.248 42.410 L 126.199 42.762 L 126.092 43.114 L 125.940 43.466 L 125.763 43.817 L 125.584 44.169 L 125.428 44.521 L 125.313 44.873 L 125.255 45.224 L 125.262 45.576 L 125.333 45.928 L 125.458 46.280 L 125.622 46.631 L 125.802 46.983 L 125.975 47.335 L 126.119 47.687 L 126.215 48.038 L 126.250 48.390 L 126.220 48.742 L 126.128 49.094 L 125.987 49.445 L 125.815 49.797 L 125.634 50.149 L 125.469 50.501 L 125.340 50.853 L 125.265 51.204 L 125.253 51.556 L 125.307 51.908 L 125.418 52.260 L 125.572 52.611 L 125.750 52.963" fill="none" stroke="#7B9A6D" stroke-width="0.16" stroke-linecap="round" stroke-linejoin="round" stroke-opacity="0.55"/>
  <path d="M 125.750 10.400 L 125.572 10.752 L 125.418 11.104 L 125.307 11.455 L 125.253 11.807 L 125.265 12.159 L 125.340 12.511 L 125.469 12.862 L 125.634 13.214 L 125.815 13.566 L 125.987 13.918 L 126.128 14.269 L 126.220 14.621 L 126.250 14.973 L 126.215 15.325 L 126.119 15.676 L 125.975 16.028 L 125.802 16.380 L 125.622 16.732 L 125.458 17.083 L 125.333 17.435 L 125.262 17.787 L 125.255 18.139 L 125.313 18.491 L 125.428 18.842 L 125.584 19.194 L 125.763 19.546 L 125.940 19.898 L 126.092 20.249 L 126.199 20.601 L 126.248 20.953 L 126.232 21.305 L 126.152 21.656 L 126.020 22.008 L 125.853 22.360 L 125.672 22.712 L 125.502 23.063 L 125.364 23.415 L 125.276 23.767 L 125.250 24.119 L 125.290 24.470 L 125.390 24.822 L 125.536 25.174 L 125.711 25.526 L 125.891 25.877 L 126.052 26.229 L 126.174 26.581 L 126.241 26.933 L 126.243 27.285 L 126.181 27.636 L 126.062 27.988 L 125.903 28.340 L 125.724 28.692 L 125.548 29.043 L 125.399 29.395 L 125.295 29.747 L 125.251 30.099 L 125.272 30.450 L 125.356 30.802 L 125.491 31.154 L 125.660 31.506 L 125.840 31.857 L 126.009 32.209 L 126.144 32.561 L 126.228 32.913 L 126.249 33.264 L 126.205 33.616 L 126.101 33.968 L 125.952 34.320 L 125.776 34.672 L 125.597 35.023 L 125.438 35.375 L 125.319 35.727 L 125.257 36.079 L 125.259 36.430 L 125.326 36.782 L 125.448 37.134 L 125.609 37.486 L 125.789 37.837 L 125.964 38.189 L 126.110 38.541 L 126.210 38.893 L 126.250 39.244 L 126.224 39.596 L 126.136 39.948 L 125.998 40.300 L 125.828 40.651 L 125.647 41.003 L 125.480 41.355 L 125.348 41.707 L 125.268 42.058 L 125.252 42.410 L 125.301 42.762 L 125.408 43.114 L 125.560 43.466 L 125.737 43.817 L 125.916 44.169 L 126.072 44.521 L 126.187 44.873 L 126.245 45.224 L 126.238 45.576 L 126.167 45.928 L 126.042 46.280 L 125.878 46.631 L 125.698 46.983 L 125.525 47.335 L 125.381 47.687 L 125.285 48.038 L 125.250 48.390 L 125.280 48.742 L 125.372 49.094 L 125.513 49.445 L 125.685 49.797 L 125.866 50.149 L 126.031 50.501 L 126.160 50.853 L 126.235 51.204 L 126.247 51.556 L 126.193 51.908 L 126.082 52.260 L 125.928 52.611 L 125.750 52.963" fill="none" stroke="#7B9A6D" stroke-width="0.16" stroke-linecap="round" stroke-linejoin="round" stroke-opacity="0.55"/>
  <circle cx="125.7500" cy="10.4000" r="0.36" fill="#7B9A6D" fill-opacity="0.55"/>
  <circle cx="125.7500" cy="52.9631" r="0.36" fill="#7B9A6D" fill-opacity="0.55"/>
  <path d="M 125.750 67.135 L 125.928 67.487 L 126.082 67.839 L 126.193 68.190 L 126.247 68.542 L 126.235 68.894 L 126.160 69.246 L 126.031 69.597 L 125.866 69.949 L 125.685 70.301 L 125.513 70.653 L 125.372 71.004 L 125.280 71.356 L 125.250 71.708 L 125.285 72.060 L 125.381 72.412 L 125.525 72.763 L 125.698 73.115 L 125.878 73.467 L 126.042 73.819 L 126.167 74.170 L 126.238 74.522 L 126.245 74.874 L 126.187 75.226 L 126.072 75.577 L 125.916 75.929 L 125.737 76.281 L 125.560 76.633 L 125.408 76.984 L 125.301 77.336 L 125.252 77.688 L 125.268 78.040 L 125.348 78.391 L 125.480 78.743 L 125.647 79.095 L 125.828 79.447 L 125.998 79.799 L 126.136 80.150 L 126.224 80.502 L 126.250 80.854 L 126.210 81.206 L 126.110 81.557 L 125.964 81.909 L 125.789 82.261 L 125.609 82.613 L 125.448 82.964 L 125.326 83.316 L 125.259 83.668 L 125.257 84.020 L 125.319 84.371 L 125.438 84.723 L 125.597 85.075 L 125.776 85.427 L 125.952 85.778 L 126.101 86.130 L 126.205 86.482 L 126.249 86.834 L 126.228 87.185 L 126.144 87.537 L 126.009 87.889 L 125.840 88.241 L 125.660 88.593 L 125.491 88.944 L 125.356 89.296 L 125.272 89.648 L 125.251 90.000 L 125.295 90.351 L 125.399 90.703 L 125.548 91.055 L 125.724 91.407 L 125.903 91.758 L 126.062 92.110 L 126.181 92.462 L 126.243 92.814 L 126.241 93.165 L 126.174 93.517 L 126.052 93.869 L 125.891 94.221 L 125.711 94.572 L 125.536 94.924 L 125.390 95.276 L 125.290 95.628 L 125.250 95.980 L 125.276 96.331 L 125.364 96.683 L 125.502 97.035 L 125.672 97.387 L 125.853 97.738 L 126.020 98.090 L 126.152 98.442 L 126.232 98.794 L 126.248 99.145 L 126.199 99.497 L 126.092 99.849 L 125.940 100.201 L 125.763 100.552 L 125.584 100.904 L 125.428 101.256 L 125.313 101.608 L 125.255 101.959 L 125.262 102.311 L 125.333 102.663 L 125.458 103.015 L 125.622 103.366 L 125.802 103.718 L 125.975 104.070 L 126.119 104.422 L 126.215 104.774 L 126.250 105.125 L 126.220 105.477 L 126.128 105.829 L 125.987 106.181 L 125.815 106.532 L 125.634 106.884 L 125.469 107.236 L 125.340 107.588 L 125.265 107.939 L 125.253 108.291 L 125.307 108.643 L 125.418 108.995 L 125.572 109.346 L 125.750 109.698" fill="none" stroke="#7B9A6D" stroke-width="0.16" stroke-linecap="round" stroke-linejoin="round" stroke-opacity="0.55"/>
  <path d="M 125.750 67.135 L 125.572 67.487 L 125.418 67.839 L 125.307 68.190 L 125.253 68.542 L 125.265 68.894 L 125.340 69.246 L 125.469 69.597 L 125.634 69.949 L 125.815 70.301 L 125.987 70.653 L 126.128 71.004 L 126.220 71.356 L 126.250 71.708 L 126.215 72.060 L 126.119 72.412 L 125.975 72.763 L 125.802 73.115 L 125.622 73.467 L 125.458 73.819 L 125.333 74.170 L 125.262 74.522 L 125.255 74.874 L 125.313 75.226 L 125.428 75.577 L 125.584 75.929 L 125.763 76.281 L 125.940 76.633 L 126.092 76.984 L 126.199 77.336 L 126.248 77.688 L 126.232 78.040 L 126.152 78.391 L 126.020 78.743 L 125.853 79.095 L 125.672 79.447 L 125.502 79.799 L 125.364 80.150 L 125.276 80.502 L 125.250 80.854 L 125.290 81.206 L 125.390 81.557 L 125.536 81.909 L 125.711 82.261 L 125.891 82.613 L 126.052 82.964 L 126.174 83.316 L 126.241 83.668 L 126.243 84.020 L 126.181 84.371 L 126.062 84.723 L 125.903 85.075 L 125.724 85.427 L 125.548 85.778 L 125.399 86.130 L 125.295 86.482 L 125.251 86.834 L 125.272 87.185 L 125.356 87.537 L 125.491 87.889 L 125.660 88.241 L 125.840 88.593 L 126.009 88.944 L 126.144 89.296 L 126.228 89.648 L 126.249 90.000 L 126.205 90.351 L 126.101 90.703 L 125.952 91.055 L 125.776 91.407 L 125.597 91.758 L 125.438 92.110 L 125.319 92.462 L 125.257 92.814 L 125.259 93.165 L 125.326 93.517 L 125.448 93.869 L 125.609 94.221 L 125.789 94.572 L 125.964 94.924 L 126.110 95.276 L 126.210 95.628 L 126.250 95.980 L 126.224 96.331 L 126.136 96.683 L 125.998 97.035 L 125.828 97.387 L 125.647 97.738 L 125.480 98.090 L 125.348 98.442 L 125.268 98.794 L 125.252 99.145 L 125.301 99.497 L 125.408 99.849 L 125.560 100.201 L 125.737 100.552 L 125.916 100.904 L 126.072 101.256 L 126.187 101.608 L 126.245 101.959 L 126.238 102.311 L 126.167 102.663 L 126.042 103.015 L 125.878 103.366 L 125.698 103.718 L 125.525 104.070 L 125.381 104.422 L 125.285 104.774 L 125.250 105.125 L 125.280 105.477 L 125.372 105.829 L 125.513 106.181 L 125.685 106.532 L 125.866 106.884 L 126.031 107.236 L 126.160 107.588 L 126.235 107.939 L 126.247 108.291 L 126.193 108.643 L 126.082 108.995 L 125.928 109.346 L 125.750 109.698" fill="none" stroke="#7B9A6D" stroke-width="0.16" stroke-linecap="round" stroke-linejoin="round" stroke-opacity="0.55"/>
  <circle cx="125.7500" cy="67.1351" r="0.36" fill="#7B9A6D" fill-opacity="0.55"/>
  <circle cx="125.7500" cy="109.6982" r="0.36" fill="#7B9A6D" fill-opacity="0.55"/>
  <rect x="2.4000" y="10.8000" width="122.2000" height="61.6334" rx="1.60" fill="#E7E1EA" stroke="#7B9A6D" stroke-width="0.22"/>
  <rect x="2.4000" y="10.8000" width="7.0000" height="0.5000" rx="0.25" fill="#181E15"/>
  <path d="M 124.150 12.250 L 124.088 11.969 L 123.952 11.723 L 123.754 11.532 L 123.515 11.408 L 123.255 11.359 L 122.999 11.386 L 122.767 11.484 L 122.578 11.641 L 122.445 11.840 L 122.377 12.064 L 122.377 12.293 L 122.441 12.505 L 122.560 12.686 L 122.722 12.820 L 122.910 12.900 L 123.108 12.921 L 123.297 12.885 L 123.463 12.798 L 123.592 12.671 L 123.676 12.518 L 123.710 12.352 L 123.696 12.190 L 123.637 12.044 L 123.541 11.926 L 123.421 11.845 L 123.287 11.804 L 123.154 11.804 L 123.031 11.841 L 122.930 11.909 L 122.857 12.000 L 122.817 12.103 L 122.809 12.207 L 122.831 12.303 L 122.878 12.383 L 122.943 12.442 L 123.017 12.476 L 123.092 12.484 L 123.160 12.471 L 123.216 12.439 L 123.256 12.396" fill="none" stroke="#7B9A6D" stroke-width="0.16" stroke-linecap="round" stroke-linejoin="round"/>
  <circle cx="123.2558" cy="12.3956" r="0.22" fill="#7B9A6D"/>
  <path d="M 2.850 70.983 L 2.912 71.264 L 3.048 71.510 L 3.246 71.702 L 3.485 71.826 L 3.745 71.875 L 4.001 71.847 L 4.233 71.750 L 4.422 71.593 L 4.555 71.393 L 4.623 71.169 L 4.623 70.941 L 4.559 70.728 L 4.440 70.548 L 4.278 70.413 L 4.090 70.334 L 3.892 70.313 L 3.703 70.349 L 3.537 70.435 L 3.408 70.562 L 3.324 70.716 L 3.290 70.881 L 3.304 71.044 L 3.363 71.190 L 3.459 71.307 L 3.579 71.389 L 3.713 71.430 L 3.846 71.430 L 3.969 71.393 L 4.070 71.324 L 4.143 71.233 L 4.183 71.131 L 4.191 71.027 L 4.169 70.930 L 4.122 70.850 L 4.057 70.792 L 3.983 70.758 L 3.908 70.749 L 3.840 70.763 L 3.784 70.794 L 3.744 70.838" fill="none" stroke="#7B9A6D" stroke-width="0.16" stroke-linecap="round" stroke-linejoin="round"/>
  <circle cx="3.7442" cy="70.8378" r="0.22" fill="#7B9A6D"/>
  <path d="M 124.150 70.983 L 124.088 71.264 L 123.952 71.510 L 123.754 71.702 L 123.515 71.826 L 123.255 71.875 L 122.999 71.847 L 122.767 71.750 L 122.578 71.593 L 122.445 71.393 L 122.377 71.169 L 122.377 70.941 L 122.441 70.728 L 122.560 70.548 L 122.722 70.413 L 122.910 70.334 L 123.108 70.313 L 123.297 70.349 L 123.463 70.435 L 123.592 70.562 L 123.676 70.716 L 123.710 70.881 L 123.696 71.044 L 123.637 71.190 L 123.541 71.307 L 123.421 71.389 L 123.287 71.430 L 123.154 71.430 L 123.031 71.393 L 122.930 71.324 L 122.857 71.233 L 122.817 71.131 L 122.809 71.027 L 122.831 70.930 L 122.878 70.850 L 122.943 70.792 L 123.017 70.758 L 123.092 70.749 L 123.160 70.763 L 123.216 70.794 L 123.256 70.838" fill="none" stroke="#7B9A6D" stroke-width="0.16" stroke-linecap="round" stroke-linejoin="round"/>
  <circle cx="123.2558" cy="70.8378" r="0.22" fill="#7B9A6D"/>
  <rect x="2.4000" y="75.5438" width="122.2000" height="32.4440" rx="1.60" fill="#E7E1EA" stroke="#7B9A6D" stroke-width="0.22"/>
  <rect x="2.4000" y="75.5438" width="7.0000" height="0.5000" rx="0.25" fill="#181E15"/>
  <path d="M 124.150 76.994 L 124.088 76.713 L 123.952 76.467 L 123.754 76.275 L 123.515 76.151 L 123.255 76.103 L 122.999 76.130 L 122.767 76.228 L 122.578 76.384 L 122.445 76.584 L 122.377 76.808 L 122.377 77.036 L 122.441 77.249 L 122.560 77.430 L 122.722 77.564 L 122.910 77.644 L 123.108 77.664 L 123.297 77.628 L 123.463 77.542 L 123.592 77.415 L 123.676 77.262 L 123.710 77.096 L 123.696 76.934 L 123.637 76.788 L 123.541 76.670 L 123.421 76.588 L 123.287 76.547 L 123.154 76.547 L 123.031 76.585 L 122.930 76.653 L 122.857 76.744 L 122.817 76.846 L 122.809 76.951 L 122.831 77.047 L 122.878 77.127 L 122.943 77.186 L 123.017 77.219 L 123.092 77.228 L 123.160 77.215 L 123.216 77.183 L 123.256 77.139" fill="none" stroke="#7B9A6D" stroke-width="0.16" stroke-linecap="round" stroke-linejoin="round"/>
  <circle cx="123.2558" cy="77.1394" r="0.22" fill="#7B9A6D"/>
  <path d="M 2.850 106.538 L 2.912 106.818 L 3.048 107.064 L 3.246 107.256 L 3.485 107.380 L 3.745 107.429 L 4.001 107.402 L 4.233 107.304 L 4.422 107.147 L 4.555 106.947 L 4.623 106.723 L 4.623 106.495 L 4.559 106.282 L 4.440 106.102 L 4.278 105.968 L 4.090 105.888 L 3.892 105.867 L 3.703 105.903 L 3.537 105.990 L 3.408 106.116 L 3.324 106.270 L 3.290 106.435 L 3.304 106.598 L 3.363 106.744 L 3.459 106.862 L 3.579 106.943 L 3.713 106.984 L 3.846 106.984 L 3.969 106.947 L 4.070 106.878 L 4.143 106.788 L 4.183 106.685 L 4.191 106.581 L 4.169 106.485 L 4.122 106.405 L 4.057 106.346 L 3.983 106.312 L 3.908 106.303 L 3.840 106.317 L 3.784 106.349 L 3.744 106.392" fill="none" stroke="#7B9A6D" stroke-width="0.16" stroke-linecap="round" stroke-linejoin="round"/>
  <circle cx="3.7442" cy="106.3922" r="0.22" fill="#7B9A6D"/>
  <path d="M 124.150 106.538 L 124.088 106.818 L 123.952 107.064 L 123.754 107.256 L 123.515 107.380 L 123.255 107.429 L 122.999 107.402 L 122.767 107.304 L 122.578 107.147 L 122.445 106.947 L 122.377 106.723 L 122.377 106.495 L 122.441 106.282 L 122.560 106.102 L 122.722 105.968 L 122.910 105.888 L 123.108 105.867 L 123.297 105.903 L 123.463 105.990 L 123.592 106.116 L 123.676 106.270 L 123.710 106.435 L 123.696 106.598 L 123.637 106.744 L 123.541 106.862 L 123.421 106.943 L 123.287 106.984 L 123.154 106.984 L 123.031 106.947 L 122.930 106.878 L 122.857 106.788 L 122.817 106.685 L 122.809 106.581 L 122.831 106.485 L 122.878 106.405 L 122.943 106.346 L 123.017 106.312 L 123.092 106.303 L 123.160 106.317 L 123.216 106.349 L 123.256 106.392" fill="none" stroke="#7B9A6D" stroke-width="0.16" stroke-linecap="round" stroke-linejoin="round"/>
  <circle cx="123.2558" cy="106.3922" r="0.22" fill="#7B9A6D"/>
  <rect x="4.2500" y="31.0173" width="56.2000" height="12.0118" rx="1.1" fill="#E4EAE1" fill-opacity="0.55" stroke="#7B9A6D" stroke-width="0.18" stroke-opacity="0.75"/>
  <rect x="66.5500" y="31.0173" width="56.2000" height="12.0118" rx="1.1" fill="#E4EAE1" fill-opacity="0.55" stroke="#7B9A6D" stroke-width="0.18" stroke-opacity="0.75"/>
  <rect x="3.7100" y="43.8394" width="57.2800" height="13.0918" rx="1.1" fill="#E4EAE1" fill-opacity="0.55" stroke="#7B9A6D" stroke-width="0.18" stroke-opacity="0.75"/>
  <rect x="66.0100" y="43.8394" width="57.2800" height="13.0918" rx="1.1" fill="#E4EAE1" fill-opacity="0.55" stroke="#7B9A6D" stroke-width="0.18" stroke-opacity="0.75"/>
  <circle cx="9.1000" cy="21.1000" r="5.5000" fill="#1B151E" stroke="#7B9A6D" stroke-width="0.2"/>
  <circle cx="24.6000" cy="21.1000" r="5.5000" fill="#1B151E" stroke="#7B9A6D" stroke-width="0.2"/>
  <circle cx="40.1000" cy="21.1000" r="5.5000" fill="#1B151E" stroke="#7B9A6D" stroke-width="0.2"/>
  <circle cx="55.6000" cy="21.1000" r="5.5000" fill="#1B151E" stroke="#7B9A6D" stroke-width="0.2"/>
  <circle cx="71.4000" cy="21.1000" r="5.5000" fill="#1B151E" stroke="#7B9A6D" stroke-width="0.2"/>
  <circle cx="86.9000" cy="21.1000" r="5.5000" fill="#1B151E" stroke="#7B9A6D" stroke-width="0.2"/>
  <circle cx="102.4000" cy="21.1000" r="5.5000" fill="#1B151E" stroke="#7B9A6D" stroke-width="0.2"/>
  <circle cx="117.9000" cy="21.1000" r="5.5000" fill="#1B151E" stroke="#7B9A6D" stroke-width="0.2"/>
  <circle cx="9.1000" cy="35.8673" r="3.7500" fill="#1B151E" stroke="#7B9A6D" stroke-width="0.2"/>
  <circle cx="24.6000" cy="35.8673" r="3.7500" fill="#1B151E" stroke="#7B9A6D" stroke-width="0.2"/>
  <circle cx="40.1000" cy="35.8673" r="3.7500" fill="#1B151E" stroke="#7B9A6D" stroke-width="0.2"/>
  <circle cx="55.6000" cy="35.8673" r="3.7500" fill="#1B151E" stroke="#7B9A6D" stroke-width="0.2"/>
  <circle cx="71.4000" cy="35.8673" r="3.7500" fill="#1B151E" stroke="#7B9A6D" stroke-width="0.2"/>
  <circle cx="86.9000" cy="35.8673" r="3.7500" fill="#1B151E" stroke="#7B9A6D" stroke-width="0.2"/>
  <circle cx="102.4000" cy="35.8673" r="3.7500" fill="#1B151E" stroke="#7B9A6D" stroke-width="0.2"/>
  <circle cx="117.9000" cy="35.8673" r="3.7500" fill="#1B151E" stroke="#7B9A6D" stroke-width="0.2"/>
  <circle cx="9.1000" cy="51.5413" r="4.2900" fill="#1B151E" stroke="#7B9A6D" stroke-width="0.2"/>
  <circle cx="24.6000" cy="51.5413" r="4.2900" fill="#1B151E" stroke="#7B9A6D" stroke-width="0.2"/>
  <circle cx="40.1000" cy="51.5413" r="4.2900" fill="#1B151E" stroke="#7B9A6D" stroke-width="0.2"/>
  <circle cx="55.6000" cy="51.5413" r="4.2900" fill="#1B151E" stroke="#7B9A6D" stroke-width="0.2"/>
  <circle cx="71.4000" cy="51.5413" r="4.2900" fill="#1B151E" stroke="#7B9A6D" stroke-width="0.2"/>
  <circle cx="86.9000" cy="51.5413" r="4.2900" fill="#1B151E" stroke="#7B9A6D" stroke-width="0.2"/>
  <circle cx="102.4000" cy="51.5413" r="4.2900" fill="#1B151E" stroke="#7B9A6D" stroke-width="0.2"/>
  <circle cx="117.9000" cy="51.5413" r="4.2900" fill="#1B151E" stroke="#7B9A6D" stroke-width="0.2"/>
  <circle cx="9.1000" cy="65.4434" r="4.2900" fill="#1B151E" stroke="#7B9A6D" stroke-width="0.2"/>
  <circle cx="24.6000" cy="65.4434" r="4.2900" fill="#1B151E" stroke="#7B9A6D" stroke-width="0.2"/>
  <circle cx="40.1000" cy="65.4434" r="4.2900" fill="#1B151E" stroke="#7B9A6D" stroke-width="0.2"/>
  <circle cx="55.6000" cy="65.4434" r="4.2900" fill="#1B151E" stroke="#7B9A6D" stroke-width="0.2"/>
  <circle cx="71.4000" cy="65.4434" r="4.2900" fill="#1B151E" stroke="#7B9A6D" stroke-width="0.2"/>
  <circle cx="86.9000" cy="65.4434" r="4.2900" fill="#1B151E" stroke="#7B9A6D" stroke-width="0.2"/>
  <circle cx="102.4000" cy="65.4434" r="4.2900" fill="#1B151E" stroke="#7B9A6D" stroke-width="0.2"/>
  <circle cx="117.9000" cy="65.4434" r="4.2900" fill="#1B151E" stroke="#7B9A6D" stroke-width="0.2"/>
  <circle cx="13.5410" cy="87.0956" r="4.2900" fill="#1B151E" stroke="#7B9A6D" stroke-width="0.2"/>
  <circle cx="27.8150" cy="87.0956" r="4.2900" fill="#1B151E" stroke="#7B9A6D" stroke-width="0.2"/>
  <circle cx="42.0890" cy="87.0956" r="4.2900" fill="#1B151E" stroke="#7B9A6D" stroke-width="0.2"/>
  <circle cx="56.3630" cy="87.0956" r="4.2900" fill="#1B151E" stroke="#7B9A6D" stroke-width="0.2"/>
  <circle cx="70.6370" cy="87.0956" r="4.2900" fill="#1B151E" stroke="#7B9A6D" stroke-width="0.2"/>
  <circle cx="84.9110" cy="87.0956" r="4.2900" fill="#1B151E" stroke="#7B9A6D" stroke-width="0.2"/>
  <circle cx="99.1850" cy="87.0956" r="4.2900" fill="#1B151E" stroke="#7B9A6D" stroke-width="0.2"/>
  <circle cx="113.4590" cy="87.0956" r="4.2900" fill="#1B151E" stroke="#7B9A6D" stroke-width="0.2"/>
  <circle cx="13.5410" cy="100.9978" r="4.2900" fill="#1B151E" stroke="#7B9A6D" stroke-width="0.2"/>
  <circle cx="27.8150" cy="100.9978" r="4.2900" fill="#1B151E" stroke="#7B9A6D" stroke-width="0.2"/>
  <circle cx="42.0890" cy="100.9978" r="4.2900" fill="#1B151E" stroke="#7B9A6D" stroke-width="0.2"/>
  <circle cx="56.3630" cy="100.9978" r="4.2900" fill="#1B151E" stroke="#7B9A6D" stroke-width="0.2"/>
  <circle cx="70.6370" cy="100.9978" r="4.2900" fill="#1B151E" stroke="#7B9A6D" stroke-width="0.2"/>
  <circle cx="84.9110" cy="100.9978" r="4.2900" fill="#1B151E" stroke="#7B9A6D" stroke-width="0.2"/>
  <circle cx="99.1850" cy="100.9978" r="4.2900" fill="#1B151E" stroke="#7B9A6D" stroke-width="0.2"/>
  <circle cx="113.4590" cy="100.9978" r="4.2900" fill="#1B151E" stroke="#7B9A6D" stroke-width="0.2"/>
  <circle cx="6.4900" cy="118.6000" r="4.2900" fill="#1B151E" stroke="#7B9A6D" stroke-width="0.2"/>
  <circle cx="17.8920" cy="118.6000" r="4.2900" fill="#1B151E" stroke="#7B9A6D" stroke-width="0.2"/>
  <circle cx="29.2940" cy="118.6000" r="4.2900" fill="#1B151E" stroke="#7B9A6D" stroke-width="0.2"/>
  <circle cx="40.6960" cy="118.6000" r="4.2900" fill="#1B151E" stroke="#7B9A6D" stroke-width="0.2"/>
  <circle cx="52.0980" cy="118.6000" r="4.2900" fill="#1B151E" stroke="#7B9A6D" stroke-width="0.2"/>
  <circle cx="63.5000" cy="118.6000" r="4.2900" fill="#1B151E" stroke="#7B9A6D" stroke-width="0.2"/>
  <circle cx="74.9020" cy="118.6000" r="4.2900" fill="#1B151E" stroke="#7B9A6D" stroke-width="0.2"/>
  <circle cx="86.3040" cy="118.6000" r="4.2900" fill="#1B151E" stroke="#7B9A6D" stroke-width="0.2"/>
  <circle cx="97.7060" cy="118.6000" r="4.2900" fill="#1B151E" stroke="#7B9A6D" stroke-width="0.2"/>
  <circle cx="109.1080" cy="118.6000" r="4.2900" fill="#1B151E" stroke="#7B9A6D" stroke-width="0.2"/>
  <circle cx="120.5100" cy="118.6000" r="4.2900" fill="#1B151E" stroke="#7B9A6D" stroke-width="0.2"/>
</g>
<g inkscape:label="components" inkscape:groupmode="layer" id="components" style="display:none">
  <circle inkscape:label="lvl1" cx="9.1000" cy="21.1000" r="1" fill="#ff0000"/>
  <circle inkscape:label="lvl2" cx="24.6000" cy="21.1000" r="1" fill="#ff0000"/>
  <circle inkscape:label="lvl3" cx="40.1000" cy="21.1000" r="1" fill="#ff0000"/>
  <circle inkscape:label="lvl4" cx="55.6000" cy="21.1000" r="1" fill="#ff0000"/>
  <circle inkscape:label="lvl5" cx="71.4000" cy="21.1000" r="1" fill="#ff0000"/>
  <circle inkscape:label="lvl6" cx="86.9000" cy="21.1000" r="1" fill="#ff0000"/>
  <circle inkscape:label="lvl7" cx="102.4000" cy="21.1000" r="1" fill="#ff0000"/>
  <circle inkscape:label="lvl8" cx="117.9000" cy="21.1000" r="1" fill="#ff0000"/>
  <circle inkscape:label="mute1" cx="9.1000" cy="35.8673" r="1" fill="#ff0000"/>
  <circle inkscape:label="mute2" cx="24.6000" cy="35.8673" r="1" fill="#ff0000"/>
  <circle inkscape:label="mute3" cx="40.1000" cy="35.8673" r="1" fill="#ff0000"/>
  <circle inkscape:label="mute4" cx="55.6000" cy="35.8673" r="1" fill="#ff0000"/>
  <circle inkscape:label="mute5" cx="71.4000" cy="35.8673" r="1" fill="#ff0000"/>
  <circle inkscape:label="mute6" cx="86.9000" cy="35.8673" r="1" fill="#ff0000"/>
  <circle inkscape:label="mute7" cx="102.4000" cy="35.8673" r="1" fill="#ff0000"/>
  <circle inkscape:label="mute8" cx="117.9000" cy="35.8673" r="1" fill="#ff0000"/>
  <circle inkscape:label="cv1" cx="9.1000" cy="51.5413" r="1" fill="#00ff00"/>
  <circle inkscape:label="cv2" cx="24.6000" cy="51.5413" r="1" fill="#00ff00"/>
  <circle inkscape:label="cv3" cx="40.1000" cy="51.5413" r="1" fill="#00ff00"/>
  <circle inkscape:label="cv4" cx="55.6000" cy="51.5413" r="1" fill="#00ff00"/>
  <circle inkscape:label="cv5" cx="71.4000" cy="51.5413" r="1" fill="#00ff00"/>
  <circle inkscape:label="cv6" cx="86.9000" cy="51.5413" r="1" fill="#00ff00"/>
  <circle inkscape:label="cv7" cx="102.4000" cy="51.5413" r="1" fill="#00ff00"/>
  <circle inkscape:label="cv8" cx="117.9000" cy="51.5413" r="1" fill="#00ff00"/>
  <circle inkscape:label="in1" cx="9.1000" cy="65.4434" r="1" fill="#00ff00"/>
  <circle inkscape:label="in2" cx="24.6000" cy="65.4434" r="1" fill="#00ff00"/>
  <circle inkscape:label="in3" cx="40.1000" cy="65.4434" r="1" fill="#00ff00"/>
  <circle inkscape:label="in4" cx="55.6000" cy="65.4434" r="1" fill="#00ff00"/>
  <circle inkscape:label="in5" cx="71.4000" cy="65.4434" r="1" fill="#00ff00"/>
  <circle inkscape:label="in6" cx="86.9000" cy="65.4434" r="1" fill="#00ff00"/>
  <circle inkscape:label="in7" cx="102.4000" cy="65.4434" r="1" fill="#00ff00"/>
  <circle inkscape:label="in8" cx="117.9000" cy="65.4434" r="1" fill="#00ff00"/>
  <circle inkscape:label="mult_a_in" cx="13.5410" cy="87.0956" r="1" fill="#00ff00"/>
  <circle inkscape:label="mult_a_out1" cx="27.8150" cy="87.0956" r="1" fill="#00ff00"/>
  <circle inkscape:label="mult_a_out2" cx="42.0890" cy="87.0956" r="1" fill="#00ff00"/>
  <circle inkscape:label="mult_a_out3" cx="56.3630" cy="87.0956" r="1" fill="#00ff00"/>
  <circle inkscape:label="mult_a_out4" cx="70.6370" cy="87.0956" r="1" fill="#00ff00"/>
  <circle inkscape:label="mult_a_out5" cx="84.9110" cy="87.0956" r="1" fill="#00ff00"/>
  <circle inkscape:label="mult_a_out6" cx="99.1850" cy="87.0956" r="1" fill="#00ff00"/>
  <circle inkscape:label="mult_a_out7" cx="113.4590" cy="87.0956" r="1" fill="#00ff00"/>
  <circle inkscape:label="mult_b_in" cx="13.5410" cy="100.9978" r="1" fill="#00ff00"/>
  <circle inkscape:label="mult_b_out1" cx="27.8150" cy="100.9978" r="1" fill="#00ff00"/>
  <circle inkscape:label="mult_b_out2" cx="42.0890" cy="100.9978" r="1" fill="#00ff00"/>
  <circle inkscape:label="mult_b_out3" cx="56.3630" cy="100.9978" r="1" fill="#00ff00"/>
  <circle inkscape:label="mult_b_out4" cx="70.6370" cy="100.9978" r="1" fill="#00ff00"/>
  <circle inkscape:label="mult_b_out5" cx="84.9110" cy="100.9978" r="1" fill="#00ff00"/>
  <circle inkscape:label="mult_b_out6" cx="99.1850" cy="100.9978" r="1" fill="#00ff00"/>
  <circle inkscape:label="mult_b_out7" cx="113.4590" cy="100.9978" r="1" fill="#00ff00"/>
  <circle inkscape:label="out1" cx="6.4900" cy="118.6000" r="1" fill="#00ff00"/>
  <circle inkscape:label="out2" cx="17.8920" cy="118.6000" r="1" fill="#00ff00"/>
  <circle inkscape:label="out3" cx="29.2940" cy="118.6000" r="1" fill="#00ff00"/>
  <circle inkscape:label="out4" cx="40.6960" cy="118.6000" r="1" fill="#00ff00"/>
  <circle inkscape:label="out5" cx="52.0980" cy="118.6000" r="1" fill="#00ff00"/>
  <circle inkscape:label="out6" cx="63.5000" cy="118.6000" r="1" fill="#00ff00"/>
  <circle inkscape:label="out7" cx="74.9020" cy="118.6000" r="1" fill="#00ff00"/>
  <circle inkscape:label="out8" cx="86.3040" cy="118.6000" r="1" fill="#00ff00"/>
  <circle inkscape:label="mix_a_out" cx="97.7060" cy="118.6000" r="1" fill="#00ff00"/>
  <circle inkscape:label="mix_b_out" cx="109.1080" cy="118.6000" r="1" fill="#00ff00"/>
  <circle inkscape:label="main_out" cx="120.5100" cy="118.6000" r="1" fill="#00ff00"/>
</g>
</svg>
