<?xml version="1.0" encoding="UTF-8"?>
<svg xmlns="http://www.w3.org/2000/svg" xmlns:inkscape="http://www.inkscape.org/namespaces/inkscape" width="81.2800mm" height="128.5000mm" viewBox="0 0 81.2800 128.5000" version="1.1">
<g inkscape:label="panel" inkscape:groupmode="layer" id="panel">
  <rect x="0" y="0" width="81.2800" height="128.5000" fill="#E4EAE1"/>
  <rect x="0" y="0" width="81.2800" height="9.0000" fill="#181E15"/>
  <path d="M 11.200 1.350 L 11.550 1.589 L 11.901 1.780 L 12.251 1.886 L 12.602 1.886 L 12.952 1.780 L 13.303 1.589 L 13.653 1.350 L 14.004 1.111 L 14.354 0.920 L 14.705 0.814 L 15.055 0.814 L 15.406 0.920 L 15.756 1.111 L 16.107 1.350 L 16.457 1.589 L 16.808 1.780 L 17.158 1.886 L 17.509 1.886 L 17.859 1.780 L 18.210 1.589 L 18.560 1.350 L 18.910 1.111 L 19.261 0.920 L 19.611 0.814 L 19.962 0.814 L 20.312 0.920 L 20.663 1.111 L 21.013 1.350 L 21.364 1.589 L 21.714 1.780 L 22.065 1.886 L 22.415 1.886 L 22.766 1.780 L 23.116 1.589 L 23.467 1.350 L 23.817 1.111 L 24.168 0.920 L 24.518 0.814 L 24.869 0.814 L 25.219 0.920 L 25.570 1.111 L 25.920 1.350 L 26.270 1.589 L 26.621 1.780 L 26.971 1.886 L 27.322 1.886 L 27.672 1.780 L 28.023 1.589 L 28.373 1.350 L 28.724 1.111 L 29.074 0.920 L 29.425 0.814 L 29.775 0.814 L 30.126 0.920 L 30.476 1.111 L 30.827 1.350 L 31.177 1.589 L 31.528 1.780 L 31.878 1.886 L 32.229 1.886 L 32.579 1.780 L 32.930 1.589 L 33.280 1.350 L 33.630 1.111 L 33.981 0.920 L 34.331 0.814 L 34.682 0.814 L 35.032 0.920 L 35.383 1.111 L 35.733 1.350 L 36.084 1.589 L 36.434 1.780 L 36.785 1.886 L 37.135 1.886 L 37.486 1.780 L 37.836 1.589 L 38.187 1.350 L 38.537 1.111 L 38.888 0.920 L 39.238 0.814 L 39.589 0.814 L 39.939 0.920 L 40.290 1.111 L 40.640 1.350 L 40.990 1.589 L 41.341 1.780 L 41.691 1.886 L 42.042 1.886 L 42.392 1.780 L 42.743 1.589 L 43.093 1.350 L 43.444 1.111 L 43.794 0.920 L 44.145 0.814 L 44.495 0.814 L 44.846 0.920 L 45.196 1.111 L 45.547 1.350 L 45.897 1.589 L 46.248 1.780 L 46.598 1.886 L 46.949 1.886 L 47.299 1.780 L 47.650 1.589 L 48.000 1.350 L 48.350 1.111 L 48.701 0.920 L 49.051 0.814 L 49.402 0.814 L 49.752 0.920 L 50.103 1.111 L 50.453 1.350 L 50.804 1.589 L 51.154 1.780 L 51.505 1.886 L 51.855 1.886 L 52.206 1.780 L 52.556 1.589 L 52.907 1.350 L 53.257 1.111 L 53.608 0.920 L 53.958 0.814 L 54.309 0.814 L 54.659 0.920 L 55.010 1.111 L 55.360 1.350 L 55.710 1.589 L 56.061 1.780 L 56.411 1.886 L 56.762 1.886 L 57.112 1.780 L 57.463 1.589 L 57.813 1.350 L 58.164 1.111 L 58.514 0.920 L 58.865 0.814 L 59.215 0.814 L 59.566 0.920 L 59.916 1.111 L 60.267 1.350 L 60.617 1.589 L 60.968 1.780 L 61.318 1.886 L 61.669 1.886 L 62.019 1.780 L 62.370 1.589 L 62.720 1.350 L 63.070 1.111 L 63.421 0.920 L 63.771 0.814 L 64.122 0.814 L 64.472 0.920 L 64.823 1.111 L 65.173 1.350 L 65.524 1.589 L 65.874 1.780 L 66.225 1.886 L 66.575 1.886 L 66.926 1.780 L 67.276 1.589 L 67.627 1.350 L 67.977 1.111 L 68.328 0.920 L 68.678 0.814 L 69.029 0.814 L 69.379 0.920 L 69.730 1.111 L 70.080 1.350" fill="none" stroke="#7B9A6D" stroke-width="0.16" stroke-linecap="round" stroke-linejoin="round" stroke-opacity="0.90"/>
  <path d="M 11.200 1.350 L 11.550 1.111 L 11.901 0.920 L 12.251 0.814 L 12.602 0.814 L 12.952 0.920 L 13.303 1.111 L 13.653 1.350 L 14.004 1.589 L 14.354 1.780 L 14.705 1.886 L 15.055 1.886 L 15.406 1.780 L 15.756 1.589 L 16.107 1.350 L 16.457 1.111 L 16.808 0.920 L 17.158 0.814 L 17.509 0.814 L 17.859 0.920 L 18.210 1.111 L 18.560 1.350 L 18.910 1.589 L 19.261 1.780 L 19.611 1.886 L 19.962 1.886 L 20.312 1.780 L 20.663 1.589 L 21.013 1.350 L 21.364 1.111 L 21.714 0.920 L 22.065 0.814 L 22.415 0.814 L 22.766 0.920 L 23.116 1.111 L 23.467 1.350 L 23.817 1.589 L 24.168 1.780 L 24.518 1.886 L 24.869 1.886 L 25.219 1.780 L 25.570 1.589 L 25.920 1.350 L 26.270 1.111 L 26.621 0.920 L 26.971 0.814 L 27.322 0.814 L 27.672 0.920 L 28.023 1.111 L 28.373 1.350 L 28.724 1.589 L 29.074 1.780 L 29.425 1.886 L 29.775 1.886 L 30.126 1.780 L 30.476 1.589 L 30.827 1.350 L 31.177 1.111 L 31.528 0.920 L 31.878 0.814 L 32.229 0.814 L 32.579 0.920 L 32.930 1.111 L 33.280 1.350 L 33.630 1.589 L 33.981 1.780 L 34.331 1.886 L 34.682 1.886 L 35.032 1.780 L 35.383 1.589 L 35.733 1.350 L 36.084 1.111 L 36.434 0.920 L 36.785 0.814 L 37.135 0.814 L 37.486 0.920 L 37.836 1.111 L 38.187 1.350 L 38.537 1.589 L 38.888 1.780 L 39.238 1.886 L 39.589 1.886 L 39.939 1.780 L 40.290 1.589 L 40.640 1.350 L 40.990 1.111 L 41.341 0.920 L 41.691 0.814 L 42.042 0.814 L 42.392 0.920 L 42.743 1.111 L 43.093 1.350 L 43.444 1.589 L 43.794 1.780 L 44.145 1.886 L 44.495 1.886 L 44.846 1.780 L 45.196 1.589 L 45.547 1.350 L 45.897 1.111 L 46.248 0.920 L 46.598 0.814 L 46.949 0.814 L 47.299 0.920 L 47.650 1.111 L 48.000 1.350 L 48.350 1.589 L 48.701 1.780 L 49.051 1.886 L 49.402 1.886 L 49.752 1.780 L 50.103 1.589 L 50.453 1.350 L 50.804 1.111 L 51.154 0.920 L 51.505 0.814 L 51.855 0.814 L 52.206 0.920 L 52.556 1.111 L 52.907 1.350 L 53.257 1.589 L 53.608 1.780 L 53.958 1.886 L 54.309 1.886 L 54.659 1.780 L 55.010 1.589 L 55.360 1.350 L 55.710 1.111 L 56.061 0.920 L 56.411 0.814 L 56.762 0.814 L 57.112 0.920 L 57.463 1.111 L 57.813 1.350 L 58.164 1.589 L 58.514 1.780 L 58.865 1.886 L 59.215 1.886 L 59.566 1.780 L 59.916 1.589 L 60.267 1.350 L 60.617 1.111 L 60.968 0.920 L 61.318 0.814 L 61.669 0.814 L 62.019 0.920 L 62.370 1.111 L 62.720 1.350 L 63.070 1.589 L 63.421 1.780 L 63.771 1.886 L 64.122 1.886 L 64.472 1.780 L 64.823 1.589 L 65.173 1.350 L 65.524 1.111 L 65.874 0.920 L 66.225 0.814 L 66.575 0.814 L 66.926 0.920 L 67.276 1.111 L 67.627 1.350 L 67.977 1.589 L 68.328 1.780 L 68.678 1.886 L 69.029 1.886 L 69.379 1.780 L 69.730 1.589 L 70.080 1.350" fill="none" stroke="#7B9A6D" stroke-width="0.16" stroke-linecap="round" stroke-linejoin="round" stroke-opacity="0.90"/>
  <circle cx="11.2000" cy="1.3500" r="0.36" fill="#7B9A6D" fill-opacity="0.90"/>
  <circle cx="70.0800" cy="1.3500" r="0.36" fill="#7B9A6D" fill-opacity="0.90"/>
  <rect x="0" y="8.6500" width="81.2800" height="0.35" fill="#7B9A6D"/>
  <rect x="0" y="110.5982" width="81.2800" height="17.9018" fill="#181E15"/>
  <rect x="0" y="110.5982" width="81.2800" height="0.3" fill="#7B9A6D"/>
  <rect x="3.0000" y="110.5982" width="7.0000" height="0.5000" rx="0.25" fill="#a9bda0"/>
  <path d="M 11.200 126.400 L 11.550 126.639 L 11.901 126.830 L 12.251 126.936 L 12.602 126.936 L 12.952 126.830 L 13.303 126.639 L 13.653 126.400 L 14.004 126.161 L 14.354 125.970 L 14.705 125.864 L 15.055 125.864 L 15.406 125.970 L 15.756 126.161 L 16.107 126.400 L 16.457 126.639 L 16.808 126.830 L 17.158 126.936 L 17.509 126.936 L 17.859 126.830 L 18.210 126.639 L 18.560 126.400 L 18.910 126.161 L 19.261 125.970 L 19.611 125.864 L 19.962 125.864 L 20.312 125.970 L 20.663 126.161 L 21.013 126.400 L 21.364 126.639 L 21.714 126.830 L 22.065 126.936 L 22.415 126.936 L 22.766 126.830 L 23.116 126.639 L 23.467 126.400 L 23.817 126.161 L 24.168 125.970 L 24.518 125.864 L 24.869 125.864 L 25.219 125.970 L 25.570 126.161 L 25.920 126.400 L 26.270 126.639 L 26.621 126.830 L 26.971 126.936 L 27.322 126.936 L 27.672 126.830 L 28.023 126.639 L 28.373 126.400 L 28.724 126.161 L 29.074 125.970 L 29.425 125.864 L 29.775 125.864 L 30.126 125.970 L 30.476 126.161 L 30.827 126.400 L 31.177 126.639 L 31.528 126.830 L 31.878 126.936 L 32.229 126.936 L 32.579 126.830 L 32.930 126.639 L 33.280 126.400 L 33.630 126.161 L 33.981 125.970 L 34.331 125.864 L 34.682 125.864 L 35.032 125.970 L 35.383 126.161 L 35.733 126.400 L 36.084 126.639 L 36.434 126.830 L 36.785 126.936 L 37.135 126.936 L 37.486 126.830 L 37.836 126.639 L 38.187 126.400 L 38.537 126.161 L 38.888 125.970 L 39.238 125.864 L 39.589 125.864 L 39.939 125.970 L 40.290 126.161 L 40.640 126.400 L 40.990 126.639 L 41.341 126.830 L 41.691 126.936 L 42.042 126.936 L 42.392 126.830 L 42.743 126.639 L 43.093 126.400 L 43.444 126.161 L 43.794 125.970 L 44.145 125.864 L 44.495 125.864 L 44.846 125.970 L 45.196 126.161 L 45.547 126.400 L 45.897 126.639 L 46.248 126.830 L 46.598 126.936 L 46.949 126.936 L 47.299 126.830 L 47.650 126.639 L 48.000 126.400 L 48.350 126.161 L 48.701 125.970 L 49.051 125.864 L 49.402 125.864 L 49.752 125.970 L 50.103 126.161 L 50.453 126.400 L 50.804 126.639 L 51.154 126.830 L 51.505 126.936 L 51.855 126.936 L 52.206 126.830 L 52.556 126.639 L 52.907 126.400 L 53.257 126.161 L 53.608 125.970 L 53.958 125.864 L 54.309 125.864 L 54.659 125.970 L 55.010 126.161 L 55.360 126.400 L 55.710 126.639 L 56.061 126.830 L 56.411 126.936 L 56.762 126.936 L 57.112 126.830 L 57.463 126.639 L 57.813 126.400 L 58.164 126.161 L 58.514 125.970 L 58.865 125.864 L 59.215 125.864 L 59.566 125.970 L 59.916 126.161 L 60.267 126.400 L 60.617 126.639 L 60.968 126.830 L 61.318 126.936 L 61.669 126.936 L 62.019 126.830 L 62.370 126.639 L 62.720 126.400 L 63.070 126.161 L 63.421 125.970 L 63.771 125.864 L 64.122 125.864 L 64.472 125.970 L 64.823 126.161 L 65.173 126.400 L 65.524 126.639 L 65.874 126.830 L 66.225 126.936 L 66.575 126.936 L 66.926 126.830 L 67.276 126.639 L 67.627 126.400 L 67.977 126.161 L 68.328 125.970 L 68.678 125.864 L 69.029 125.864 L 69.379 125.970 L 69.730 126.161 L 70.080 126.400" fill="none" stroke="#7B9A6D" stroke-width="0.16" stroke-linecap="round" stroke-linejoin="round" stroke-opacity="0.90"/>
  <path d="M 11.200 126.400 L 11.550 126.161 L 11.901 125.970 L 12.251 125.864 L 12.602 125.864 L 12.952 125.970 L 13.303 126.161 L 13.653 126.400 L 14.004 126.639 L 14.354 126.830 L 14.705 126.936 L 15.055 126.936 L 15.406 126.830 L 15.756 126.639 L 16.107 126.400 L 16.457 126.161 L 16.808 125.970 L 17.158 125.864 L 17.509 125.864 L 17.859 125.970 L 18.210 126.161 L 18.560 126.400 L 18.910 126.639 L 19.261 126.830 L 19.611 126.936 L 19.962 126.936 L 20.312 126.830 L 20.663 126.639 L 21.013 126.400 L 21.364 126.161 L 21.714 125.970 L 22.065 125.864 L 22.415 125.864 L 22.766 125.970 L 23.116 126.161 L 23.467 126.400 L 23.817 126.639 L 24.168 126.830 L 24.518 126.936 L 24.869 126.936 L 25.219 126.830 L 25.570 126.639 L 25.920 126.400 L 26.270 126.161 L 26.621 125.970 L 26.971 125.864 L 27.322 125.864 L 27.672 125.970 L 28.023 126.161 L 28.373 126.400 L 28.724 126.639 L 29.074 126.830 L 29.425 126.936 L 29.775 126.936 L 30.126 126.830 L 30.476 126.639 L 30.827 126.400 L 31.177 126.161 L 31.528 125.970 L 31.878 125.864 L 32.229 125.864 L 32.579 125.970 L 32.930 126.161 L 33.280 126.400 L 33.630 126.639 L 33.981 126.830 L 34.331 126.936 L 34.682 126.936 L 35.032 126.830 L 35.383 126.639 L 35.733 126.400 L 36.084 126.161 L 36.434 125.970 L 36.785 125.864 L 37.135 125.864 L 37.486 125.970 L 37.836 126.161 L 38.187 126.400 L 38.537 126.639 L 38.888 126.830 L 39.238 126.936 L 39.589 126.936 L 39.939 126.830 L 40.290 126.639 L 40.640 126.400 L 40.990 126.161 L 41.341 125.970 L 41.691 125.864 L 42.042 125.864 L 42.392 125.970 L 42.743 126.161 L 43.093 126.400 L 43.444 126.639 L 43.794 126.830 L 44.145 126.936 L 44.495 126.936 L 44.846 126.830 L 45.196 126.639 L 45.547 126.400 L 45.897 126.161 L 46.248 125.970 L 46.598 125.864 L 46.949 125.864 L 47.299 125.970 L 47.650 126.161 L 48.000 126.400 L 48.350 126.639 L 48.701 126.830 L 49.051 126.936 L 49.402 126.936 L 49.752 126.830 L 50.103 126.639 L 50.453 126.400 L 50.804 126.161 L 51.154 125.970 L 51.505 125.864 L 51.855 125.864 L 52.206 125.970 L 52.556 126.161 L 52.907 126.400 L 53.257 126.639 L 53.608 126.830 L 53.958 126.936 L 54.309 126.936 L 54.659 126.830 L 55.010 126.639 L 55.360 126.400 L 55.710 126.161 L 56.061 125.970 L 56.411 125.864 L 56.762 125.864 L 57.112 125.970 L 57.463 126.161 L 57.813 126.400 L 58.164 126.639 L 58.514 126.830 L 58.865 126.936 L 59.215 126.936 L 59.566 126.830 L 59.916 126.639 L 60.267 126.400 L 60.617 126.161 L 60.968 125.970 L 61.318 125.864 L 61.669 125.864 L 62.019 125.970 L 62.370 126.161 L 62.720 126.400 L 63.070 126.639 L 63.421 126.830 L 63.771 126.936 L 64.122 126.936 L 64.472 126.830 L 64.823 126.639 L 65.173 126.400 L 65.524 126.161 L 65.874 125.970 L 66.225 125.864 L 66.575 125.864 L 66.926 125.970 L 67.276 126.161 L 67.627 126.400 L 67.977 126.639 L 68.328 126.830 L 68.678 126.936 L 69.029 126.936 L 69.379 126.830 L 69.730 126.639 L 70.080 126.400" fill="none" stroke="#7B9A6D" stroke-width="0.16" stroke-linecap="round" stroke-linejoin="round" stroke-opacity="0.90"/>
  <circle cx="11.2000" cy="126.4000" r="0.36" fill="#7B9A6D" fill-opacity="0.90"/>
  <circle cx="70.0800" cy="126.4000" r="0.36" fill="#7B9A6D" fill-opacity="0.90"/>
  <path d="M 1.550 10.400 L 1.724 10.750 L 1.877 11.101 L 1.988 11.451 L 2.045 11.801 L 2.039 12.152 L 1.971 12.502 L 1.851 12.852 L 1.693 13.203 L 1.517 13.553 L 1.345 13.903 L 1.198 14.254 L 1.096 14.604 L 1.052 14.955 L 1.069 15.305 L 1.147 15.655 L 1.276 16.006 L 1.440 16.356 L 1.617 16.706 L 1.785 17.057 L 1.925 17.407 L 2.017 17.757 L 2.050 18.108 L 2.020 18.458 L 1.932 18.808 L 1.795 19.159 L 1.628 19.509 L 1.450 19.859 L 1.286 20.210 L 1.154 20.560 L 1.072 20.910 L 1.051 21.261 L 1.092 21.611 L 1.191 21.961 L 1.334 22.312 L 1.505 22.662 L 1.682 23.013 L 1.842 23.363 L 1.965 23.713 L 2.036 24.064 L 2.046 24.414 L 1.994 24.764 L 1.885 25.115 L 1.735 25.465 L 1.561 25.815 L 1.386 26.166 L 1.231 26.516 L 1.117 26.866 L 1.057 27.217 L 1.059 27.567 L 1.123 27.917 L 1.240 28.268 L 1.397 28.618 L 1.572 28.968 L 1.745 29.319 L 1.894 29.669 L 1.999 30.019 L 2.047 30.370 L 2.034 30.720 L 1.959 31.071 L 1.833 31.421 L 1.671 31.771 L 1.494 32.122 L 1.324 32.472 L 1.183 32.822 L 1.088 33.173 L 1.050 33.523 L 1.076 33.873 L 1.161 34.224 L 1.295 34.574 L 1.461 34.924 L 1.639 35.275 L 1.805 35.625 L 1.939 35.975 L 2.024 36.326 L 2.050 36.676 L 2.012 37.026 L 1.917 37.377 L 1.776 37.727 L 1.606 38.078 L 1.429 38.428 L 1.267 38.778 L 1.141 39.129 L 1.066 39.479 L 1.053 39.829 L 1.101 40.180 L 1.206 40.530 L 1.355 40.880 L 1.528 41.231 L 1.703 41.581 L 1.860 41.931 L 1.977 42.282 L 2.041 42.632 L 2.043 42.982 L 1.983 43.333 L 1.869 43.683 L 1.714 44.033 L 1.539 44.384 L 1.365 44.734 L 1.215 45.084 L 1.106 45.435 L 1.054 45.785 L 1.064 46.136 L 1.135 46.486 L 1.258 46.836 L 1.418 47.187 L 1.595 47.537 L 1.766 47.887 L 1.909 48.238 L 2.008 48.588 L 2.049 48.938 L 2.028 49.289 L 1.946 49.639 L 1.814 49.989 L 1.650 50.340 L 1.472 50.690 L 1.305 51.040 L 1.168 51.391 L 1.080 51.741 L 1.050 52.091 L 1.083 52.442 L 1.175 52.792 L 1.315 53.142 L 1.483 53.493 L 1.660 53.843 L 1.824 54.194 L 1.953 54.544 L 2.031 54.894 L 2.048 55.245 L 2.004 55.595 L 1.902 55.945 L 1.755 56.296 L 1.583 56.646 L 1.407 56.996 L 1.249 57.347 L 1.129 57.697 L 1.061 58.047 L 1.055 58.398 L 1.112 58.748 L 1.223 59.098 L 1.376 59.449 L 1.550 59.799 L 1.724 60.149 L 1.877 60.500 L 1.988 60.850 L 2.045 61.200 L 2.039 61.551 L 1.971 61.901 L 1.851 62.252 L 1.693 62.602 L 1.517 62.952 L 1.345 63.303 L 1.198 63.653 L 1.096 64.003 L 1.052 64.354 L 1.069 64.704 L 1.147 65.054 L 1.276 65.405 L 1.440 65.755 L 1.617 66.105 L 1.785 66.456 L 1.925 66.806 L 2.017 67.156 L 2.050 67.507 L 2.020 67.857 L 1.932 68.207 L 1.795 68.558 L 1.628 68.908 L 1.450 69.258 L 1.286 69.609 L 1.154 69.959 L 1.072 70.310 L 1.051 70.660 L 1.092 71.010 L 1.191 71.361 L 1.334 71.711 L 1.505 72.061 L 1.682 72.412 L 1.842 72.762 L 1.965 73.112 L 2.036 73.463 L 2.046 73.813 L 1.994 74.163 L 1.885 74.514 L 1.735 74.864 L 1.561 75.214 L 1.386 75.565 L 1.231 75.915 L 1.117 76.265 L 1.057 76.616 L 1.059 76.966 L 1.123 77.317 L 1.240 77.667 L 1.397 78.017 L 1.572 78.368 L 1.745 78.718 L 1.894 79.068 L 1.999 79.419 L 2.047 79.769 L 2.034 80.119 L 1.959 80.470 L 1.833 80.820 L 1.671 81.170 L 1.494 81.521 L 1.324 81.871 L 1.183 82.221 L 1.088 82.572 L 1.050 82.922 L 1.076 83.272 L 1.161 83.623 L 1.295 83.973 L 1.461 84.323 L 1.639 84.674 L 1.805 85.024 L 1.939 85.375 L 2.024 85.725 L 2.050 86.075 L 2.012 86.426 L 1.917 86.776 L 1.776 87.126 L 1.606 87.477 L 1.429 87.827 L 1.267 88.177 L 1.141 88.528 L 1.066 88.878 L 1.053 89.228 L 1.101 89.579 L 1.206 89.929 L 1.355 90.279 L 1.528 90.630 L 1.703 90.980 L 1.860 91.330 L 1.977 91.681 L 2.041 92.031 L 2.043 92.381 L 1.983 92.732 L 1.869 93.082 L 1.714 93.433 L 1.539 93.783 L 1.365 94.133 L 1.215 94.484 L 1.106 94.834 L 1.054 95.184 L 1.064 95.535 L 1.135 95.885 L 1.258 96.235 L 1.418 96.586 L 1.595 96.936 L 1.766 97.286 L 1.909 97.637 L 2.008 97.987 L 2.049 98.337 L 2.028 98.688 L 1.946 99.038 L 1.814 99.388 L 1.650 99.739 L 1.472 100.089 L 1.305 100.439 L 1.168 100.790 L 1.080 101.140 L 1.050 101.491 L 1.083 101.841 L 1.175 102.191 L 1.315 102.542 L 1.483 102.892 L 1.660 103.242 L 1.824 103.593 L 1.953 103.943 L 2.031 104.293 L 2.048 104.644 L 2.004 104.994 L 1.902 105.344 L 1.755 105.695 L 1.583 106.045 L 1.407 106.395 L 1.249 106.746 L 1.129 107.096 L 1.061 107.446 L 1.055 107.797 L 1.112 108.147 L 1.223 108.497 L 1.376 108.848 L 1.550 109.198" fill="none" stroke="#7B9A6D" stroke-width="0.16" stroke-linecap="round" stroke-linejoin="round" stroke-opacity="0.55"/>
  <path d="M 1.550 10.400 L 1.376 10.750 L 1.223 11.101 L 1.112 11.451 L 1.055 11.801 L 1.061 12.152 L 1.129 12.502 L 1.249 12.852 L 1.407 13.203 L 1.583 13.553 L 1.755 13.903 L 1.902 14.254 L 2.004 14.604 L 2.048 14.955 L 2.031 15.305 L 1.953 15.655 L 1.824 16.006 L 1.660 16.356 L 1.483 16.706 L 1.315 17.057 L 1.175 17.407 L 1.083 17.757 L 1.050 18.108 L 1.080 18.458 L 1.168 18.808 L 1.305 19.159 L 1.472 19.509 L 1.650 19.859 L 1.814 20.210 L 1.946 20.560 L 2.028 20.910 L 2.049 21.261 L 2.008 21.611 L 1.909 21.961 L 1.766 22.312 L 1.595 22.662 L 1.418 23.013 L 1.258 23.363 L 1.135 23.713 L 1.064 24.064 L 1.054 24.414 L 1.106 24.764 L 1.215 25.115 L 1.365 25.465 L 1.539 25.815 L 1.714 26.166 L 1.869 26.516 L 1.983 26.866 L 2.043 27.217 L 2.041 27.567 L 1.977 27.917 L 1.860 28.268 L 1.703 28.618 L 1.528 28.968 L 1.355 29.319 L 1.206 29.669 L 1.101 30.019 L 1.053 30.370 L 1.066 30.720 L 1.141 31.071 L 1.267 31.421 L 1.429 31.771 L 1.606 32.122 L 1.776 32.472 L 1.917 32.822 L 2.012 33.173 L 2.050 33.523 L 2.024 33.873 L 1.939 34.224 L 1.805 34.574 L 1.639 34.924 L 1.461 35.275 L 1.295 35.625 L 1.161 35.975 L 1.076 36.326 L 1.050 36.676 L 1.088 37.026 L 1.183 37.377 L 1.324 37.727 L 1.494 38.078 L 1.671 38.428 L 1.833 38.778 L 1.959 39.129 L 2.034 39.479 L 2.047 39.829 L 1.999 40.180 L 1.894 40.530 L 1.745 40.880 L 1.572 41.231 L 1.397 41.581 L 1.240 41.931 L 1.123 42.282 L 1.059 42.632 L 1.057 42.982 L 1.117 43.333 L 1.231 43.683 L 1.386 44.033 L 1.561 44.384 L 1.735 44.734 L 1.885 45.084 L 1.994 45.435 L 2.046 45.785 L 2.036 46.136 L 1.965 46.486 L 1.842 46.836 L 1.682 47.187 L 1.505 47.537 L 1.334 47.887 L 1.191 48.238 L 1.092 48.588 L 1.051 48.938 L 1.072 49.289 L 1.154 49.639 L 1.286 49.989 L 1.450 50.340 L 1.628 50.690 L 1.795 51.040 L 1.932 51.391 L 2.020 51.741 L 2.050 52.091 L 2.017 52.442 L 1.925 52.792 L 1.785 53.142 L 1.617 53.493 L 1.440 53.843 L 1.276 54.194 L 1.147 54.544 L 1.069 54.894 L 1.052 55.245 L 1.096 55.595 L 1.198 55.945 L 1.345 56.296 L 1.517 56.646 L 1.693 56.996 L 1.851 57.347 L 1.971 57.697 L 2.039 58.047 L 2.045 58.398 L 1.988 58.748 L 1.877 59.098 L 1.724 59.449 L 1.550 59.799 L 1.376 60.149 L 1.223 60.500 L 1.112 60.850 L 1.055 61.200 L 1.061 61.551 L 1.129 61.901 L 1.249 62.252 L 1.407 62.602 L 1.583 62.952 L 1.755 63.303 L 1.902 63.653 L 2.004 64.003 L 2.048 64.354 L 2.031 64.704 L 1.953 65.054 L 1.824 65.405 L 1.660 65.755 L 1.483 66.105 L 1.315 66.456 L 1.175 66.806 L 1.083 67.156 L 1.050 67.507 L 1.080 67.857 L 1.168 68.207 L 1.305 68.558 L 1.472 68.908 L 1.650 69.258 L 1.814 69.609 L 1.946 69.959 L 2.028 70.310 L 2.049 70.660 L 2.008 71.010 L 1.909 71.361 L 1.766 71.711 L 1.595 72.061 L 1.418 72.412 L 1.258 72.762 L 1.135 73.112 L 1.064 73.463 L 1.054 73.813 L 1.106 74.163 L 1.215 74.514 L 1.365 74.864 L 1.539 75.214 L 1.714 75.565 L 1.869 75.915 L 1.983 76.265 L 2.043 76.616 L 2.041 76.966 L 1.977 77.317 L 1.860 77.667 L 1.703 78.017 L 1.528 78.368 L 1.355 78.718 L 1.206 79.068 L 1.101 79.419 L 1.053 79.769 L 1.066 80.119 L 1.141 80.470 L 1.267 80.820 L 1.429 81.170 L 1.606 81.521 L 1.776 81.871 L 1.917 82.221 L 2.012 82.572 L 2.050 82.922 L 2.024 83.272 L 1.939 83.623 L 1.805 83.973 L 1.639 84.323 L 1.461 84.674 L 1.295 85.024 L 1.161 85.375 L 1.076 85.725 L 1.050 86.075 L 1.088 86.426 L 1.183 86.776 L 1.324 87.126 L 1.494 87.477 L 1.671 87.827 L 1.833 88.177 L 1.959 88.528 L 2.034 88.878 L 2.047 89.228 L 1.999 89.579 L 1.894 89.929 L 1.745 90.279 L 1.572 90.630 L 1.397 90.980 L 1.240 91.330 L 1.123 91.681 L 1.059 92.031 L 1.057 92.381 L 1.117 92.732 L 1.231 93.082 L 1.386 93.433 L 1.561 93.783 L 1.735 94.133 L 1.885 94.484 L 1.994 94.834 L 2.046 95.184 L 2.036 95.535 L 1.965 95.885 L 1.842 96.235 L 1.682 96.586 L 1.505 96.936 L 1.334 97.286 L 1.191 97.637 L 1.092 97.987 L 1.051 98.337 L 1.072 98.688 L 1.154 99.038 L 1.286 99.388 L 1.450 99.739 L 1.628 100.089 L 1.795 100.439 L 1.932 100.790 L 2.020 101.140 L 2.050 101.491 L 2.017 101.841 L 1.925 102.191 L 1.785 102.542 L 1.617 102.892 L 1.440 103.242 L 1.276 103.593 L 1.147 103.943 L 1.069 104.293 L 1.052 104.644 L 1.096 104.994 L 1.198 105.344 L 1.345 105.695 L 1.517 106.045 L 1.693 106.395 L 1.851 106.746 L 1.971 107.096 L 2.039 107.446 L 2.045 107.797 L 1.988 108.147 L 1.877 108.497 L 1.724 108.848 L 1.550 109.198" fill="none" stroke="#7B9A6D" stroke-width="0.16" stroke-linecap="round" stroke-linejoin="round" stroke-opacity="0.55"/>
  <circle cx="1.5500" cy="10.4000" r="0.36" fill="#7B9A6D" fill-opacity="0.55"/>
  <circle cx="1.5500" cy="109.1982" r="0.36" fill="#7B9A6D" fill-opacity="0.55"/>
  <path d="M 79.730 10.400 L 79.904 10.750 L 80.057 11.101 L 80.168 11.451 L 80.225 11.801 L 80.219 12.152 L 80.151 12.502 L 80.031 12.852 L 79.873 13.203 L 79.697 13.553 L 79.525 13.903 L 79.378 14.254 L 79.276 14.604 L 79.232 14.955 L 79.249 15.305 L 79.327 15.655 L 79.456 16.006 L 79.620 16.356 L 79.797 16.706 L 79.965 17.057 L 80.105 17.407 L 80.197 17.757 L 80.230 18.108 L 80.200 18.458 L 80.112 18.808 L 79.975 19.159 L 79.808 19.509 L 79.630 19.859 L 79.466 20.210 L 79.334 20.560 L 79.252 20.910 L 79.231 21.261 L 79.272 21.611 L 79.371 21.961 L 79.514 22.312 L 79.685 22.662 L 79.862 23.013 L 80.022 23.363 L 80.145 23.713 L 80.216 24.064 L 80.226 24.414 L 80.174 24.764 L 80.065 25.115 L 79.915 25.465 L 79.741 25.815 L 79.566 26.166 L 79.411 26.516 L 79.297 26.866 L 79.237 27.217 L 79.239 27.567 L 79.303 27.917 L 79.420 28.268 L 79.577 28.618 L 79.752 28.968 L 79.925 29.319 L 80.074 29.669 L 80.179 30.019 L 80.227 30.370 L 80.214 30.720 L 80.139 31.071 L 80.013 31.421 L 79.851 31.771 L 79.674 32.122 L 79.504 32.472 L 79.363 32.822 L 79.268 33.173 L 79.230 33.523 L 79.256 33.873 L 79.341 34.224 L 79.475 34.574 L 79.641 34.924 L 79.819 35.275 L 79.985 35.625 L 80.119 35.975 L 80.204 36.326 L 80.230 36.676 L 80.192 37.026 L 80.097 37.377 L 79.956 37.727 L 79.786 38.078 L 79.609 38.428 L 79.447 38.778 L 79.321 39.129 L 79.246 39.479 L 79.233 39.829 L 79.281 40.180 L 79.386 40.530 L 79.535 40.880 L 79.708 41.231 L 79.883 41.581 L 80.040 41.931 L 80.157 42.282 L 80.221 42.632 L 80.223 42.982 L 80.163 43.333 L 80.049 43.683 L 79.894 44.033 L 79.719 44.384 L 79.545 44.734 L 79.395 45.084 L 79.286 45.435 L 79.234 45.785 L 79.244 46.136 L 79.315 46.486 L 79.438 46.836 L 79.598 47.187 L 79.775 47.537 L 79.946 47.887 L 80.089 48.238 L 80.188 48.588 L 80.229 48.938 L 80.208 49.289 L 80.126 49.639 L 79.994 49.989 L 79.830 50.340 L 79.652 50.690 L 79.485 51.040 L 79.348 51.391 L 79.260 51.741 L 79.230 52.091 L 79.263 52.442 L 79.355 52.792 L 79.495 53.142 L 79.663 53.493 L 79.840 53.843 L 80.004 54.194 L 80.133 54.544 L 80.211 54.894 L 80.228 55.245 L 80.184 55.595 L 80.082 55.945 L 79.935 56.296 L 79.763 56.646 L 79.587 56.996 L 79.429 57.347 L 79.309 57.697 L 79.241 58.047 L 79.235 58.398 L 79.292 58.748 L 79.403 59.098 L 79.556 59.449 L 79.730 59.799 L 79.904 60.149 L 80.057 60.500 L 80.168 60.850 L 80.225 61.200 L 80.219 61.551 L 80.151 61.901 L 80.031 62.252 L 79.873 62.602 L 79.697 62.952 L 79.525 63.303 L 79.378 63.653 L 79.276 64.003 L 79.232 64.354 L 79.249 64.704 L 79.327 65.054 L 79.456 65.405 L 79.620 65.755 L 79.797 66.105 L 79.965 66.456 L 80.105 66.806 L 80.197 67.156 L 80.230 67.507 L 80.200 67.857 L 80.112 68.207 L 79.975 68.558 L 79.808 68.908 L 79.630 69.258 L 79.466 69.609 L 79.334 69.959 L 79.252 70.310 L 79.231 70.660 L 79.272 71.010 L 79.371 71.361 L 79.514 71.711 L 79.685 72.061 L 79.862 72.412 L 80.022 72.762 L 80.145 73.112 L 80.216 73.463 L 80.226 73.813 L 80.174 74.163 L 80.065 74.514 L 79.915 74.864 L 79.741 75.214 L 79.566 75.565 L 79.411 75.915 L 79.297 76.265 L 79.237 76.616 L 79.239 76.966 L 79.303 77.317 L 79.420 77.667 L 79.577 78.017 L 79.752 78.368 L 79.925 78.718 L 80.074 79.068 L 80.179 79.419 L 80.227 79.769 L 80.214 80.119 L 80.139 80.470 L 80.013 80.820 L 79.851 81.170 L 79.674 81.521 L 79.504 81.871 L 79.363 82.221 L 79.268 82.572 L 79.230 82.922 L 79.256 83.272 L 79.341 83.623 L 79.475 83.973 L 79.641 84.323 L 79.819 84.674 L 79.985 85.024 L 80.119 85.375 L 80.204 85.725 L 80.230 86.075 L 80.192 86.426 L 80.097 86.776 L 79.956 87.126 L 79.786 87.477 L 79.609 87.827 L 79.447 88.177 L 79.321 88.528 L 79.246 88.878 L 79.233 89.228 L 79.281 89.579 L 79.386 89.929 L 79.535 90.279 L 79.708 90.630 L 79.883 90.980 L 80.040 91.330 L 80.157 91.681 L 80.221 92.031 L 80.223 92.381 L 80.163 92.732 L 80.049 93.082 L 79.894 93.433 L 79.719 93.783 L 79.545 94.133 L 79.395 94.484 L 79.286 94.834 L 79.234 95.184 L 79.244 95.535 L 79.315 95.885 L 79.438 96.235 L 79.598 96.586 L 79.775 96.936 L 79.946 97.286 L 80.089 97.637 L 80.188 97.987 L 80.229 98.337 L 80.208 98.688 L 80.126 99.038 L 79.994 99.388 L 79.830 99.739 L 79.652 100.089 L 79.485 100.439 L 79.348 100.790 L 79.260 101.140 L 79.230 101.491 L 79.263 101.841 L 79.355 102.191 L 79.495 102.542 L 79.663 102.892 L 79.840 103.242 L 80.004 103.593 L 80.133 103.943 L 80.211 104.293 L 80.228 104.644 L 80.184 104.994 L 80.082 105.344 L 79.935 105.695 L 79.763 106.045 L 79.587 106.395 L 79.429 106.746 L 79.309 107.096 L 79.241 107.446 L 79.235 107.797 L 79.292 108.147 L 79.403 108.497 L 79.556 108.848 L 79.730 109.198" fill="none" stroke="#7B9A6D" stroke-width="0.16" stroke-linecap="round" stroke-linejoin="round" stroke-opacity="0.55"/>
  <path d="M 79.730 10.400 L 79.556 10.750 L 79.403 11.101 L 79.292 11.451 L 79.235 11.801 L 79.241 12.152 L 79.309 12.502 L 79.429 12.852 L 79.587 13.203 L 79.763 13.553 L 79.935 13.903 L 80.082 14.254 L 80.184 14.604 L 80.228 14.955 L 80.211 15.305 L 80.133 15.655 L 80.004 16.006 L 79.840 16.356 L 79.663 16.706 L 79.495 17.057 L 79.355 17.407 L 79.263 17.757 L 79.230 18.108 L 79.260 18.458 L 79.348 18.808 L 79.485 19.159 L 79.652 19.509 L 79.830 19.859 L 79.994 20.210 L 80.126 20.560 L 80.208 20.910 L 80.229 21.261 L 80.188 21.611 L 80.089 21.961 L 79.946 22.312 L 79.775 22.662 L 79.598 23.013 L 79.438 23.363 L 79.315 23.713 L 79.244 24.064 L 79.234 24.414 L 79.286 24.764 L 79.395 25.115 L 79.545 25.465 L 79.719 25.815 L 79.894 26.166 L 80.049 26.516 L 80.163 26.866 L 80.223 27.217 L 80.221 27.567 L 80.157 27.917 L 80.040 28.268 L 79.883 28.618 L 79.708 28.968 L 79.535 29.319 L 79.386 29.669 L 79.281 30.019 L 79.233 30.370 L 79.246 30.720 L 79.321 31.071 L 79.447 31.421 L 79.609 31.771 L 79.786 32.122 L 79.956 32.472 L 80.097 32.822 L 80.192 33.173 L 80.230 33.523 L 80.204 33.873 L 80.119 34.224 L 79.985 34.574 L 79.819 34.924 L 79.641 35.275 L 79.475 35.625 L 79.341 35.975 L 79.256 36.326 L 79.230 36.676 L 79.268 37.026 L 79.363 37.377 L 79.504 37.727 L 79.674 38.078 L 79.851 38.428 L 80.013 38.778 L 80.139 39.129 L 80.214 39.479 L 80.227 39.829 L 80.179 40.180 L 80.074 40.530 L 79.925 40.880 L 79.752 41.231 L 79.577 41.581 L 79.420 41.931 L 79.303 42.282 L 79.239 42.632 L 79.237 42.982 L 79.297 43.333 L 79.411 43.683 L 79.566 44.033 L 79.741 44.384 L 79.915 44.734 L 80.065 45.084 L 80.174 45.435 L 80.226 45.785 L 80.216 46.136 L 80.145 46.486 L 80.022 46.836 L 79.862 47.187 L 79.685 47.537 L 79.514 47.887 L 79.371 48.238 L 79.272 48.588 L 79.231 48.938 L 79.252 49.289 L 79.334 49.639 L 79.466 49.989 L 79.630 50.340 L 79.808 50.690 L 79.975 51.040 L 80.112 51.391 L 80.200 51.741 L 80.230 52.091 L 80.197 52.442 L 80.105 52.792 L 79.965 53.142 L 79.797 53.493 L 79.620 53.843 L 79.456 54.194 L 79.327 54.544 L 79.249 54.894 L 79.232 55.245 L 79.276 55.595 L 79.378 55.945 L 79.525 56.296 L 79.697 56.646 L 79.873 56.996 L 80.031 57.347 L 80.151 57.697 L 80.219 58.047 L 80.225 58.398 L 80.168 58.748 L 80.057 59.098 L 79.904 59.449 L 79.730 59.799 L 79.556 60.149 L 79.403 60.500 L 79.292 60.850 L 79.235 61.200 L 79.241 61.551 L 79.309 61.901 L 79.429 62.252 L 79.587 62.602 L 79.763 62.952 L 79.935 63.303 L 80.082 63.653 L 80.184 64.003 L 80.228 64.354 L 80.211 64.704 L 80.133 65.054 L 80.004 65.405 L 79.840 65.755 L 79.663 66.105 L 79.495 66.456 L 79.355 66.806 L 79.263 67.156 L 79.230 67.507 L 79.260 67.857 L 79.348 68.207 L 79.485 68.558 L 79.652 68.908 L 79.830 69.258 L 79.994 69.609 L 80.126 69.959 L 80.208 70.310 L 80.229 70.660 L 80.188 71.010 L 80.089 71.361 L 79.946 71.711 L 79.775 72.061 L 79.598 72.412 L 79.438 72.762 L 79.315 73.112 L 79.244 73.463 L 79.234 73.813 L 79.286 74.163 L 79.395 74.514 L 79.545 74.864 L 79.719 75.214 L 79.894 75.565 L 80.049 75.915 L 80.163 76.265 L 80.223 76.616 L 80.221 76.966 L 80.157 77.317 L 80.040 77.667 L 79.883 78.017 L 79.708 78.368 L 79.535 78.718 L 79.386 79.068 L 79.281 79.419 L 79.233 79.769 L 79.246 80.119 L 79.321 80.470 L 79.447 80.820 L 79.609 81.170 L 79.786 81.521 L 79.956 81.871 L 80.097 82.221 L 80.192 82.572 L 80.230 82.922 L 80.204 83.272 L 80.119 83.623 L 79.985 83.973 L 79.819 84.323 L 79.641 84.674 L 79.475 85.024 L 79.341 85.375 L 79.256 85.725 L 79.230 86.075 L 79.268 86.426 L 79.363 86.776 L 79.504 87.126 L 79.674 87.477 L 79.851 87.827 L 80.013 88.177 L 80.139 88.528 L 80.214 88.878 L 80.227 89.228 L 80.179 89.579 L 80.074 89.929 L 79.925 90.279 L 79.752 90.630 L 79.577 90.980 L 79.420 91.330 L 79.303 91.681 L 79.239 92.031 L 79.237 92.381 L 79.297 92.732 L 79.411 93.082 L 79.566 93.433 L 79.741 93.783 L 79.915 94.133 L 80.065 94.484 L 80.174 94.834 L 80.226 95.184 L 80.216 95.535 L 80.145 95.885 L 80.022 96.235 L 79.862 96.586 L 79.685 96.936 L 79.514 97.286 L 79.371 97.637 L 79.272 97.987 L 79.231 98.337 L 79.252 98.688 L 79.334 99.038 L 79.466 99.388 L 79.630 99.739 L 79.808 100.089 L 79.975 100.439 L 80.112 100.790 L 80.200 101.140 L 80.230 101.491 L 80.197 101.841 L 80.105 102.191 L 79.965 102.542 L 79.797 102.892 L 79.620 103.242 L 79.456 103.593 L 79.327 103.943 L 79.249 104.293 L 79.232 104.644 L 79.276 104.994 L 79.378 105.344 L 79.525 105.695 L 79.697 106.045 L 79.873 106.395 L 80.031 106.746 L 80.151 107.096 L 80.219 107.446 L 80.225 107.797 L 80.168 108.147 L 80.057 108.497 L 79.904 108.848 L 79.730 109.198" fill="none" stroke="#7B9A6D" stroke-width="0.16" stroke-linecap="round" stroke-linejoin="round" stroke-opacity="0.55"/>
  <circle cx="79.7300" cy="10.4000" r="0.36" fill="#7B9A6D" fill-opacity="0.55"/>
  <circle cx="79.7300" cy="109.1982" r="0.36" fill="#7B9A6D" fill-opacity="0.55"/>
  <rect x="4.2" y="9.8000" width="72.8800" height="9.2000" rx="1.20" fill="#1B151E" stroke="#7B9A6D" stroke-width="0.3"/>
  <rect x="3.0000" y="20.0000" width="75.2800" height="32.3802" rx="1.60" fill="#E7E1EA" stroke="#7B9A6D" stroke-width="0.22"/>
  <rect x="3.0000" y="20.0000" width="7.0000" height="0.5000" rx="0.25" fill="#181E15"/>
  <path d="M 77.830 21.050 L 77.793 20.882 L 77.711 20.734 L 77.592 20.619 L 77.449 20.545 L 77.293 20.515 L 77.140 20.532 L 77.000 20.590 L 76.887 20.684 L 76.807 20.804 L 76.766 20.939 L 76.766 21.076 L 76.804 21.203 L 76.876 21.311 L 76.973 21.392 L 77.086 21.440 L 77.205 21.452 L 77.318 21.431 L 77.418 21.379 L 77.495 21.303 L 77.545 21.211 L 77.566 21.111 L 77.557 21.014 L 77.522 20.926 L 77.465 20.856 L 77.393 20.807 L 77.312 20.782 L 77.232 20.782 L 77.159 20.805 L 77.098 20.846 L 77.054 20.900 L 77.030 20.962 L 77.025 21.024 L 77.039 21.082 L 77.067 21.130 L 77.106 21.165 L 77.150 21.185 L 77.195 21.191 L 77.236 21.182 L 77.270 21.164 L 77.293 21.137" fill="none" stroke="#7B9A6D" stroke-width="0.16" stroke-linecap="round" stroke-linejoin="round"/>
  <circle cx="77.2935" cy="21.1374" r="0.22" fill="#7B9A6D"/>
  <path d="M 3.450 51.330 L 3.487 51.499 L 3.569 51.646 L 3.688 51.761 L 3.831 51.836 L 3.987 51.865 L 4.140 51.849 L 4.280 51.790 L 4.393 51.696 L 4.473 51.576 L 4.514 51.442 L 4.514 51.305 L 4.476 51.177 L 4.404 51.069 L 4.307 50.988 L 4.194 50.940 L 4.075 50.928 L 3.962 50.949 L 3.862 51.001 L 3.785 51.077 L 3.735 51.169 L 3.714 51.269 L 3.723 51.366 L 3.758 51.454 L 3.815 51.524 L 3.887 51.573 L 3.968 51.598 L 4.048 51.598 L 4.121 51.576 L 4.182 51.535 L 4.226 51.480 L 4.250 51.419 L 4.255 51.356 L 4.241 51.298 L 4.213 51.250 L 4.174 51.215 L 4.130 51.195 L 4.085 51.190 L 4.044 51.198 L 4.010 51.217 L 3.987 51.243" fill="none" stroke="#7B9A6D" stroke-width="0.16" stroke-linecap="round" stroke-linejoin="round"/>
  <circle cx="3.9865" cy="51.2428" r="0.22" fill="#7B9A6D"/>
  <path d="M 77.830 51.330 L 77.793 51.499 L 77.711 51.646 L 77.592 51.761 L 77.449 51.836 L 77.293 51.865 L 77.140 51.849 L 77.000 51.790 L 76.887 51.696 L 76.807 51.576 L 76.766 51.442 L 76.766 51.305 L 76.804 51.177 L 76.876 51.069 L 76.973 50.988 L 77.086 50.940 L 77.205 50.928 L 77.318 50.949 L 77.418 51.001 L 77.495 51.077 L 77.545 51.169 L 77.566 51.269 L 77.557 51.366 L 77.522 51.454 L 77.465 51.524 L 77.393 51.573 L 77.312 51.598 L 77.232 51.598 L 77.159 51.576 L 77.098 51.535 L 77.054 51.480 L 77.030 51.419 L 77.025 51.356 L 77.039 51.298 L 77.067 51.250 L 77.106 51.215 L 77.150 51.195 L 77.195 51.190 L 77.236 51.198 L 77.270 51.217 L 77.293 51.243" fill="none" stroke="#7B9A6D" stroke-width="0.16" stroke-linecap="round" stroke-linejoin="round"/>
  <circle cx="77.2935" cy="51.2428" r="0.22" fill="#7B9A6D"/>
  <rect x="3.0000" y="54.9950" width="75.2800" height="27.1318" rx="1.60" fill="#E7E1EA" stroke="#7B9A6D" stroke-width="0.22"/>
  <rect x="3.0000" y="54.9950" width="7.0000" height="0.5000" rx="0.25" fill="#181E15"/>
  <path d="M 77.830 56.045 L 77.793 55.877 L 77.711 55.729 L 77.592 55.614 L 77.449 55.540 L 77.293 55.510 L 77.140 55.527 L 77.000 55.585 L 76.887 55.679 L 76.807 55.799 L 76.766 55.934 L 76.766 56.071 L 76.804 56.198 L 76.876 56.306 L 76.973 56.387 L 77.086 56.435 L 77.205 56.447 L 77.318 56.426 L 77.418 56.374 L 77.495 56.298 L 77.545 56.206 L 77.566 56.106 L 77.557 56.009 L 77.522 55.921 L 77.465 55.851 L 77.393 55.802 L 77.312 55.777 L 77.232 55.777 L 77.159 55.800 L 77.098 55.841 L 77.054 55.895 L 77.030 55.957 L 77.025 56.019 L 77.039 56.077 L 77.067 56.125 L 77.106 56.160 L 77.150 56.180 L 77.195 56.186 L 77.236 56.177 L 77.270 56.159 L 77.293 56.132" fill="none" stroke="#7B9A6D" stroke-width="0.16" stroke-linecap="round" stroke-linejoin="round"/>
  <circle cx="77.2935" cy="56.1324" r="0.22" fill="#7B9A6D"/>
  <path d="M 3.450 81.077 L 3.487 81.245 L 3.569 81.393 L 3.688 81.508 L 3.831 81.582 L 3.987 81.612 L 4.140 81.595 L 4.280 81.537 L 4.393 81.442 L 4.473 81.323 L 4.514 81.188 L 4.514 81.051 L 4.476 80.924 L 4.404 80.815 L 4.307 80.735 L 4.194 80.687 L 4.075 80.674 L 3.962 80.696 L 3.862 80.748 L 3.785 80.824 L 3.735 80.916 L 3.714 81.015 L 3.723 81.113 L 3.758 81.200 L 3.815 81.271 L 3.887 81.320 L 3.968 81.345 L 4.048 81.345 L 4.121 81.322 L 4.182 81.281 L 4.226 81.227 L 4.250 81.165 L 4.255 81.103 L 4.241 81.045 L 4.213 80.997 L 4.174 80.962 L 4.130 80.942 L 4.085 80.936 L 4.044 80.944 L 4.010 80.963 L 3.987 80.989" fill="none" stroke="#7B9A6D" stroke-width="0.16" stroke-linecap="round" stroke-linejoin="round"/>
  <circle cx="3.9865" cy="80.9895" r="0.22" fill="#7B9A6D"/>
  <path d="M 77.830 81.077 L 77.793 81.245 L 77.711 81.393 L 77.592 81.508 L 77.449 81.582 L 77.293 81.612 L 77.140 81.595 L 77.000 81.537 L 76.887 81.442 L 76.807 81.323 L 76.766 81.188 L 76.766 81.051 L 76.804 80.924 L 76.876 80.815 L 76.973 80.735 L 77.086 80.687 L 77.205 80.674 L 77.318 80.696 L 77.418 80.748 L 77.495 80.824 L 77.545 80.916 L 77.566 81.015 L 77.557 81.113 L 77.522 81.200 L 77.465 81.271 L 77.393 81.320 L 77.312 81.345 L 77.232 81.345 L 77.159 81.322 L 77.098 81.281 L 77.054 81.227 L 77.030 81.165 L 77.025 81.103 L 77.039 81.045 L 77.067 80.997 L 77.106 80.962 L 77.150 80.942 L 77.195 80.936 L 77.236 80.944 L 77.270 80.963 L 77.293 80.989" fill="none" stroke="#7B9A6D" stroke-width="0.16" stroke-linecap="round" stroke-linejoin="round"/>
  <circle cx="77.2935" cy="80.9895" r="0.22" fill="#7B9A6D"/>
  <rect x="3.0000" y="84.7417" width="75.2800" height="21.7269" rx="1.60" fill="#E7E1EA" stroke="#7B9A6D" stroke-width="0.22"/>
  <rect x="3.0000" y="84.7417" width="7.0000" height="0.5000" rx="0.25" fill="#181E15"/>
  <path d="M 77.830 85.792 L 77.793 85.623 L 77.711 85.476 L 77.592 85.361 L 77.449 85.286 L 77.293 85.257 L 77.140 85.273 L 77.000 85.332 L 76.887 85.426 L 76.807 85.546 L 76.766 85.680 L 76.766 85.817 L 76.804 85.945 L 76.876 86.053 L 76.973 86.134 L 77.086 86.181 L 77.205 86.194 L 77.318 86.172 L 77.418 86.121 L 77.495 86.044 L 77.545 85.952 L 77.566 85.853 L 77.557 85.756 L 77.522 85.668 L 77.465 85.597 L 77.393 85.548 L 77.312 85.524 L 77.232 85.524 L 77.159 85.546 L 77.098 85.587 L 77.054 85.642 L 77.030 85.703 L 77.025 85.766 L 77.039 85.824 L 77.067 85.872 L 77.106 85.907 L 77.150 85.927 L 77.195 85.932 L 77.236 85.924 L 77.270 85.905 L 77.293 85.879" fill="none" stroke="#7B9A6D" stroke-width="0.16" stroke-linecap="round" stroke-linejoin="round"/>
  <circle cx="77.2935" cy="85.8790" r="0.22" fill="#7B9A6D"/>
  <path d="M 3.450 105.419 L 3.487 105.587 L 3.569 105.734 L 3.688 105.850 L 3.831 105.924 L 3.987 105.953 L 4.140 105.937 L 4.280 105.878 L 4.393 105.784 L 4.473 105.664 L 4.514 105.530 L 4.514 105.393 L 4.476 105.265 L 4.404 105.157 L 4.307 105.076 L 4.194 105.029 L 4.075 105.016 L 3.962 105.038 L 3.862 105.090 L 3.785 105.166 L 3.735 105.258 L 3.714 105.357 L 3.723 105.455 L 3.758 105.542 L 3.815 105.613 L 3.887 105.662 L 3.968 105.686 L 4.048 105.686 L 4.121 105.664 L 4.182 105.623 L 4.226 105.569 L 4.250 105.507 L 4.255 105.444 L 4.241 105.387 L 4.213 105.339 L 4.174 105.303 L 4.130 105.283 L 4.085 105.278 L 4.044 105.286 L 4.010 105.305 L 3.987 105.331" fill="none" stroke="#7B9A6D" stroke-width="0.16" stroke-linecap="round" stroke-linejoin="round"/>
  <circle cx="3.9865" cy="105.3312" r="0.22" fill="#7B9A6D"/>
  <path d="M 77.830 105.419 L 77.793 105.587 L 77.711 105.734 L 77.592 105.850 L 77.449 105.924 L 77.293 105.953 L 77.140 105.937 L 77.000 105.878 L 76.887 105.784 L 76.807 105.664 L 76.766 105.530 L 76.766 105.393 L 76.804 105.265 L 76.876 105.157 L 76.973 105.076 L 77.086 105.029 L 77.205 105.016 L 77.318 105.038 L 77.418 105.090 L 77.495 105.166 L 77.545 105.258 L 77.566 105.357 L 77.557 105.455 L 77.522 105.542 L 77.465 105.613 L 77.393 105.662 L 77.312 105.686 L 77.232 105.686 L 77.159 105.664 L 77.098 105.623 L 77.054 105.569 L 77.030 105.507 L 77.025 105.444 L 77.039 105.387 L 77.067 105.339 L 77.106 105.303 L 77.150 105.283 L 77.195 105.278 L 77.236 105.286 L 77.270 105.305 L 77.293 105.331" fill="none" stroke="#7B9A6D" stroke-width="0.16" stroke-linecap="round" stroke-linejoin="round"/>
  <circle cx="77.2935" cy="105.3312" r="0.22" fill="#7B9A6D"/>
  <rect x="13.4100" y="62.3150" width="0.26" height="5.3200" fill="#7B9A6D" fill-opacity="0.8"/>
  <rect x="13.4100" y="70.5468" width="0.26" height="5.8900" fill="#7B9A6D" fill-opacity="0.8"/>
  <rect x="26.9600" y="62.3150" width="0.26" height="5.3200" fill="#7B9A6D" fill-opacity="0.8"/>
  <rect x="26.9600" y="70.5468" width="0.26" height="5.8900" fill="#7B9A6D" fill-opacity="0.8"/>
  <rect x="40.5100" y="62.3150" width="0.26" height="5.3200" fill="#7B9A6D" fill-opacity="0.8"/>
  <rect x="40.5100" y="70.5468" width="0.26" height="5.8900" fill="#7B9A6D" fill-opacity="0.8"/>
  <rect x="54.0600" y="62.3150" width="0.26" height="5.3200" fill="#7B9A6D" fill-opacity="0.8"/>
  <rect x="54.0600" y="70.5468" width="0.26" height="5.8900" fill="#7B9A6D" fill-opacity="0.8"/>
  <rect x="67.6100" y="62.3150" width="0.26" height="5.3200" fill="#7B9A6D" fill-opacity="0.8"/>
  <rect x="67.6100" y="70.5468" width="0.26" height="5.8900" fill="#7B9A6D" fill-opacity="0.8"/>
  <circle cx="49.6808" cy="21.7685" r="1.7400" fill="#1B151E" stroke="#7B9A6D" stroke-width="0.2"/>
  <circle cx="13.1000" cy="32.7085" r="6.8000" fill="#1B151E" stroke="#7B9A6D" stroke-width="0.2"/>
  <circle cx="29.3800" cy="32.7085" r="5.5000" fill="#1B151E" stroke="#7B9A6D" stroke-width="0.2"/>
  <circle cx="43.1800" cy="32.7085" r="5.5000" fill="#1B151E" stroke="#7B9A6D" stroke-width="0.2"/>
  <circle cx="56.9800" cy="32.7085" r="5.5000" fill="#1B151E" stroke="#7B9A6D" stroke-width="0.2"/>
  <circle cx="70.7800" cy="32.7085" r="5.5000" fill="#1B151E" stroke="#7B9A6D" stroke-width="0.2"/>
  <rect x="24.2800" y="45.9802" width="10.2000" height="5.0000" rx="0.88" fill="#1B151E" stroke="#7B9A6D" stroke-width="0.2"/>
  <rect x="38.0800" y="45.9802" width="10.2000" height="5.0000" rx="0.88" fill="#1B151E" stroke="#7B9A6D" stroke-width="0.2"/>
  <rect x="51.8800" y="45.9802" width="10.2000" height="5.0000" rx="0.88" fill="#1B151E" stroke="#7B9A6D" stroke-width="0.2"/>
  <rect x="65.6800" y="45.9802" width="10.2000" height="5.0000" rx="0.88" fill="#1B151E" stroke="#7B9A6D" stroke-width="0.2"/>
  <circle cx="13.5400" cy="62.3150" r="3.7200" fill="#1B151E" stroke="#7B9A6D" stroke-width="0.2"/>
  <circle cx="27.0900" cy="62.3150" r="3.7200" fill="#1B151E" stroke="#7B9A6D" stroke-width="0.2"/>
  <circle cx="40.6400" cy="62.3150" r="3.7200" fill="#1B151E" stroke="#7B9A6D" stroke-width="0.2"/>
  <circle cx="54.1900" cy="62.3150" r="3.7200" fill="#1B151E" stroke="#7B9A6D" stroke-width="0.2"/>
  <circle cx="67.7400" cy="62.3150" r="3.7200" fill="#1B151E" stroke="#7B9A6D" stroke-width="0.2"/>
  <circle cx="13.5400" cy="76.4368" r="4.2900" fill="#1B151E" stroke="#7B9A6D" stroke-width="0.2"/>
  <circle cx="27.0900" cy="76.4368" r="4.2900" fill="#1B151E" stroke="#7B9A6D" stroke-width="0.2"/>
  <circle cx="40.6400" cy="76.4368" r="4.2900" fill="#1B151E" stroke="#7B9A6D" stroke-width="0.2"/>
  <circle cx="54.1900" cy="76.4368" r="4.2900" fill="#1B151E" stroke="#7B9A6D" stroke-width="0.2"/>
  <circle cx="67.7400" cy="76.4368" r="4.2900" fill="#1B151E" stroke="#7B9A6D" stroke-width="0.2"/>
  <circle cx="10.5000" cy="97.1617" r="5.5000" fill="#1B151E" stroke="#7B9A6D" stroke-width="0.2"/>
  <circle cx="22.1481" cy="97.1617" r="3.7200" fill="#1B151E" stroke="#7B9A6D" stroke-width="0.2"/>
  <circle cx="32.5862" cy="97.1617" r="4.2900" fill="#1B151E" stroke="#7B9A6D" stroke-width="0.2"/>
  <circle cx="43.9542" cy="97.1617" r="4.2900" fill="#1B151E" stroke="#7B9A6D" stroke-width="0.2"/>
  <circle cx="55.3223" cy="97.1617" r="4.2900" fill="#1B151E" stroke="#7B9A6D" stroke-width="0.2"/>
  <circle cx="70.7800" cy="97.1617" r="5.5000" fill="#1B151E" stroke="#7B9A6D" stroke-width="0.2"/>
  <circle cx="61.1119" cy="90.7317" r="1.7400" fill="#1B151E" stroke="#7B9A6D" stroke-width="0.2"/>
  <circle cx="7.2900" cy="118.6000" r="4.2900" fill="#1B151E" stroke="#7B9A6D" stroke-width="0.2"/>
  <circle cx="20.6300" cy="118.6000" r="4.2900" fill="#1B151E" stroke="#7B9A6D" stroke-width="0.2"/>
  <circle cx="33.9700" cy="118.6000" r="4.2900" fill="#1B151E" stroke="#7B9A6D" stroke-width="0.2"/>
  <circle cx="47.3100" cy="118.6000" r="4.2900" fill="#1B151E" stroke="#7B9A6D" stroke-width="0.2"/>
  <circle cx="60.6500" cy="118.6000" r="4.2900" fill="#1B151E" stroke="#7B9A6D" stroke-width="0.2"/>
  <circle cx="73.9900" cy="118.6000" r="4.2900" fill="#1B151E" stroke="#7B9A6D" stroke-width="0.2"/>
  <path d="M 67.068 100.874 L 66.722 100.492 L 66.415 100.078 L 66.150 99.636 L 65.930 99.171 L 65.756 98.686 L 65.631 98.186 L 65.555 97.676 L 65.530 97.162 L 65.555 96.647 L 65.631 96.137 L 65.756 95.638 L 65.930 95.153 L 66.150 94.687 L 66.415 94.245 L 66.722 93.831 L 67.068 93.449 L 67.449 93.103 L 67.863 92.796 L 68.305 92.532 L 68.771 92.311 L 69.256 92.138 L 69.756 92.013 L 70.265 91.937 L 70.780 91.912 L 71.295 91.937 L 71.804 92.013 L 72.304 92.138 L 72.789 92.311 L 73.255 92.532 L 73.697 92.796 L 74.111 93.103 L 74.492 93.449 L 74.838 93.831 L 75.145 94.245 L 75.410 94.687 L 75.630 95.153 L 75.804 95.638 L 75.929 96.137 L 76.005 96.647 L 76.030 97.162 L 76.005 97.676 L 75.929 98.186 L 75.804 98.686 L 75.630 99.171 L 75.410 99.636 L 75.145 100.078 L 74.838 100.492 L 74.492 100.874" fill="none" stroke="#7B9A6D" stroke-width="0.19" stroke-linecap="round" stroke-linejoin="round"/>
  <path d="M 67.633 100.308 L 67.068 100.874" fill="none" stroke="#7B9A6D" stroke-width="0.24" stroke-linecap="round" stroke-linejoin="round"/>
  <path d="M 66.170 98.079 L 65.631 98.186" fill="none" stroke="#7B9A6D" stroke-width="0.24" stroke-linecap="round" stroke-linejoin="round"/>
  <path d="M 66.438 95.363 L 65.930 95.153" fill="none" stroke="#7B9A6D" stroke-width="0.24" stroke-linecap="round" stroke-linejoin="round"/>
  <path d="M 68.169 93.254 L 67.863 92.796" fill="none" stroke="#7B9A6D" stroke-width="0.24" stroke-linecap="round" stroke-linejoin="round"/>
  <path d="M 70.780 92.462 L 70.780 91.912" fill="none" stroke="#7B9A6D" stroke-width="0.24" stroke-linecap="round" stroke-linejoin="round"/>
  <path d="M 73.391 93.254 L 73.697 92.796" fill="none" stroke="#7B9A6D" stroke-width="0.24" stroke-linecap="round" stroke-linejoin="round"/>
  <path d="M 75.122 95.363 L 75.630 95.153" fill="none" stroke="#7B9A6D" stroke-width="0.24" stroke-linecap="round" stroke-linejoin="round"/>
  <path d="M 75.390 98.079 L 75.929 98.186" fill="none" stroke="#7B9A6D" stroke-width="0.24" stroke-linecap="round" stroke-linejoin="round"/>
  <path d="M 73.927 100.308 L 74.492 100.874" fill="none" stroke="#7B9A6D" stroke-width="0.24" stroke-linecap="round" stroke-linejoin="round"/>
  <circle cx="13.1000" cy="32.7085" r="8.3000" fill="none" stroke="#7B9A6D" stroke-width="0.32"/>
  <circle cx="13.1000" cy="32.7085" r="7.7000" fill="none" stroke="#7B9A6D" stroke-width="0.16"/>
</g>
<g inkscape:label="components" inkscape:groupmode="layer" id="components" style="display:none">
  <circle inkscape:label="active" cx="49.6808" cy="21.7685" r="1" fill="#ff0000"/>
  <circle inkscape:label="program" cx="13.1000" cy="32.7085" r="1" fill="#ff0000"/>
  <circle inkscape:label="p1" cx="29.3800" cy="32.7085" r="1" fill="#ff0000"/>
  <circle inkscape:label="p2" cx="43.1800" cy="32.7085" r="1" fill="#ff0000"/>
  <circle inkscape:label="p3" cx="56.9800" cy="32.7085" r="1" fill="#ff0000"/>
  <circle inkscape:label="p4" cx="70.7800" cy="32.7085" r="1" fill="#ff0000"/>
  <circle inkscape:label="p1_name" cx="29.3800" cy="48.4802" r="1" fill="#ff0000"/>
  <circle inkscape:label="p2_name" cx="43.1800" cy="48.4802" r="1" fill="#ff0000"/>
  <circle inkscape:label="p3_name" cx="56.9800" cy="48.4802" r="1" fill="#ff0000"/>
  <circle inkscape:label="p4_name" cx="70.7800" cy="48.4802" r="1" fill="#ff0000"/>
  <circle inkscape:label="program_cv" cx="13.5400" cy="62.3150" r="1" fill="#ff0000"/>
  <circle inkscape:label="p1_cv" cx="27.0900" cy="62.3150" r="1" fill="#ff0000"/>
  <circle inkscape:label="p2_cv" cx="40.6400" cy="62.3150" r="1" fill="#ff0000"/>
  <circle inkscape:label="p3_cv" cx="54.1900" cy="62.3150" r="1" fill="#ff0000"/>
  <circle inkscape:label="p4_cv" cx="67.7400" cy="62.3150" r="1" fill="#ff0000"/>
  <circle inkscape:label="program_in" cx="13.5400" cy="76.4368" r="1" fill="#00ff00"/>
  <circle inkscape:label="p1_in" cx="27.0900" cy="76.4368" r="1" fill="#00ff00"/>
  <circle inkscape:label="p2_in" cx="40.6400" cy="76.4368" r="1" fill="#00ff00"/>
  <circle inkscape:label="p3_in" cx="54.1900" cy="76.4368" r="1" fill="#00ff00"/>
  <circle inkscape:label="p4_in" cx="67.7400" cy="76.4368" r="1" fill="#00ff00"/>
  <circle inkscape:label="mix" cx="10.5000" cy="97.1617" r="1" fill="#ff0000"/>
  <circle inkscape:label="mix_cv" cx="22.1481" cy="97.1617" r="1" fill="#ff0000"/>
  <circle inkscape:label="mix_in" cx="32.5862" cy="97.1617" r="1" fill="#00ff00"/>
  <circle inkscape:label="aux_in" cx="43.9542" cy="97.1617" r="1" fill="#00ff00"/>
  <circle inkscape:label="tap_in" cx="55.3223" cy="97.1617" r="1" fill="#00ff00"/>
  <circle inkscape:label="clock_div" cx="70.7800" cy="97.1617" r="1" fill="#ff0000"/>
  <circle inkscape:label="tap_led" cx="61.1119" cy="90.7317" r="1" fill="#ff0000"/>
  <circle inkscape:label="in_l" cx="7.2900" cy="118.6000" r="1" fill="#00ff00"/>
  <circle inkscape:label="in_r" cx="20.6300" cy="118.6000" r="1" fill="#00ff00"/>
  <circle inkscape:label="send" cx="33.9700" cy="118.6000" r="1" fill="#00ff00"/>
  <circle inkscape:label="ret" cx="47.3100" cy="118.6000" r="1" fill="#00ff00"/>
  <circle inkscape:label="out_l" cx="60.6500" cy="118.6000" r="1" fill="#00ff00"/>
  <circle inkscape:label="out_r" cx="73.9900" cy="118.6000" r="1" fill="#00ff00"/>
</g>
</svg>
