<?xml version="1.0" encoding="UTF-8"?>
<svg xmlns="http://www.w3.org/2000/svg" xmlns:inkscape="http://www.inkscape.org/namespaces/inkscape" width="60.9600mm" height="128.5000mm" viewBox="0 0 60.9600 128.5000" version="1.1">
<g inkscape:label="panel" inkscape:groupmode="layer" id="panel">
  <rect x="0" y="0" width="60.9600" height="128.5000" fill="#E4EAE1"/>
  <rect x="0" y="0" width="60.9600" height="9.0000" fill="#181E15"/>
  <path d="M 11.200 1.350 L 11.551 1.593 L 11.901 1.786 L 12.252 1.889 L 12.602 1.882 L 12.953 1.766 L 13.303 1.564 L 13.654 1.319 L 14.004 1.080 L 14.355 0.896 L 14.705 0.806 L 15.056 0.827 L 15.407 0.956 L 15.757 1.165 L 16.108 1.413 L 16.458 1.647 L 16.809 1.821 L 17.159 1.898 L 17.510 1.863 L 17.860 1.722 L 18.211 1.505 L 18.561 1.256 L 18.912 1.027 L 19.263 0.864 L 19.613 0.800 L 19.964 0.850 L 20.314 1.002 L 20.665 1.225 L 21.015 1.475 L 21.366 1.698 L 21.716 1.850 L 22.067 1.900 L 22.417 1.836 L 22.768 1.673 L 23.119 1.444 L 23.469 1.195 L 23.820 0.978 L 24.170 0.837 L 24.521 0.802 L 24.871 0.879 L 25.222 1.053 L 25.572 1.287 L 25.923 1.535 L 26.273 1.744 L 26.624 1.873 L 26.975 1.894 L 27.325 1.804 L 27.676 1.620 L 28.026 1.381 L 28.377 1.136 L 28.727 0.934 L 29.078 0.818 L 29.428 0.811 L 29.779 0.914 L 30.129 1.107 L 30.480 1.350 L 30.831 1.593 L 31.181 1.786 L 31.532 1.889 L 31.882 1.882 L 32.233 1.766 L 32.583 1.564 L 32.934 1.319 L 33.284 1.080 L 33.635 0.896 L 33.985 0.806 L 34.336 0.827 L 34.687 0.956 L 35.037 1.165 L 35.388 1.413 L 35.738 1.647 L 36.089 1.821 L 36.439 1.898 L 36.790 1.863 L 37.140 1.722 L 37.491 1.505 L 37.841 1.256 L 38.192 1.027 L 38.543 0.864 L 38.893 0.800 L 39.244 0.850 L 39.594 1.002 L 39.945 1.225 L 40.295 1.475 L 40.646 1.698 L 40.996 1.850 L 41.347 1.900 L 41.697 1.836 L 42.048 1.673 L 42.399 1.444 L 42.749 1.195 L 43.100 0.978 L 43.450 0.837 L 43.801 0.802 L 44.151 0.879 L 44.502 1.053 L 44.852 1.287 L 45.203 1.535 L 45.553 1.744 L 45.904 1.873 L 46.255 1.894 L 46.605 1.804 L 46.956 1.620 L 47.306 1.381 L 47.657 1.136 L 48.007 0.934 L 48.358 0.818 L 48.708 0.811 L 49.059 0.914 L 49.409 1.107 L 49.760 1.350" fill="none" stroke="#7B9A6D" stroke-width="0.16" stroke-linecap="round" stroke-linejoin="round" stroke-opacity="0.90"/>
  <path d="M 11.200 1.350 L 11.551 1.107 L 11.901 0.914 L 12.252 0.811 L 12.602 0.818 L 12.953 0.934 L 13.303 1.136 L 13.654 1.381 L 14.004 1.620 L 14.355 1.804 L 14.705 1.894 L 15.056 1.873 L 15.407 1.744 L 15.757 1.535 L 16.108 1.287 L 16.458 1.053 L 16.809 0.879 L 17.159 0.802 L 17.510 0.837 L 17.860 0.978 L 18.211 1.195 L 18.561 1.444 L 18.912 1.673 L 19.263 1.836 L 19.613 1.900 L 19.964 1.850 L 20.314 1.698 L 20.665 1.475 L 21.015 1.225 L 21.366 1.002 L 21.716 0.850 L 22.067 0.800 L 22.417 0.864 L 22.768 1.027 L 23.119 1.256 L 23.469 1.505 L 23.820 1.722 L 24.170 1.863 L 24.521 1.898 L 24.871 1.821 L 25.222 1.647 L 25.572 1.413 L 25.923 1.165 L 26.273 0.956 L 26.624 0.827 L 26.975 0.806 L 27.325 0.896 L 27.676 1.080 L 28.026 1.319 L 28.377 1.564 L 28.727 1.766 L 29.078 1.882 L 29.428 1.889 L 29.779 1.786 L 30.129 1.593 L 30.480 1.350 L 30.831 1.107 L 31.181 0.914 L 31.532 0.811 L 31.882 0.818 L 32.233 0.934 L 32.583 1.136 L 32.934 1.381 L 33.284 1.620 L 33.635 1.804 L 33.985 1.894 L 34.336 1.873 L 34.687 1.744 L 35.037 1.535 L 35.388 1.287 L 35.738 1.053 L 36.089 0.879 L 36.439 0.802 L 36.790 0.837 L 37.140 0.978 L 37.491 1.195 L 37.841 1.444 L 38.192 1.673 L 38.543 1.836 L 38.893 1.900 L 39.244 1.850 L 39.594 1.698 L 39.945 1.475 L 40.295 1.225 L 40.646 1.002 L 40.996 0.850 L 41.347 0.800 L 41.697 0.864 L 42.048 1.027 L 42.399 1.256 L 42.749 1.505 L 43.100 1.722 L 43.450 1.863 L 43.801 1.898 L 44.151 1.821 L 44.502 1.647 L 44.852 1.413 L 45.203 1.165 L 45.553 0.956 L 45.904 0.827 L 46.255 0.806 L 46.605 0.896 L 46.956 1.080 L 47.306 1.319 L 47.657 1.564 L 48.007 1.766 L 48.358 1.882 L 48.708 1.889 L 49.059 1.786 L 49.409 1.593 L 49.760 1.350" fill="none" stroke="#7B9A6D" stroke-width="0.16" stroke-linecap="round" stroke-linejoin="round" stroke-opacity="0.90"/>
  <circle cx="11.2000" cy="1.3500" r="0.36" fill="#7B9A6D" fill-opacity="0.90"/>
  <circle cx="49.7600" cy="1.3500" r="0.36" fill="#7B9A6D" fill-opacity="0.90"/>
  <rect x="0" y="8.6500" width="60.9600" height="0.35" fill="#7B9A6D"/>
  <rect x="0" y="111.1000" width="60.9600" height="17.4000" fill="#181E15"/>
  <rect x="0" y="111.1000" width="60.9600" height="0.3" fill="#7B9A6D"/>
  <rect x="2.4000" y="111.1000" width="7.0000" height="0.5000" rx="0.25" fill="#a9bda0"/>
  <path d="M 11.200 126.400 L 11.551 126.643 L 11.901 126.836 L 12.252 126.939 L 12.602 126.932 L 12.953 126.816 L 13.303 126.614 L 13.654 126.369 L 14.004 126.130 L 14.355 125.946 L 14.705 125.856 L 15.056 125.877 L 15.407 126.006 L 15.757 126.215 L 16.108 126.463 L 16.458 126.697 L 16.809 126.871 L 17.159 126.948 L 17.510 126.913 L 17.860 126.772 L 18.211 126.555 L 18.561 126.306 L 18.912 126.077 L 19.263 125.914 L 19.613 125.850 L 19.964 125.900 L 20.314 126.052 L 20.665 126.275 L 21.015 126.525 L 21.366 126.748 L 21.716 126.900 L 22.067 126.950 L 22.417 126.886 L 22.768 126.723 L 23.119 126.494 L 23.469 126.245 L 23.820 126.028 L 24.170 125.887 L 24.521 125.852 L 24.871 125.929 L 25.222 126.103 L 25.572 126.337 L 25.923 126.585 L 26.273 126.794 L 26.624 126.923 L 26.975 126.944 L 27.325 126.854 L 27.676 126.670 L 28.026 126.431 L 28.377 126.186 L 28.727 125.984 L 29.078 125.868 L 29.428 125.861 L 29.779 125.964 L 30.129 126.157 L 30.480 126.400 L 30.831 126.643 L 31.181 126.836 L 31.532 126.939 L 31.882 126.932 L 32.233 126.816 L 32.583 126.614 L 32.934 126.369 L 33.284 126.130 L 33.635 125.946 L 33.985 125.856 L 34.336 125.877 L 34.687 126.006 L 35.037 126.215 L 35.388 126.463 L 35.738 126.697 L 36.089 126.871 L 36.439 126.948 L 36.790 126.913 L 37.140 126.772 L 37.491 126.555 L 37.841 126.306 L 38.192 126.077 L 38.543 125.914 L 38.893 125.850 L 39.244 125.900 L 39.594 126.052 L 39.945 126.275 L 40.295 126.525 L 40.646 126.748 L 40.996 126.900 L 41.347 126.950 L 41.697 126.886 L 42.048 126.723 L 42.399 126.494 L 42.749 126.245 L 43.100 126.028 L 43.450 125.887 L 43.801 125.852 L 44.151 125.929 L 44.502 126.103 L 44.852 126.337 L 45.203 126.585 L 45.553 126.794 L 45.904 126.923 L 46.255 126.944 L 46.605 126.854 L 46.956 126.670 L 47.306 126.431 L 47.657 126.186 L 48.007 125.984 L 48.358 125.868 L 48.708 125.861 L 49.059 125.964 L 49.409 126.157 L 49.760 126.400" fill="none" stroke="#7B9A6D" stroke-width="0.16" stroke-linecap="round" stroke-linejoin="round" stroke-opacity="0.90"/>
  <path d="M 11.200 126.400 L 11.551 126.157 L 11.901 125.964 L 12.252 125.861 L 12.602 125.868 L 12.953 125.984 L 13.303 126.186 L 13.654 126.431 L 14.004 126.670 L 14.355 126.854 L 14.705 126.944 L 15.056 126.923 L 15.407 126.794 L 15.757 126.585 L 16.108 126.337 L 16.458 126.103 L 16.809 125.929 L 17.159 125.852 L 17.510 125.887 L 17.860 126.028 L 18.211 126.245 L 18.561 126.494 L 18.912 126.723 L 19.263 126.886 L 19.613 126.950 L 19.964 126.900 L 20.314 126.748 L 20.665 126.525 L 21.015 126.275 L 21.366 126.052 L 21.716 125.900 L 22.067 125.850 L 22.417 125.914 L 22.768 126.077 L 23.119 126.306 L 23.469 126.555 L 23.820 126.772 L 24.170 126.913 L 24.521 126.948 L 24.871 126.871 L 25.222 126.697 L 25.572 126.463 L 25.923 126.215 L 26.273 126.006 L 26.624 125.877 L 26.975 125.856 L 27.325 125.946 L 27.676 126.130 L 28.026 126.369 L 28.377 126.614 L 28.727 126.816 L 29.078 126.932 L 29.428 126.939 L 29.779 126.836 L 30.129 126.643 L 30.480 126.400 L 30.831 126.157 L 31.181 125.964 L 31.532 125.861 L 31.882 125.868 L 32.233 125.984 L 32.583 126.186 L 32.934 126.431 L 33.284 126.670 L 33.635 126.854 L 33.985 126.944 L 34.336 126.923 L 34.687 126.794 L 35.037 126.585 L 35.388 126.337 L 35.738 126.103 L 36.089 125.929 L 36.439 125.852 L 36.790 125.887 L 37.140 126.028 L 37.491 126.245 L 37.841 126.494 L 38.192 126.723 L 38.543 126.886 L 38.893 126.950 L 39.244 126.900 L 39.594 126.748 L 39.945 126.525 L 40.295 126.275 L 40.646 126.052 L 40.996 125.900 L 41.347 125.850 L 41.697 125.914 L 42.048 126.077 L 42.399 126.306 L 42.749 126.555 L 43.100 126.772 L 43.450 126.913 L 43.801 126.948 L 44.151 126.871 L 44.502 126.697 L 44.852 126.463 L 45.203 126.215 L 45.553 126.006 L 45.904 125.877 L 46.255 125.856 L 46.605 125.946 L 46.956 126.130 L 47.306 126.369 L 47.657 126.614 L 48.007 126.816 L 48.358 126.932 L 48.708 126.939 L 49.059 126.836 L 49.409 126.643 L 49.760 126.400" fill="none" stroke="#7B9A6D" stroke-width="0.16" stroke-linecap="round" stroke-linejoin="round" stroke-opacity="0.90"/>
  <circle cx="11.2000" cy="126.4000" r="0.36" fill="#7B9A6D" fill-opacity="0.90"/>
  <circle cx="49.7600" cy="126.4000" r="0.36" fill="#7B9A6D" fill-opacity="0.90"/>
  <path d="M 1.250 10.400 L 1.431 10.750 L 1.587 11.101 L 1.698 11.451 L 1.748 11.801 L 1.731 12.152 L 1.649 12.502 L 1.513 12.853 L 1.342 13.203 L 1.158 13.553 L 0.987 13.904 L 0.851 14.254 L 0.769 14.604 L 0.752 14.955 L 0.802 15.305 L 0.913 15.655 L 1.069 16.006 L 1.250 16.356 L 1.431 16.707 L 1.587 17.057 L 1.698 17.407 L 1.748 17.758 L 1.731 18.108 L 1.649 18.458 L 1.513 18.809 L 1.342 19.159 L 1.158 19.510 L 0.987 19.860 L 0.851 20.210 L 0.769 20.561 L 0.752 20.911 L 0.802 21.261 L 0.913 21.612 L 1.069 21.962 L 1.250 22.312 L 1.431 22.663 L 1.587 23.013 L 1.698 23.364 L 1.748 23.714 L 1.731 24.064 L 1.649 24.415 L 1.513 24.765 L 1.342 25.115 L 1.158 25.466 L 0.987 25.816 L 0.851 26.166 L 0.769 26.517 L 0.752 26.867 L 0.802 27.218 L 0.913 27.568 L 1.069 27.918 L 1.250 28.269" fill="none" stroke="#7B9A6D" stroke-width="0.16" stroke-linecap="round" stroke-linejoin="round" stroke-opacity="0.55"/>
  <path d="M 1.250 10.400 L 1.069 10.750 L 0.913 11.101 L 0.802 11.451 L 0.752 11.801 L 0.769 12.152 L 0.851 12.502 L 0.987 12.853 L 1.158 13.203 L 1.342 13.553 L 1.513 13.904 L 1.649 14.254 L 1.731 14.604 L 1.748 14.955 L 1.698 15.305 L 1.587 15.655 L 1.431 16.006 L 1.250 16.356 L 1.069 16.707 L 0.913 17.057 L 0.802 17.407 L 0.752 17.758 L 0.769 18.108 L 0.851 18.458 L 0.987 18.809 L 1.158 19.159 L 1.342 19.510 L 1.513 19.860 L 1.649 20.210 L 1.731 20.561 L 1.748 20.911 L 1.698 21.261 L 1.587 21.612 L 1.431 21.962 L 1.250 22.312 L 1.069 22.663 L 0.913 23.013 L 0.802 23.364 L 0.752 23.714 L 0.769 24.064 L 0.851 24.415 L 0.987 24.765 L 1.158 25.115 L 1.342 25.466 L 1.513 25.816 L 1.649 26.166 L 1.731 26.517 L 1.748 26.867 L 1.698 27.218 L 1.587 27.568 L 1.431 27.918 L 1.250 28.269" fill="none" stroke="#7B9A6D" stroke-width="0.16" stroke-linecap="round" stroke-linejoin="round" stroke-opacity="0.55"/>
  <circle cx="1.2500" cy="10.4000" r="0.36" fill="#7B9A6D" fill-opacity="0.55"/>
  <circle cx="1.2500" cy="28.2686" r="0.36" fill="#7B9A6D" fill-opacity="0.55"/>
  <path d="M 1.250 48.862 L 1.428 49.213 L 1.582 49.565 L 1.693 49.917 L 1.747 50.268 L 1.735 50.620 L 1.660 50.972 L 1.532 51.323 L 1.367 51.675 L 1.187 52.027 L 1.015 52.378 L 0.873 52.730 L 0.781 53.082 L 0.750 53.433 L 0.784 53.785 L 0.879 54.137 L 1.023 54.488 L 1.196 54.840 L 1.376 55.192 L 1.539 55.543 L 1.665 55.895 L 1.737 56.247 L 1.745 56.598 L 1.689 56.950 L 1.575 57.302 L 1.419 57.653 L 1.241 58.005 L 1.064 58.357 L 0.911 58.708 L 0.803 59.060 L 0.752 59.412 L 0.767 59.763 L 0.845 60.115 L 0.976 60.467 L 1.142 60.818 L 1.322 61.170 L 1.493 61.522 L 1.633 61.873 L 1.722 62.225 L 1.750 62.577 L 1.712 62.928 L 1.615 63.280 L 1.469 63.632 L 1.295 63.983 L 1.115 64.335 L 0.953 64.687 L 0.830 65.038 L 0.761 65.390 L 0.756 65.742 L 0.815 66.093 L 0.932 66.445 L 1.089 66.797 L 1.268 67.148 L 1.444 67.500 L 1.595 67.852 L 1.701 68.203 L 1.748 68.555 L 1.730 68.907 L 1.650 69.258 L 1.517 69.610 L 1.349 69.962 L 1.169 70.313 L 0.999 70.665 L 0.862 71.017 L 0.775 71.368 L 0.751 71.720 L 0.791 72.072 L 0.892 72.423 L 1.039 72.775 L 1.214 73.127 L 1.393 73.478 L 1.554 73.830 L 1.675 74.182 L 1.741 74.533 L 1.743 74.885 L 1.680 75.237 L 1.561 75.588 L 1.402 75.940 L 1.223 76.292 L 1.047 76.643 L 0.898 76.995 L 0.795 77.347 L 0.751 77.698 L 0.772 78.050 L 0.856 78.402 L 0.991 78.753 L 1.160 79.105 L 1.340 79.457 L 1.509 79.808 L 1.644 80.160 L 1.728 80.512 L 1.749 80.863 L 1.705 81.215 L 1.602 81.567 L 1.453 81.918 L 1.277 82.270 L 1.098 82.622 L 0.939 82.973 L 0.820 83.325 L 0.757 83.677 L 0.759 84.028 L 0.825 84.380 L 0.946 84.732 L 1.107 85.083 L 1.286 85.435 L 1.461 85.787 L 1.608 86.138 L 1.709 86.490 L 1.749 86.842 L 1.725 87.193 L 1.638 87.545 L 1.501 87.897 L 1.331 88.248 L 1.151 88.600 L 0.983 88.952 L 0.850 89.303 L 0.770 89.655 L 0.752 90.007 L 0.799 90.358 L 0.905 90.710 L 1.056 91.062 L 1.232 91.413 L 1.411 91.765 L 1.568 92.117 L 1.685 92.468 L 1.744 92.820 L 1.739 93.172 L 1.670 93.523 L 1.547 93.875 L 1.385 94.227 L 1.205 94.578 L 1.031 94.930 L 0.885 95.282 L 0.788 95.633 L 0.750 95.985 L 0.778 96.337 L 0.867 96.688 L 1.007 97.040 L 1.178 97.392 L 1.358 97.743 L 1.524 98.095 L 1.655 98.447 L 1.733 98.798 L 1.748 99.150 L 1.697 99.502 L 1.589 99.853 L 1.436 100.205 L 1.259 100.557 L 1.081 100.908 L 0.925 101.260 L 0.811 101.612 L 0.755 101.963 L 0.763 102.315 L 0.835 102.667 L 0.961 103.018 L 1.124 103.370 L 1.304 103.722 L 1.477 104.073 L 1.621 104.425 L 1.716 104.777 L 1.750 105.128 L 1.719 105.480 L 1.627 105.832 L 1.485 106.183 L 1.313 106.535 L 1.133 106.887 L 0.968 107.238 L 0.840 107.590 L 0.765 107.942 L 0.753 108.293 L 0.807 108.645 L 0.918 108.997 L 1.072 109.348 L 1.250 109.700" fill="none" stroke="#7B9A6D" stroke-width="0.16" stroke-linecap="round" stroke-linejoin="round" stroke-opacity="0.55"/>
  <path d="M 1.250 48.862 L 1.072 49.213 L 0.918 49.565 L 0.807 49.917 L 0.753 50.268 L 0.765 50.620 L 0.840 50.972 L 0.968 51.323 L 1.133 51.675 L 1.313 52.027 L 1.485 52.378 L 1.627 52.730 L 1.719 53.082 L 1.750 53.433 L 1.716 53.785 L 1.621 54.137 L 1.477 54.488 L 1.304 54.840 L 1.124 55.192 L 0.961 55.543 L 0.835 55.895 L 0.763 56.247 L 0.755 56.598 L 0.811 56.950 L 0.925 57.302 L 1.081 57.653 L 1.259 58.005 L 1.436 58.357 L 1.589 58.708 L 1.697 59.060 L 1.748 59.412 L 1.733 59.763 L 1.655 60.115 L 1.524 60.467 L 1.358 60.818 L 1.178 61.170 L 1.007 61.522 L 0.867 61.873 L 0.778 62.225 L 0.750 62.577 L 0.788 62.928 L 0.885 63.280 L 1.031 63.632 L 1.205 63.983 L 1.385 64.335 L 1.547 64.687 L 1.670 65.038 L 1.739 65.390 L 1.744 65.742 L 1.685 66.093 L 1.568 66.445 L 1.411 66.797 L 1.232 67.148 L 1.056 67.500 L 0.905 67.852 L 0.799 68.203 L 0.752 68.555 L 0.770 68.907 L 0.850 69.258 L 0.983 69.610 L 1.151 69.962 L 1.331 70.313 L 1.501 70.665 L 1.638 71.017 L 1.725 71.368 L 1.749 71.720 L 1.709 72.072 L 1.608 72.423 L 1.461 72.775 L 1.286 73.127 L 1.107 73.478 L 0.946 73.830 L 0.825 74.182 L 0.759 74.533 L 0.757 74.885 L 0.820 75.237 L 0.939 75.588 L 1.098 75.940 L 1.277 76.292 L 1.453 76.643 L 1.602 76.995 L 1.705 77.347 L 1.749 77.698 L 1.728 78.050 L 1.644 78.402 L 1.509 78.753 L 1.340 79.105 L 1.160 79.457 L 0.991 79.808 L 0.856 80.160 L 0.772 80.512 L 0.751 80.863 L 0.795 81.215 L 0.898 81.567 L 1.047 81.918 L 1.223 82.270 L 1.402 82.622 L 1.561 82.973 L 1.680 83.325 L 1.743 83.677 L 1.741 84.028 L 1.675 84.380 L 1.554 84.732 L 1.393 85.083 L 1.214 85.435 L 1.039 85.787 L 0.892 86.138 L 0.791 86.490 L 0.751 86.842 L 0.775 87.193 L 0.862 87.545 L 0.999 87.897 L 1.169 88.248 L 1.349 88.600 L 1.517 88.952 L 1.650 89.303 L 1.730 89.655 L 1.748 90.007 L 1.701 90.358 L 1.595 90.710 L 1.444 91.062 L 1.268 91.413 L 1.089 91.765 L 0.932 92.117 L 0.815 92.468 L 0.756 92.820 L 0.761 93.172 L 0.830 93.523 L 0.953 93.875 L 1.115 94.227 L 1.295 94.578 L 1.469 94.930 L 1.615 95.282 L 1.712 95.633 L 1.750 95.985 L 1.722 96.337 L 1.633 96.688 L 1.493 97.040 L 1.322 97.392 L 1.142 97.743 L 0.976 98.095 L 0.845 98.447 L 0.767 98.798 L 0.752 99.150 L 0.803 99.502 L 0.911 99.853 L 1.064 100.205 L 1.241 100.557 L 1.419 100.908 L 1.575 101.260 L 1.689 101.612 L 1.745 101.963 L 1.737 102.315 L 1.665 102.667 L 1.539 103.018 L 1.376 103.370 L 1.196 103.722 L 1.023 104.073 L 0.879 104.425 L 0.784 104.777 L 0.750 105.128 L 0.781 105.480 L 0.873 105.832 L 1.015 106.183 L 1.187 106.535 L 1.367 106.887 L 1.532 107.238 L 1.660 107.590 L 1.735 107.942 L 1.747 108.293 L 1.693 108.645 L 1.582 108.997 L 1.428 109.348 L 1.250 109.700" fill="none" stroke="#7B9A6D" stroke-width="0.16" stroke-linecap="round" stroke-linejoin="round" stroke-opacity="0.55"/>
  <circle cx="1.2500" cy="48.8618" r="0.36" fill="#7B9A6D" fill-opacity="0.55"/>
  <circle cx="1.2500" cy="109.7000" r="0.36" fill="#7B9A6D" fill-opacity="0.55"/>
  <path d="M 59.710 10.400 L 59.899 10.755 L 60.059 11.110 L 60.168 11.465 L 60.210 11.820 L 60.178 12.175 L 60.076 12.530 L 59.921 12.886 L 59.734 13.241 L 59.544 13.596 L 59.378 13.951 L 59.262 14.306 L 59.211 14.661 L 59.234 15.016 L 59.328 15.371 L 59.478 15.726 L 59.662 16.081 L 59.853 16.436 L 60.023 16.791 L 60.147 17.146 L 60.206 17.501 L 60.192 17.857 L 60.107 18.212 L 59.963 18.567 L 59.782 18.922 L 59.590 19.277 L 59.416 19.632 L 59.285 19.987 L 59.217 20.342 L 59.222 20.697 L 59.299 21.052 L 59.436 21.407 L 59.614 21.762 L 59.806 22.117 L 59.984 22.472 L 60.121 22.828 L 60.198 23.183 L 60.203 23.538 L 60.135 23.893 L 60.004 24.248 L 59.830 24.603 L 59.638 24.958 L 59.457 25.313 L 59.313 25.668 L 59.228 26.023 L 59.214 26.378 L 59.273 26.733 L 59.397 27.088 L 59.567 27.444 L 59.758 27.799 L 59.942 28.154 L 60.092 28.509 L 60.186 28.864 L 60.209 29.219 L 60.158 29.574 L 60.042 29.929 L 59.876 30.284 L 59.686 30.639 L 59.499 30.994 L 59.344 31.349 L 59.242 31.704 L 59.210 32.059 L 59.252 32.415 L 59.361 32.770 L 59.521 33.125 L 59.710 33.480" fill="none" stroke="#7B9A6D" stroke-width="0.16" stroke-linecap="round" stroke-linejoin="round" stroke-opacity="0.55"/>
  <path d="M 59.710 10.400 L 59.521 10.755 L 59.361 11.110 L 59.252 11.465 L 59.210 11.820 L 59.242 12.175 L 59.344 12.530 L 59.499 12.886 L 59.686 13.241 L 59.876 13.596 L 60.042 13.951 L 60.158 14.306 L 60.209 14.661 L 60.186 15.016 L 60.092 15.371 L 59.942 15.726 L 59.758 16.081 L 59.567 16.436 L 59.397 16.791 L 59.273 17.146 L 59.214 17.501 L 59.228 17.857 L 59.313 18.212 L 59.457 18.567 L 59.638 18.922 L 59.830 19.277 L 60.004 19.632 L 60.135 19.987 L 60.203 20.342 L 60.198 20.697 L 60.121 21.052 L 59.984 21.407 L 59.806 21.762 L 59.614 22.117 L 59.436 22.472 L 59.299 22.828 L 59.222 23.183 L 59.217 23.538 L 59.285 23.893 L 59.416 24.248 L 59.590 24.603 L 59.782 24.958 L 59.963 25.313 L 60.107 25.668 L 60.192 26.023 L 60.206 26.378 L 60.147 26.733 L 60.023 27.088 L 59.853 27.444 L 59.662 27.799 L 59.478 28.154 L 59.328 28.509 L 59.234 28.864 L 59.211 29.219 L 59.262 29.574 L 59.378 29.929 L 59.544 30.284 L 59.734 30.639 L 59.921 30.994 L 60.076 31.349 L 60.178 31.704 L 60.210 32.059 L 60.168 32.415 L 60.059 32.770 L 59.899 33.125 L 59.710 33.480" fill="none" stroke="#7B9A6D" stroke-width="0.16" stroke-linecap="round" stroke-linejoin="round" stroke-opacity="0.55"/>
  <circle cx="59.7100" cy="10.4000" r="0.36" fill="#7B9A6D" fill-opacity="0.55"/>
  <circle cx="59.7100" cy="33.4798" r="0.36" fill="#7B9A6D" fill-opacity="0.55"/>
  <path d="M 59.710 47.652 L 59.884 48.002 L 60.036 48.353 L 60.147 48.703 L 60.204 49.054 L 60.200 49.405 L 60.134 49.755 L 60.015 50.106 L 59.859 50.456 L 59.683 50.807 L 59.512 51.157 L 59.364 51.508 L 59.260 51.858 L 59.212 52.209 L 59.226 52.560 L 59.301 52.910 L 59.426 53.261 L 59.587 53.611 L 59.763 53.962 L 59.933 54.312 L 60.074 54.663 L 60.171 55.013 L 60.210 55.364 L 60.186 55.715 L 60.103 56.065 L 59.971 56.416 L 59.807 56.766 L 59.630 57.117 L 59.464 57.467 L 59.328 57.818 L 59.240 58.168 L 59.210 58.519 L 59.243 58.870 L 59.334 59.220 L 59.472 59.571 L 59.639 59.921 L 59.816 60.272 L 59.979 60.622 L 60.109 60.973 L 60.189 61.323 L 60.209 61.674 L 60.167 62.025 L 60.068 62.375 L 59.925 62.726 L 59.754 63.076 L 59.578 63.427 L 59.419 63.777 L 59.296 64.128 L 59.224 64.478 L 59.213 64.829 L 59.264 65.180 L 59.371 65.530 L 59.520 65.881 L 59.692 66.231 L 59.867 66.582 L 60.022 66.932 L 60.139 67.283 L 60.201 67.633 L 60.203 67.984 L 60.143 68.335 L 60.029 68.685 L 59.875 69.036 L 59.701 69.386 L 59.528 69.737 L 59.377 70.087 L 59.268 70.438 L 59.214 70.788 L 59.222 71.139 L 59.291 71.490 L 59.412 71.840 L 59.570 72.191 L 59.745 72.541 L 59.917 72.892 L 60.062 73.242 L 60.163 73.593 L 60.208 73.943 L 60.191 74.294 L 60.114 74.645 L 59.986 74.995 L 59.824 75.346 L 59.648 75.696 L 59.479 76.047 L 59.340 76.397 L 59.246 76.748 L 59.210 77.098 L 59.237 77.449 L 59.322 77.800 L 59.456 78.150 L 59.622 78.501 L 59.798 78.851 L 59.964 79.202 L 60.098 79.552 L 60.183 79.903 L 60.210 80.253 L 60.174 80.604 L 60.080 80.955 L 59.941 81.305 L 59.772 81.656 L 59.596 82.006 L 59.434 82.357 L 59.306 82.707 L 59.229 83.058 L 59.212 83.408 L 59.257 83.759 L 59.358 84.110 L 59.503 84.460 L 59.675 84.811 L 59.850 85.161 L 60.008 85.512 L 60.129 85.862 L 60.198 86.213 L 60.206 86.563 L 60.152 86.914 L 60.043 87.264 L 59.892 87.615 L 59.719 87.966 L 59.545 88.316 L 59.391 88.667 L 59.277 89.017 L 59.217 89.368 L 59.219 89.718 L 59.281 90.069 L 59.398 90.419 L 59.553 90.770 L 59.728 91.121 L 59.900 91.471 L 60.049 91.822 L 60.156 92.172 L 60.207 92.523 L 60.196 92.873 L 60.124 93.224 L 60.001 93.574 L 59.842 93.925 L 59.666 94.276 L 59.495 94.626 L 59.352 94.977 L 59.253 95.327 L 59.211 95.678 L 59.231 96.028 L 59.311 96.379 L 59.441 96.729 L 59.604 97.080 L 59.781 97.431 L 59.948 97.781 L 60.086 98.132 L 60.177 98.482 L 60.210 98.833 L 60.180 99.183 L 60.092 99.534 L 59.956 99.884 L 59.790 100.235 L 59.613 100.586 L 59.449 100.936 L 59.317 101.287 L 59.234 101.637 L 59.210 101.988 L 59.249 102.338 L 59.346 102.689 L 59.487 103.039 L 59.657 103.390 L 59.833 103.741 L 59.994 104.091 L 60.119 104.442 L 60.194 104.792 L 60.208 105.143 L 60.160 105.493 L 60.056 105.844 L 59.908 106.194 L 59.737 106.545 L 59.561 106.896 L 59.405 107.246 L 59.286 107.597 L 59.220 107.947 L 59.216 108.298 L 59.273 108.648 L 59.384 108.999 L 59.536 109.349 L 59.710 109.700" fill="none" stroke="#7B9A6D" stroke-width="0.16" stroke-linecap="round" stroke-linejoin="round" stroke-opacity="0.55"/>
  <path d="M 59.710 47.652 L 59.536 48.002 L 59.384 48.353 L 59.273 48.703 L 59.216 49.054 L 59.220 49.405 L 59.286 49.755 L 59.405 50.106 L 59.561 50.456 L 59.737 50.807 L 59.908 51.157 L 60.056 51.508 L 60.160 51.858 L 60.208 52.209 L 60.194 52.560 L 60.119 52.910 L 59.994 53.261 L 59.833 53.611 L 59.657 53.962 L 59.487 54.312 L 59.346 54.663 L 59.249 55.013 L 59.210 55.364 L 59.234 55.715 L 59.317 56.065 L 59.449 56.416 L 59.613 56.766 L 59.790 57.117 L 59.956 57.467 L 60.092 57.818 L 60.180 58.168 L 60.210 58.519 L 60.177 58.870 L 60.086 59.220 L 59.948 59.571 L 59.781 59.921 L 59.604 60.272 L 59.441 60.622 L 59.311 60.973 L 59.231 61.323 L 59.211 61.674 L 59.253 62.025 L 59.352 62.375 L 59.495 62.726 L 59.666 63.076 L 59.842 63.427 L 60.001 63.777 L 60.124 64.128 L 60.196 64.478 L 60.207 64.829 L 60.156 65.180 L 60.049 65.530 L 59.900 65.881 L 59.728 66.231 L 59.553 66.582 L 59.398 66.932 L 59.281 67.283 L 59.219 67.633 L 59.217 67.984 L 59.277 68.335 L 59.391 68.685 L 59.545 69.036 L 59.719 69.386 L 59.892 69.737 L 60.043 70.087 L 60.152 70.438 L 60.206 70.788 L 60.198 71.139 L 60.129 71.490 L 60.008 71.840 L 59.850 72.191 L 59.675 72.541 L 59.503 72.892 L 59.358 73.242 L 59.257 73.593 L 59.212 73.943 L 59.229 74.294 L 59.306 74.645 L 59.434 74.995 L 59.596 75.346 L 59.772 75.696 L 59.941 76.047 L 60.080 76.397 L 60.174 76.748 L 60.210 77.098 L 60.183 77.449 L 60.098 77.800 L 59.964 78.150 L 59.798 78.501 L 59.622 78.851 L 59.456 79.202 L 59.322 79.552 L 59.237 79.903 L 59.210 80.253 L 59.246 80.604 L 59.340 80.955 L 59.479 81.305 L 59.648 81.656 L 59.824 82.006 L 59.986 82.357 L 60.114 82.707 L 60.191 83.058 L 60.208 83.408 L 60.163 83.759 L 60.062 84.110 L 59.917 84.460 L 59.745 84.811 L 59.570 85.161 L 59.412 85.512 L 59.291 85.862 L 59.222 86.213 L 59.214 86.563 L 59.268 86.914 L 59.377 87.264 L 59.528 87.615 L 59.701 87.966 L 59.875 88.316 L 60.029 88.667 L 60.143 89.017 L 60.203 89.368 L 60.201 89.718 L 60.139 90.069 L 60.022 90.419 L 59.867 90.770 L 59.692 91.121 L 59.520 91.471 L 59.371 91.822 L 59.264 92.172 L 59.213 92.523 L 59.224 92.873 L 59.296 93.224 L 59.419 93.574 L 59.578 93.925 L 59.754 94.276 L 59.925 94.626 L 60.068 94.977 L 60.167 95.327 L 60.209 95.678 L 60.189 96.028 L 60.109 96.379 L 59.979 96.729 L 59.816 97.080 L 59.639 97.431 L 59.472 97.781 L 59.334 98.132 L 59.243 98.482 L 59.210 98.833 L 59.240 99.183 L 59.328 99.534 L 59.464 99.884 L 59.630 100.235 L 59.807 100.586 L 59.971 100.936 L 60.103 101.287 L 60.186 101.637 L 60.210 101.988 L 60.171 102.338 L 60.074 102.689 L 59.933 103.039 L 59.763 103.390 L 59.587 103.741 L 59.426 104.091 L 59.301 104.442 L 59.226 104.792 L 59.212 105.143 L 59.260 105.493 L 59.364 105.844 L 59.512 106.194 L 59.683 106.545 L 59.859 106.896 L 60.015 107.246 L 60.134 107.597 L 60.200 107.947 L 60.204 108.298 L 60.147 108.648 L 60.036 108.999 L 59.884 109.349 L 59.710 109.700" fill="none" stroke="#7B9A6D" stroke-width="0.16" stroke-linecap="round" stroke-linejoin="round" stroke-opacity="0.55"/>
  <circle cx="59.7100" cy="47.6518" r="0.36" fill="#7B9A6D" fill-opacity="0.55"/>
  <circle cx="59.7100" cy="109.7000" r="0.36" fill="#7B9A6D" fill-opacity="0.55"/>
  <rect x="3.6" y="9.8000" width="53.7600" height="32.0000" rx="1.20" fill="#1B151E" stroke="#7B9A6D" stroke-width="0.3"/>
  <rect x="2.4000" y="42.8000" width="56.1600" height="20.0587" rx="1.60" fill="#E7E1EA" stroke="#7B9A6D" stroke-width="0.22"/>
  <rect x="2.4000" y="42.8000" width="7.0000" height="0.5000" rx="0.25" fill="#181E15"/>
  <path d="M 58.110 43.850 L 58.073 43.682 L 57.991 43.534 L 57.872 43.419 L 57.729 43.345 L 57.573 43.315 L 57.420 43.332 L 57.280 43.390 L 57.167 43.484 L 57.087 43.604 L 57.046 43.739 L 57.046 43.876 L 57.084 44.003 L 57.156 44.111 L 57.253 44.192 L 57.366 44.240 L 57.485 44.252 L 57.598 44.231 L 57.698 44.179 L 57.775 44.103 L 57.825 44.011 L 57.846 43.911 L 57.837 43.814 L 57.802 43.726 L 57.745 43.656 L 57.673 43.607 L 57.592 43.582 L 57.512 43.582 L 57.439 43.605 L 57.378 43.646 L 57.334 43.700 L 57.310 43.762 L 57.305 43.824 L 57.319 43.882 L 57.347 43.930 L 57.386 43.965 L 57.430 43.985 L 57.475 43.991 L 57.516 43.982 L 57.550 43.964 L 57.573 43.937" fill="none" stroke="#7B9A6D" stroke-width="0.16" stroke-linecap="round" stroke-linejoin="round"/>
  <circle cx="57.5735" cy="43.9374" r="0.22" fill="#7B9A6D"/>
  <path d="M 2.850 61.809 L 2.887 61.977 L 2.969 62.125 L 3.088 62.240 L 3.231 62.314 L 3.387 62.343 L 3.540 62.327 L 3.680 62.268 L 3.793 62.174 L 3.873 62.054 L 3.914 61.920 L 3.914 61.783 L 3.876 61.655 L 3.804 61.547 L 3.707 61.467 L 3.594 61.419 L 3.475 61.406 L 3.362 61.428 L 3.262 61.480 L 3.185 61.556 L 3.135 61.648 L 3.114 61.747 L 3.123 61.845 L 3.158 61.932 L 3.215 62.003 L 3.287 62.052 L 3.368 62.077 L 3.448 62.077 L 3.521 62.054 L 3.582 62.013 L 3.626 61.959 L 3.650 61.897 L 3.655 61.835 L 3.641 61.777 L 3.613 61.729 L 3.574 61.694 L 3.530 61.673 L 3.485 61.668 L 3.444 61.676 L 3.410 61.695 L 3.387 61.721" fill="none" stroke="#7B9A6D" stroke-width="0.16" stroke-linecap="round" stroke-linejoin="round"/>
  <circle cx="3.3865" cy="61.7213" r="0.22" fill="#7B9A6D"/>
  <path d="M 58.110 61.809 L 58.073 61.977 L 57.991 62.125 L 57.872 62.240 L 57.729 62.314 L 57.573 62.343 L 57.420 62.327 L 57.280 62.268 L 57.167 62.174 L 57.087 62.054 L 57.046 61.920 L 57.046 61.783 L 57.084 61.655 L 57.156 61.547 L 57.253 61.467 L 57.366 61.419 L 57.485 61.406 L 57.598 61.428 L 57.698 61.480 L 57.775 61.556 L 57.825 61.648 L 57.846 61.747 L 57.837 61.845 L 57.802 61.932 L 57.745 62.003 L 57.673 62.052 L 57.592 62.077 L 57.512 62.077 L 57.439 62.054 L 57.378 62.013 L 57.334 61.959 L 57.310 61.897 L 57.305 61.835 L 57.319 61.777 L 57.347 61.729 L 57.386 61.694 L 57.430 61.673 L 57.475 61.668 L 57.516 61.676 L 57.550 61.695 L 57.573 61.721" fill="none" stroke="#7B9A6D" stroke-width="0.16" stroke-linecap="round" stroke-linejoin="round"/>
  <circle cx="57.5735" cy="61.7213" r="0.22" fill="#7B9A6D"/>
  <rect x="2.4000" y="63.9587" width="56.1600" height="46.5456" rx="1.60" fill="#E7E1EA" stroke="#7B9A6D" stroke-width="0.22"/>
  <rect x="2.4000" y="63.9587" width="7.0000" height="0.5000" rx="0.25" fill="#181E15"/>
  <path d="M 58.110 65.009 L 58.073 64.840 L 57.991 64.693 L 57.872 64.578 L 57.729 64.503 L 57.573 64.474 L 57.420 64.490 L 57.280 64.549 L 57.167 64.643 L 57.087 64.763 L 57.046 64.897 L 57.046 65.034 L 57.084 65.162 L 57.156 65.270 L 57.253 65.351 L 57.366 65.399 L 57.485 65.411 L 57.598 65.389 L 57.698 65.338 L 57.775 65.262 L 57.825 65.169 L 57.846 65.070 L 57.837 64.973 L 57.802 64.885 L 57.745 64.814 L 57.673 64.765 L 57.592 64.741 L 57.512 64.741 L 57.439 64.763 L 57.378 64.804 L 57.334 64.859 L 57.310 64.920 L 57.305 64.983 L 57.319 65.041 L 57.347 65.089 L 57.386 65.124 L 57.430 65.144 L 57.475 65.149 L 57.516 65.141 L 57.550 65.122 L 57.573 65.096" fill="none" stroke="#7B9A6D" stroke-width="0.16" stroke-linecap="round" stroke-linejoin="round"/>
  <circle cx="57.5735" cy="65.0961" r="0.22" fill="#7B9A6D"/>
  <path d="M 2.850 109.454 L 2.887 109.623 L 2.969 109.770 L 3.088 109.885 L 3.231 109.960 L 3.387 109.989 L 3.540 109.973 L 3.680 109.914 L 3.793 109.820 L 3.873 109.700 L 3.914 109.566 L 3.914 109.429 L 3.876 109.301 L 3.804 109.193 L 3.707 109.112 L 3.594 109.064 L 3.475 109.052 L 3.362 109.073 L 3.262 109.125 L 3.185 109.201 L 3.135 109.294 L 3.114 109.393 L 3.123 109.490 L 3.158 109.578 L 3.215 109.649 L 3.287 109.697 L 3.368 109.722 L 3.448 109.722 L 3.521 109.700 L 3.582 109.659 L 3.626 109.604 L 3.650 109.543 L 3.655 109.480 L 3.641 109.422 L 3.613 109.374 L 3.574 109.339 L 3.530 109.319 L 3.485 109.314 L 3.444 109.322 L 3.410 109.341 L 3.387 109.367" fill="none" stroke="#7B9A6D" stroke-width="0.16" stroke-linecap="round" stroke-linejoin="round"/>
  <circle cx="3.3865" cy="109.3669" r="0.22" fill="#7B9A6D"/>
  <path d="M 58.110 109.454 L 58.073 109.623 L 57.991 109.770 L 57.872 109.885 L 57.729 109.960 L 57.573 109.989 L 57.420 109.973 L 57.280 109.914 L 57.167 109.820 L 57.087 109.700 L 57.046 109.566 L 57.046 109.429 L 57.084 109.301 L 57.156 109.193 L 57.253 109.112 L 57.366 109.064 L 57.485 109.052 L 57.598 109.073 L 57.698 109.125 L 57.775 109.201 L 57.825 109.294 L 57.846 109.393 L 57.837 109.490 L 57.802 109.578 L 57.745 109.649 L 57.673 109.697 L 57.592 109.722 L 57.512 109.722 L 57.439 109.700 L 57.378 109.659 L 57.334 109.604 L 57.310 109.543 L 57.305 109.480 L 57.319 109.422 L 57.347 109.374 L 57.386 109.339 L 57.430 109.319 L 57.475 109.314 L 57.516 109.322 L 57.550 109.341 L 57.573 109.367" fill="none" stroke="#7B9A6D" stroke-width="0.16" stroke-linecap="round" stroke-linejoin="round"/>
  <circle cx="57.5735" cy="109.3669" r="0.22" fill="#7B9A6D"/>
  <rect x="23.2233" y="73.0587" width="0.26" height="7.1000" fill="#7B9A6D" fill-opacity="0.8"/>
  <rect x="23.2233" y="83.2656" width="0.26" height="5.8900" fill="#7B9A6D" fill-opacity="0.8"/>
  <rect x="37.4767" y="73.0587" width="0.26" height="7.1000" fill="#7B9A6D" fill-opacity="0.8"/>
  <rect x="37.4767" y="83.2656" width="0.26" height="5.8900" fill="#7B9A6D" fill-opacity="0.8"/>
  <rect x="51.7300" y="73.0587" width="0.26" height="7.1000" fill="#7B9A6D" fill-opacity="0.8"/>
  <rect x="51.7300" y="83.2656" width="0.26" height="5.8900" fill="#7B9A6D" fill-opacity="0.8"/>
  <circle cx="7.8900" cy="53.5518" r="4.2900" fill="#1B151E" stroke="#7B9A6D" stroke-width="0.2"/>
  <circle cx="21.0933" cy="53.5518" r="4.2900" fill="#1B151E" stroke="#7B9A6D" stroke-width="0.2"/>
  <circle cx="36.4767" cy="53.5518" r="5.5000" fill="#1B151E" stroke="#7B9A6D" stroke-width="0.2"/>
  <circle cx="51.8600" cy="53.5518" r="5.5000" fill="#1B151E" stroke="#7B9A6D" stroke-width="0.2"/>
  <circle cx="9.1000" cy="73.0587" r="5.5000" fill="#1B151E" stroke="#7B9A6D" stroke-width="0.2"/>
  <circle cx="23.3533" cy="73.0587" r="5.5000" fill="#1B151E" stroke="#7B9A6D" stroke-width="0.2"/>
  <circle cx="37.6067" cy="73.0587" r="5.5000" fill="#1B151E" stroke="#7B9A6D" stroke-width="0.2"/>
  <circle cx="51.8600" cy="73.0587" r="5.5000" fill="#1B151E" stroke="#7B9A6D" stroke-width="0.2"/>
  <circle cx="23.3533" cy="89.1556" r="4.2900" fill="#1B151E" stroke="#7B9A6D" stroke-width="0.2"/>
  <circle cx="37.6067" cy="89.1556" r="4.2900" fill="#1B151E" stroke="#7B9A6D" stroke-width="0.2"/>
  <circle cx="51.8600" cy="89.1556" r="4.2900" fill="#1B151E" stroke="#7B9A6D" stroke-width="0.2"/>
  <circle cx="9.1000" cy="101.1974" r="5.5000" fill="#1B151E" stroke="#7B9A6D" stroke-width="0.2"/>
  <circle cx="23.3533" cy="101.1974" r="4.2900" fill="#1B151E" stroke="#7B9A6D" stroke-width="0.2"/>
  <circle cx="37.6067" cy="101.1974" r="4.2900" fill="#1B151E" stroke="#7B9A6D" stroke-width="0.2"/>
  <circle cx="51.8600" cy="101.1974" r="4.2900" fill="#1B151E" stroke="#7B9A6D" stroke-width="0.2"/>
  <circle cx="10.1550" cy="118.6000" r="4.2900" fill="#1B151E" stroke="#7B9A6D" stroke-width="0.2"/>
  <circle cx="23.7050" cy="118.6000" r="4.2900" fill="#1B151E" stroke="#7B9A6D" stroke-width="0.2"/>
  <circle cx="37.2550" cy="118.6000" r="4.2900" fill="#1B151E" stroke="#7B9A6D" stroke-width="0.2"/>
  <circle cx="50.8050" cy="118.6000" r="4.2900" fill="#1B151E" stroke="#7B9A6D" stroke-width="0.2"/>
</g>
<g inkscape:label="components" inkscape:groupmode="layer" id="components" style="display:none">
  <circle inkscape:label="audio_l" cx="7.8900" cy="53.5518" r="1" fill="#00ff00"/>
  <circle inkscape:label="audio_r" cx="21.0933" cy="53.5518" r="1" fill="#00ff00"/>
  <circle inkscape:label="sens" cx="36.4767" cy="53.5518" r="1" fill="#ff0000"/>
  <circle inkscape:label="tilt" cx="51.8600" cy="53.5518" r="1" fill="#ff0000"/>
  <circle inkscape:label="trail" cx="9.1000" cy="73.0587" r="1" fill="#ff0000"/>
  <circle inkscape:label="scale" cx="23.3533" cy="73.0587" r="1" fill="#ff0000"/>
  <circle inkscape:label="warp" cx="37.6067" cy="73.0587" r="1" fill="#ff0000"/>
  <circle inkscape:label="hue" cx="51.8600" cy="73.0587" r="1" fill="#ff0000"/>
  <circle inkscape:label="scale_cv" cx="23.3533" cy="89.1556" r="1" fill="#00ff00"/>
  <circle inkscape:label="warp_cv" cx="37.6067" cy="89.1556" r="1" fill="#00ff00"/>
  <circle inkscape:label="hue_cv" cx="51.8600" cy="89.1556" r="1" fill="#00ff00"/>
  <circle inkscape:label="sat" cx="9.1000" cy="101.1974" r="1" fill="#ff0000"/>
  <circle inkscape:label="mode_cv" cx="23.3533" cy="101.1974" r="1" fill="#00ff00"/>
  <circle inkscape:label="flash" cx="37.6067" cy="101.1974" r="1" fill="#00ff00"/>
  <circle inkscape:label="freeze" cx="51.8600" cy="101.1974" r="1" fill="#00ff00"/>
  <circle inkscape:label="low_out" cx="10.1550" cy="118.6000" r="1" fill="#00ff00"/>
  <circle inkscape:label="mid_out" cx="23.7050" cy="118.6000" r="1" fill="#00ff00"/>
  <circle inkscape:label="high_out" cx="37.2550" cy="118.6000" r="1" fill="#00ff00"/>
  <circle inkscape:label="onset_out" cx="50.8050" cy="118.6000" r="1" fill="#00ff00"/>
</g>
</svg>
